<svg xmlns="http://www.w3.org/2000/svg" viewBox="-15 -25 45 45">
  <style>
    @keyframes rabbit-notif-obj {
      0%   { transform: translate(0, 0); }
      8%   { transform: translate(0, 1px); }
      20%  { transform: translate(0, -6px); }
      35%  { transform: translate(0, 0); }
      45%  { transform: translate(0, -2px); }
      55%  { transform: translate(0, 0); }
      100% { transform: translate(0, 0); }
    }
    @keyframes rabbit-notif-shadow {
      0%   { transform: translate(-2px, 0px) scaleX(1); }
      8%   { transform: translate(-2px, 0px) scaleX(1.15); }
      20%  { transform: translate(-2px, 0px) scaleX(0.6); }
      35%  { transform: translate(-2px, 0px) scaleX(1.1); }
      55%  { transform: translate(-2px, 0px) scaleX(1); }
      100% { transform: translate(-2px, 0px) scaleX(1); }
    }
    @keyframes rabbit-notif-bang {
      0%   { opacity: 0; transform: translate(9px, -16px) scale(0.3); }
      15%  { opacity: 1; transform: translate(9px, -14px) scale(1.1); }
      25%  { transform: translate(9px, -14px) scale(1); opacity: 1; }
      70%  { opacity: 1; }
      100% { opacity: 0; }
    }

    #rabbit-notif-obj { animation: rabbit-notif-obj 2.5s ease-in-out infinite; }
    #rabbit-notif-shadow { animation: rabbit-notif-shadow 2.5s ease-in-out infinite; }
    #rabbit-notif-bang { animation: rabbit-notif-bang 3.5s ease-out infinite; }
  </style>

  <g transform="translate(1, 7)">
    <!-- Shadow -->
    <g id="rabbit-notif-shadow" transform="translate(-2, 0)">
      <rect width="8" height="1" transform="matrix(-1 0 0 1 8 0.5)" fill="#2B4447" fill-opacity="0.1"/>
      <rect width="6.76923" height="0.25" transform="matrix(-1 0 0 1 7.38452 0.25)" fill="#2B4447" fill-opacity="0.1"/>
      <rect width="6.76923" height="0.25" transform="matrix(-1 0 0 1 7.38452 1.5)" fill="#2B4447" fill-opacity="0.1"/>
      <rect width="5.53846" height="0.25" transform="matrix(-1 0 0 1 6.76929 0)" fill="#2B4447" fill-opacity="0.1"/>
      <rect width="5.53846" height="0.25" transform="matrix(-1 0 0 1 6.76929 1.75)" fill="#2B4447" fill-opacity="0.1"/>
    </g>

    <!-- obj: startle jump -->
    <g id="rabbit-notif-obj">
      <g transform="translate(-4, -4)">
        <rect x="4" width="6" height="4" fill="#FFF2F4"/>
        <rect x="2" y="1" width="8" height="3" fill="#FFF2F4"/>
        <rect x="1" y="2" width="8" height="2" fill="#FFF2F4"/>
        <rect x="2" y="3" width="8" height="2" fill="#FFF2F4"/>
        <rect y="2" width="8" height="1" fill="#FFF2F4"/>
        <rect x="1" y="3" width="1" height="1" fill="#FF6666" fill-opacity="0.1"/>
        <rect x="2" y="4" width="2" height="1" fill="#FF6666" fill-opacity="0.1"/>
        <rect x="6" y="3" width="1" height="2" fill="#FF6666" fill-opacity="0.1"/>
        <rect x="8" y="3" width="1" height="2" fill="#FF6666" fill-opacity="0.1"/>
      </g>
      <g transform="translate(0, -10)">
        <rect x="1" y="3" width="5" height="4" fill="#FFF2F4"/>
        <rect y="4" width="7" height="3" fill="#FFF2F4"/>
        <rect x="1" y="4" width="5" height="4" fill="#FFF2F4"/>
        <rect y="2" width="3" height="5" fill="#FFF2F4"/>
        <rect x="4" y="2" width="3" height="5" fill="#FFF2F4"/>
        <rect width="2" height="3" fill="#FFF2F4"/>
        <rect x="5" width="2" height="3" fill="#FFF2F4"/>
        <rect x="1" y="1" width="1" height="2" fill="#FBB3BE"/>
        <rect x="5" y="1" width="1" height="2" fill="#FBB3BE"/>
        <rect width="2" height="1" transform="matrix(-1 0 0 1 2 5)" fill="#FF778F"/>
        <rect width="2" height="1" transform="matrix(-1 0 0 1 8 5)" fill="#FF778F"/>
        <rect x="3" y="6" width="2" height="1" fill="black"/>
        <rect y="6" width="1" height="1" fill="#FF6666" fill-opacity="0.1"/>
        <rect x="1" y="7" width="1" height="1" fill="#FF6666" fill-opacity="0.1"/>
        <!-- Wide open eyes -->
        <rect x="1.7" y="3.7" width="1.3" height="1.3" fill="black"/>
        <rect x="4.7" y="3.7" width="1.3" height="1.3" fill="black"/>
      </g>
    </g>

    <!-- Yellow ! -->
    <g id="rabbit-notif-bang" transform="translate(9, -14)">
      <rect x="1" y="0" width="2" height="4" fill="#FFB800"/>
      <rect x="1" y="5" width="2" height="2" fill="#FFB800"/>
    </g>
  </g>
</svg>
