<svg xmlns="http://www.w3.org/2000/svg" fill="none" overflow="visible">
  <style>
    *{act}

    @keyframes fishman-*{id}-hand-move {
    0% {
    transform: translate(2px, 3px) rotate(-10deg);
    }
    50% {
    transform: translate(2px, 3px) rotate(10deg);
    }
    100% {
    transform: translate(2px, 3px) rotate(-10deg);
    }
    }

    @keyframes fishman-*{id}-leg-left-move {
    0% {
    transform: translate(3px, 13px);
    }
    50% {
    transform: translate(3px, 13px) rotate(10deg);
    }
    100% {
    transform: translate(3px, 13px);
    }
    }

    @keyframes fishman-*{id}-leg-right-move {
    0% {
    transform: translate(6px, 13px);
    }
    50% {
    transform: translate(6px, 13px) rotate(-10deg);
    }
    100% {
    transform: translate(6px, 13px);
    }
    }

    @keyframes fishman-*{id}-eyelid-left-move {
    0% {
    transform: translate(0.2px, 3px) scaleY(0);
    }
    50% {
    transform: translate(0.2px, 3.7px) scaleY(-1.17);
    }
    100% {
    transform: translate(0.2px, 3px) scaleY(0);
    }
    }

    @keyframes fishman-*{id}-eyelid-right-move {
    0% {
    transform: translate(2.2px, 3px) scaleY(0);
    }
    50% {
    transform: translate(2.2px, 3.7px) scaleY(-1.17);
    }
    100% {
    transform: translate(2.2px, 3px) scaleY(0);
    }
    }

    #fishman-*{id}-leg-left {
    animation-name:fishman-*{id}-leg-left-move;
    animation-duration:1s;
    animation-iteration-count:infinite;
    animation-timing-function: ease-in-out;
    }

    #fishman-*{id}-leg-right {
    animation-name:fishman-*{id}-leg-right-move;
    animation-duration:1s;
    animation-iteration-count:infinite;
    animation-timing-function: ease-in-out;
    }

    #fishman-*{id}-hand {
    animation-name:fishman-*{id}-hand-move;
    animation-duration:2s;
    animation-iteration-count:infinite;
    animation-timing-function: ease-in-out;
    }

    #fishman-*{id}-eyelid-left {
    animation-name:fishman-*{id}-eyelid-left-move;
    animation-duration:3s;
    animation-iteration-count:infinite;
    animation-timing-function: ease-in-out;
    }

    #fishman-*{id}-eyelid-right {
    animation-name:fishman-*{id}-eyelid-right-move;
    animation-duration:3s;
    animation-iteration-count:infinite;
    animation-timing-function: ease-in-out;
    }
  </style>

  <g id="fishman-*{id}">
    <g id="contributions-wrap-*{id}">
      <g id="contributions" transform="translate(-19, -45)"
        style="display:*{contribution-display};">
        <g id="contribution-tag" transform="translate(-3, -1)">
          <rect x="3" width="77" height="19" fill="white"/>
          <rect x="1" y="1.26669" width="81" height="16.4667" fill="white"/>
          <rect y="2.53333" width="83" height="13.9333" fill="white"/>
        </g>
        <path
          d="M1 2.75H4V3.5H4.75V4.25H3.25V3.5H1.75V7.25H3.25V6.5H4.75V7.25H4V8H1V7.25H0.25V3.5H1V2.75ZM7 2.75H10V3.5H10.75V7.25H10V8H7V7.25H6.25V3.5H7V2.75ZM9.25 7.25V3.5H7.75V7.25H9.25ZM16 3.5H16.75V8H15.25V3.5H13.75V8H12.25V2.75H16V3.5ZM19 1.25H20.5V2.75H22.75V3.5H20.5V7.25H22.75V8H19.75V7.25H19V3.5H18.25V2.75H19V1.25ZM24.25 2.75H25.75V4.25H26.5V5H25.75V8H24.25V2.75ZM28.75 2.75V4.25H26.5V3.5H27.25V2.75H28.75ZM33.25 2H31.75V0.5H33.25V2ZM33.25 7.25H34.75V8H30.25V7.25H31.75V3.5H30.25V2.75H33.25V7.25ZM40 3.5H40.75V7.25H40V8H36.25V1.25H37.75V2.75H40V3.5ZM39.25 7.25V3.5H37.75V7.25H39.25ZM45.25 2.75H46.75V8H43V7.25H42.25V2.75H43.75V7.25H45.25V2.75ZM49 1.25H50.5V2.75H52.75V3.5H50.5V7.25H52.75V8H49.75V7.25H49V3.5H48.25V2.75H49V1.25ZM57.25 2H55.75V0.5H57.25V2ZM57.25 7.25H58.75V8H54.25V7.25H55.75V3.5H54.25V2.75H57.25V7.25ZM61 2.75H64V3.5H64.75V7.25H64V8H61V7.25H60.25V3.5H61V2.75ZM63.25 7.25V3.5H61.75V7.25H63.25ZM70 3.5H70.75V8H69.25V3.5H67.75V8H66.25V2.75H70V3.5ZM73 5H72.25V3.5H73V2.75H76.75V3.5H73.75V5H76V5.75H76.75V7.25H76V8H72.25V7.25H75.25V5.75H73V5Z"
          fill="black"/>
        <svg width="600" height="300" viewBox="0 0 200 100" fill="none" overflow="visible"
          xmlns="http://www.w3.org/2000/svg">
          <g id="contribution" transform="translate(*{contributionx}, 3.5)">
            *{contribution}
          </g>
        </svg>
      </g>
    </g>

    <g id="level-tag-wrap-*{id}">
      <g id="level-tag" transform="translate(-22, -25.5)" style="display:*{level-tag-display};">
        <rect x="3" width="77" height="9" fill="white"/>
        <rect x="1" y="0.600006" width="81" height="7.8" fill="white"/>
        <rect y="1.20001" width="83" height="6.6" fill="white"/>
      </g>
    </g>

    <g id="level-wrap-*{id}">
      <svg width="600" height="300" viewBox="0 0 200 100" fill="none" overflow="visible"
        xmlns="http://www.w3.org/2000/svg">
        <g id="level" transform="translate(*{levelx}, -8)">
          <g transform="translate(10, -0.05)">
            <path
              d="M0.21875 0.03125H0.65625V1.78125H1.53125V2H0.21875V0.03125ZM2.1875 1.5625H1.96875V0.46875H2.40625V1.5625H2.84375V0.46875H3.28125V1.5625H3.0625V1.78125H2.84375V2H2.40625V1.78125H2.1875V1.5625Z"
              fill="black"/>
          </g>
          *{level}
        </g>
      </svg>
    </g>

    <svg width="600" height="300" viewBox="0 0 200 100" fill="none" overflow="visible">
      <g id="fishman-*{id}-shadow" transform="translate(0, 16.5)">
        <rect y="0.75" width="11" height="1.5" fill="#2B4447" fill-opacity="0.1"/>
        <rect x="0.846146" y="0.375" width="9.30769" height="0.375" fill="#2B4447"
          fill-opacity="0.1"/>
        <rect x="0.846146" y="2.25" width="9.30769" height="0.375" fill="#2B4447"
          fill-opacity="0.1"/>
        <rect x="1.69228" width="7.61539" height="0.375" fill="#2B4447" fill-opacity="0.1"/>
        <rect x="1.69228" y="2.625" width="7.61539" height="0.375" fill="#2B4447"
          fill-opacity="0.1"/>
      </g>

      <g id="fishman-*{id}-leg-left" transform="translate(2, 13)">
        <rect width="1" height="5" transform="matrix(-1 0 0 1 1 0)" fill="#E5FD83"/>
        <rect width="3" height="1" transform="matrix(-1 0 0 1 3 4)" fill="#E5FD83"/>
        <rect width="2" height="2" transform="matrix(-1 0 0 1 2 0)" fill="#6BB3B9"/>
        <rect width="2" height="1" transform="matrix(-1 0 0 1 2 1)" fill="black"
          fill-opacity="0.1"/>
        <rect width="1" height="1" transform="matrix(-1 0 0 1 1 2)" fill="black"
          fill-opacity="0.1"/>
      </g>

      <g id="fishman-*{id}-leg-right" transform="translate(6, 13)">
        <rect width="1" height="5" transform="matrix(-1 0 0 1 1 0)" fill="#E5FD83"/>
        <rect width="3" height="1" transform="matrix(-1 0 0 1 3 4)" fill="#E5FD83"/>
        <rect width="2" height="2" transform="matrix(-1 0 0 1 2 0)" fill="#6BB3B9"/>
        <rect width="2" height="1" transform="matrix(-1 0 0 1 2 1)" fill="black"
          fill-opacity="0.1"/>
        <rect width="1" height="1" transform="matrix(-1 0 0 1 1 2)" fill="black"
          fill-opacity="0.1"/>
      </g>

      <g id="fishman-*{id}-body" transform="translate(0, -5)">
        <rect width="6" height="12" transform="matrix(-1 0 0 1 9 2)" fill="#DDCB3B"/>
        <rect width="7" height="14" transform="matrix(-1 0 0 1 9 1)" fill="#DDCB3B"/>
        <rect width="7" height="2" transform="matrix(-1 0 0 1 9 5)" fill="#DDCB3B"/>
        <rect width="3" height="2" transform="matrix(-1 0 0 1 6 0)" fill="#504889"/>
        <rect width="4" height="2" transform="matrix(-1 0 0 1 7 0)" fill="#504889"/>
        <rect width="2" height="2" transform="matrix(-1 0 0 1 4 1)" fill="#504889"/>
        <rect width="3" height="1" transform="matrix(-1 0 0 1 3 3)" fill="#504889"/>
        <rect width="2" height="3" transform="matrix(-1 0 0 1 2 5)" fill="#504889"/>
        <rect width="2" height="7" transform="matrix(-1 0 0 1 3 7)" fill="#504889"/>
        <rect width="1" height="4" transform="matrix(-1 0 0 1 2 2)" fill="#504889"/>
        <rect width="2" height="3" transform="matrix(-1 0 0 1 3 2)" fill="#504889"/>
        <rect width="1" height="2" transform="matrix(-1 0 0 1 9 2)" fill="#DDCB3B"/>
        <rect width="5" height="11" transform="matrix(-1 0 0 1 9 1)" fill="#DDCB3B"/>
        <rect width="3" height="7" transform="matrix(-1 0 0 1 6 2)" fill="#DDCB3B"/>
        <rect width="4" height="4" transform="matrix(-1 0 0 1 6 3)" fill="#DDCB3B"/>
        <rect width="5" height="2" transform="matrix(-1 0 0 1 6 5)" fill="#DDCB3B"/>
        <rect width="1" height="7" transform="matrix(-1 0 0 1 3 7)" fill="#DDCB3B"/>
        <rect width="7" height="12" transform="matrix(-1 0 0 1 10 2)" fill="#DDCB3B"/>
        <rect width="3" height="6" transform="matrix(-1 0 0 1 10 8)" fill="#7E7B1C"/>
        <rect width="3" height="6" transform="matrix(-1 0 0 1 9 9)" fill="#7E7B1C"/>
        <rect width="1.75" height="0.75" transform="matrix(-1 0 0 1 10.25 5.25)" fill="#938FB7"/>
        <rect x="7" y="5.5" width="2.25" height="0.75" fill="#938FB7"/>
        <rect x="6.25" y="5.5" width="1.5" height="0.5" fill="#938FB7"/>
        <rect x="5.25" y="5.5" width="1.75" height="0.25" fill="#938FB7"/>
        <rect x="4.5" y="5.25" width="1" height="0.25" fill="#938FB7"/>
        <rect x="5.25" y="5.25" width="0.25" height="0.5" fill="#938FB7"/>
        <rect width="0.75" height="0.75" transform="matrix(-1 0 0 1 10.75 5)" fill="#938FB7"/>
        <rect width="0.5" height="0.5" transform="matrix(-1 0 0 1 11 5.25)" fill="#938FB7"/>
        <rect width="1" height="0.25" transform="matrix(-1 0 0 1 6.25 6)" fill="#938FB7"/>
        <rect width="1" height="0.75" transform="matrix(-1 0 0 1 10.75 6)" fill="#938FB7"/>
        <rect width="3" height="0.75" transform="matrix(-1 0 0 1 10 6.25)" fill="#938FB7"/>
        <rect width="1" height="0.75" transform="matrix(-1 0 0 1 7.25 6)" fill="#938FB7"/>
        <rect width="1" height="0.5" transform="matrix(-1 0 0 1 6.75 6)" fill="#938FB7"/>
        <rect width="1" height="0.25" transform="matrix(-1 0 0 1 5.75 5.75)" fill="#938FB7"/>
        <rect width="0.25" height="0.5" transform="matrix(-1 0 0 1 5 5.5)" fill="#938FB7"/>
        <rect width="0.5" height="0.5" transform="matrix(-1 0 0 1 5.75 5.75)" fill="#938FB7"/>
        <rect width="0.75" height="0.5" transform="matrix(-1 0 0 1 11 6)" fill="#938FB7"/>
        <rect width="0.75" height="0.25" transform="matrix(-1 0 0 1 11 5.75)" fill="#8481A5"/>
        <rect width="1" height="0.25" transform="matrix(-1 0 0 1 10.25 6)" fill="#8481A5"/>
        <rect width="2.25" height="0.25" transform="matrix(-1 0 0 1 9.25 6.25)" fill="#8481A5"/>
        <rect width="0.75" height="0.25" transform="matrix(-1 0 0 1 7 6)" fill="#8481A5"/>
        <rect width="1" height="0.25" transform="matrix(-1 0 0 1 6.25 5.75)" fill="#8481A5"/>
        <rect width="1" height="0.25" transform="matrix(-1 0 0 1 5.25 5.5)" fill="#8481A5"/>
        <rect width="1" height="1" transform="matrix(-1 0 0 1 3 7)" fill="black" fill-opacity="0.1"/>
        <rect width="1" height="1" transform="matrix(-1 0 0 1 2 6)" fill="black" fill-opacity="0.1"/>
        <rect width="1" height="1" transform="matrix(-1 0 0 1 5 5)" fill="black" fill-opacity="0.1"/>
        <rect width="1" height="1" transform="matrix(-1 0 0 1 5 7)" fill="black" fill-opacity="0.1"/>
        <rect width="1" height="1" transform="matrix(-1 0 0 1 4 8)" fill="black" fill-opacity="0.1"/>
        <rect width="2" height="1" transform="matrix(-1 0 0 1 11 14)" fill="#69B1B8"/>
        <rect width="8" height="3" transform="matrix(-1 0 0 1 10 14)" fill="#69B1B8"/>
        <rect width="6" height="2" transform="matrix(-1 0 0 1 9 16)" fill="#69B1B8"/>
        <rect width="1" height="3" transform="matrix(-1 0 0 1 3 14)" fill="#69B1B8"/>
        <rect width="9" height="1" transform="matrix(-1 0 0 1 11 14)" fill="black" fill-opacity="0.1"/>
        <rect width="5" height="2" transform="matrix(-1 0 0 1 8 17)" fill="#69B1B8"/>
      </g>
      <g id="fishman-*{id}-hand" transform="translate(2, 3)">
        <rect width="1" height="8" transform="matrix(-1 0 0 1 2 0)" fill="#EBF4A1"/>
        <rect width="1" height="3" transform="matrix(-1 0 0 1 1 6)" fill="#EBF4A1"/>
        <rect width="2" height="6" transform="matrix(-1 0 0 1 2 2)" fill="#EBF4A1"/>
        <rect width="1" height="2" transform="matrix(-1 0 0 1 2 2)" fill="black"
          fill-opacity="0.1"/>
        <rect width="1" height="2" transform="matrix(-1 0 0 1 1 4)" fill="black"
          fill-opacity="0.1"/>
        <rect width="1" height="2" transform="matrix(-1 0 0 1 2 6)" fill="black"
          fill-opacity="0.1"/>
        <rect width="1" height="1" transform="matrix(-1 0 0 1 1 8)" fill="black"
          fill-opacity="0.1"/>
        <rect width="1" height="1" transform="matrix(-1 0 0 1 2 0)" fill="black"
          fill-opacity="0.1"/>
      </g>
      <g id="fishman-*{id}-eyes" transform="translate(6, -3)">
        <rect width="1.5" height="2.14286" transform="matrix(-1 0 0 1 4.35718 0.428589)"
          fill="white"/>
        <rect width="1.5" height="2.14286" transform="matrix(-1 0 0 1 3.92847 0.428589)"
          fill="white"/>
        <rect width="1.5" height="1.71429" transform="matrix(-1 0 0 1 3.71436 0.642883)"
          fill="white"/>
        <rect width="1.5" height="1.71429" transform="matrix(-1 0 0 1 5 0.642883)" fill="white"/>
        <rect width="1.5" height="2.14286" transform="matrix(-1 0 0 1 4.35718 0.857117)"
          fill="white"/>
        <rect width="1.5" height="2.14286" transform="matrix(-1 0 0 1 4.78564 0.428589)"
          fill="white"/>
        <rect width="1.92857" height="2.57143" transform="matrix(-1 0 0 1 4.57153 0.214294)"
          fill="white"/>
        <rect width="1.71429" height="2.35714" transform="matrix(-1 0 0 1 4.35718 0.214294)"
          fill="white"/>
        <rect width="1.07142" height="0.857143" transform="matrix(-1 0 0 1 4.35718 1.07141)"
          fill="black"/>
        <rect width="0.642852" height="0.428571" transform="matrix(-1 0 0 1 4.14282 1.71429)"
          fill="black"/>
        <g id="fishman-*{id}-eyelid-right">
          <rect y="1.14282" width="2.79" height="0.85717" fill="#DDCB3B"/>
          <rect x="0.2146" y="0.928467" width="2.36077" height="0.85717" fill="#DDCB3B"/>
          <rect x="0.429199" y="0.714233" width="1.93154" height="0.85717" fill="#DDCB3B"/>
          <rect x="0.643799" y="0.5" width="1.50231" height="0.85717" fill="#DDCB3B"/>
        </g>
        <rect width="0.214284" height="0.214286" transform="matrix(-1 0 0 1 4.78564 0.428589)"
          fill="#DDCB3B"/>
        <rect width="0.214284" height="0.214286" transform="matrix(-1 0 0 1 4.57153 0.214294)"
          fill="#DDCB3B"/>
        <rect width="0.214284" height="0.214286" transform="matrix(-1 0 0 1 4.35718 0)"
          fill="#DDCB3B"/>
        <rect width="0.214284" height="0.214286" transform="matrix(-1 0 0 1 3.07153 0)"
          fill="#DDCB3B"/>
        <rect width="0.214284" height="0.214286" transform="matrix(-1 0 0 1 2.85718 0.214294)"
          fill="#DDCB3B"/>
        <rect width="0.214284" height="0.214286" transform="matrix(-1 0 0 1 2.64282 0.428589)"
          fill="#DDCB3B"/>
        <rect width="2.35714" height="1.07143" transform="matrix(-1 0 0 1 4.78564 0.428589)"
          fill="#DDCB3B"/>
        <rect width="2.78571" height="0.857143" transform="matrix(-1 0 0 1 5 0.642883)"
          fill="#DDCB3B"/>
        <rect width="1.92857" height="1.07143" transform="matrix(-1 0 0 1 4.57153 0.214294)"
          fill="#DDCB3B"/>
        <rect width="1.5" height="1.07143" transform="matrix(-1 0 0 1 4.35718 0)" fill="#DDCB3B"/>
        <rect width="0.214286" height="0.214286" transform="matrix(-1 0 0 1 2.64282 0.428589)"
          fill="black" fill-opacity="0.1"/>
        <rect width="0.214286" height="0.214286" transform="matrix(-1 0 0 1 2.85718 0.214294)"
          fill="black" fill-opacity="0.1"/>
        <rect width="1.5" height="0.214286" transform="matrix(-1 0 0 1 4.35718 0)" fill="black"
          fill-opacity="0.1"/>
        <rect width="0.214286" height="0.214286" transform="matrix(-1 0 0 1 4.57153 0.214294)"
          fill="black" fill-opacity="0.1"/>
        <rect width="0.214286" height="0.214286" transform="matrix(-1 0 0 1 4.78564 0.428589)"
          fill="black" fill-opacity="0.1"/>
        <rect width="0.214286" height="0.214286" transform="matrix(-1 0 0 1 5 0.642883)"
          fill="black" fill-opacity="0.1"/>
        <rect width="0.214286" height="0.214286" transform="matrix(-1 0 0 1 2.42847 0.642883)"
          fill="black" fill-opacity="0.1"/>
        <rect width="0.642857" height="0.214286" transform="matrix(-1 0 0 1 5 1.07141)" fill="black"
          fill-opacity="0.1"/>
        <rect width="0.642857" height="0.214286" transform="matrix(-1 0 0 1 2.85718 1.07141)"
          fill="black" fill-opacity="0.1"/>
        <rect width="1.5" height="2.14286" transform="matrix(-1 0 0 1 2.35718 0.428589)"
          fill="white"/>
        <rect width="1.5" height="2.14286" transform="matrix(-1 0 0 1 1.92847 0.428589)"
          fill="white"/>
        <rect width="1.5" height="1.71429" transform="matrix(-1 0 0 1 1.71436 0.642883)"
          fill="white"/>
        <rect width="1.5" height="1.71429" transform="matrix(-1 0 0 1 3 0.642883)" fill="white"/>
        <rect width="1.5" height="2.14286" transform="matrix(-1 0 0 1 2.35718 0.857117)"
          fill="white"/>
        <rect width="1.5" height="2.14286" transform="matrix(-1 0 0 1 2.78564 0.428589)"
          fill="white"/>
        <rect width="1.92857" height="2.57143" transform="matrix(-1 0 0 1 2.57153 0.214294)"
          fill="white"/>
        <rect width="1.71429" height="2.35714" transform="matrix(-1 0 0 1 2.35718 0.214294)"
          fill="white"/>
        <rect width="1.07142" height="0.857143" transform="matrix(-1 0 0 1 2.35718 1.07141)"
          fill="black"/>
        <rect width="0.642852" height="0.428571" transform="matrix(-1 0 0 1 2.14282 1.71429)"
          fill="black"/>
        <g id="fishman-*{id}-eyelid-left">
          <rect y="1.14282" width="2.79" height="0.85717" fill="#DDCB3B"/>
          <rect x="0.2146" y="0.928467" width="2.36077" height="0.85717" fill="#DDCB3B"/>
          <rect x="0.429199" y="0.714233" width="1.93154" height="0.85717" fill="#DDCB3B"/>
          <rect x="0.643799" y="0.5" width="1.50231" height="0.85717" fill="#DDCB3B"/>
        </g>
        <rect width="0.214284" height="0.214286" transform="matrix(-1 0 0 1 2.78564 0.428589)"
          fill="#DDCB3B"/>
        <rect width="0.214284" height="0.214286" transform="matrix(-1 0 0 1 2.57153 0.214294)"
          fill="#DDCB3B"/>
        <rect width="0.214284" height="0.214286" transform="matrix(-1 0 0 1 2.35718 0)"
          fill="#DDCB3B"/>
        <rect width="0.214284" height="0.214286" transform="matrix(-1 0 0 1 1.07153 0)"
          fill="#DDCB3B"/>
        <rect width="0.214284" height="0.214286" transform="matrix(-1 0 0 1 0.857178 0.214294)"
          fill="#DDCB3B"/>
        <rect width="0.214284" height="0.214286" transform="matrix(-1 0 0 1 0.642822 0.428589)"
          fill="#DDCB3B"/>
        <rect width="2.35714" height="1.07143" transform="matrix(-1 0 0 1 2.78564 0.428589)"
          fill="#DDCB3B"/>
        <rect width="2.78571" height="0.857143" transform="matrix(-1 0 0 1 3 0.642883)"
          fill="#DDCB3B"/>
        <rect width="1.92857" height="1.07143" transform="matrix(-1 0 0 1 2.57153 0.214294)"
          fill="#DDCB3B"/>
        <rect width="1.5" height="1.07143" transform="matrix(-1 0 0 1 2.35718 0)" fill="#DDCB3B"/>
        <rect width="0.214286" height="0.214286" transform="matrix(-1 0 0 1 0.642822 0.428589)"
          fill="black" fill-opacity="0.1"/>
        <rect width="0.214286" height="0.214286" transform="matrix(-1 0 0 1 0.857178 0.214294)"
          fill="black" fill-opacity="0.1"/>
        <rect width="1.5" height="0.214286" transform="matrix(-1 0 0 1 2.35718 0)" fill="black"
          fill-opacity="0.1"/>
        <rect width="0.214286" height="0.214286" transform="matrix(-1 0 0 1 2.57153 0.214294)"
          fill="black" fill-opacity="0.1"/>
        <rect width="0.214286" height="0.214286" transform="matrix(-1 0 0 1 2.78564 0.428589)"
          fill="black" fill-opacity="0.1"/>
        <rect width="0.214286" height="0.214286" transform="matrix(-1 0 0 1 3 0.642883)"
          fill="black" fill-opacity="0.1"/>
        <rect width="0.214286" height="0.214286" transform="matrix(-1 0 0 1 0.428467 0.642883)"
          fill="black" fill-opacity="0.1"/>
        <rect width="0.642857" height="0.214286" transform="matrix(-1 0 0 1 3 1.07141)" fill="black"
          fill-opacity="0.1"/>
        <rect width="0.642857" height="0.214286" transform="matrix(-1 0 0 1 0.857178 1.07141)"
          fill="black" fill-opacity="0.1"/>
      </g>
    </svg>
  </g>
</svg>
