<svg xmlns="http://www.w3.org/2000/svg" fill="none" overflow="visible">
  <style>
    *{act}

    @keyframes quokka-*{id}-head-move {
    0% {
    transform: translate(-0.5px, -6px);
    }
    50% {
    transform: translate(0px, -6px);
    }
    100% {
    transform: translate(-0.5px, -6px);
    }
    }

    @keyframes quokka-*{id}-leg-left-move {
    0% {
    transform: translate(0.5px, 3px);
    }
    50% {
    transform: translate(0.5px, 4px);
    }
    100% {
    transform: translate(0.5px, 3px);
    }
    }

    @keyframes quokka-*{id}-leg-right-move {
    0% {
    transform: translate(3.5px, 3px);
    }
    50% {
    transform: translate(3.5px, 4px);
    }
    100% {
    transform: translate(3.5px, 3px);
    }
    }

    #quokka-*{id}-head {
    animation-name: quokka-*{id}-head-move;
    animation-duration: 1s;
    animation-iteration-count: infinite;
    animation-timing-function: ease-in-out;
    }

    #quokka-*{id}-leg-left {
    animation-name:quokka-*{id}-leg-left-move;
    animation-duration:1s;
    animation-iteration-count:infinite;
    animation-timing-function: ease-in-out;
    }

    #quokka-*{id}-leg-right {
    animation-name:quokka-*{id}-leg-right-move;
    animation-duration:1s;
    animation-delay: 0.5s;
    animation-iteration-count:infinite;
    animation-timing-function: ease-in-out;
    }
  </style>


  <g id="quokka-*{id}" transform="translate(100, 100)">
    <g id="contributions-wrap-*{id}">
      <g id="contributions" transform="translate(-28.5, -51)"
        style="display:*{contribution-display};">
        <g id="contribution-tag" transform="translate(-3, -1)">
          <rect x="3" width="77" height="19" fill="white"/>
          <rect x="1" y="1.26669" width="81" height="16.4667" fill="white"/>
          <rect y="2.53333" width="83" height="13.9333" fill="white"/>
        </g>
        <path
          d="M1 2.75H4V3.5H4.75V4.25H3.25V3.5H1.75V7.25H3.25V6.5H4.75V7.25H4V8H1V7.25H0.25V3.5H1V2.75ZM7 2.75H10V3.5H10.75V7.25H10V8H7V7.25H6.25V3.5H7V2.75ZM9.25 7.25V3.5H7.75V7.25H9.25ZM16 3.5H16.75V8H15.25V3.5H13.75V8H12.25V2.75H16V3.5ZM19 1.25H20.5V2.75H22.75V3.5H20.5V7.25H22.75V8H19.75V7.25H19V3.5H18.25V2.75H19V1.25ZM24.25 2.75H25.75V4.25H26.5V5H25.75V8H24.25V2.75ZM28.75 2.75V4.25H26.5V3.5H27.25V2.75H28.75ZM33.25 2H31.75V0.5H33.25V2ZM33.25 7.25H34.75V8H30.25V7.25H31.75V3.5H30.25V2.75H33.25V7.25ZM40 3.5H40.75V7.25H40V8H36.25V1.25H37.75V2.75H40V3.5ZM39.25 7.25V3.5H37.75V7.25H39.25ZM45.25 2.75H46.75V8H43V7.25H42.25V2.75H43.75V7.25H45.25V2.75ZM49 1.25H50.5V2.75H52.75V3.5H50.5V7.25H52.75V8H49.75V7.25H49V3.5H48.25V2.75H49V1.25ZM57.25 2H55.75V0.5H57.25V2ZM57.25 7.25H58.75V8H54.25V7.25H55.75V3.5H54.25V2.75H57.25V7.25ZM61 2.75H64V3.5H64.75V7.25H64V8H61V7.25H60.25V3.5H61V2.75ZM63.25 7.25V3.5H61.75V7.25H63.25ZM70 3.5H70.75V8H69.25V3.5H67.75V8H66.25V2.75H70V3.5ZM73 5H72.25V3.5H73V2.75H76.75V3.5H73.75V5H76V5.75H76.75V7.25H76V8H72.25V7.25H75.25V5.75H73V5Z"
          fill="black"/>
        <svg width="600" height="300" viewBox="0 0 200 100" fill="none" overflow="visible"
          xmlns="http://www.w3.org/2000/svg">
          <g id="contribution" transform="translate(*{contributionx}, 3.5)">
            *{contribution}
          </g>
        </svg>
      </g>
    </g>

    <g id="username-tag-wrap-*{id}">
      <g id="username-tag" transform="translate(-28.5, -39.5)" style="display:*{username-tag-display};">
        <rect x="3" width="77" height="9" fill="white"/>
        <rect x="1" y="0.600006" width="81" height="7.8" fill="white"/>
        <rect y="1.20001" width="83" height="6.6" fill="white"/>
      </g>
    </g>

    <g id="username-wrap-*{id}">
      <g id="username" transform="translate(*{usernamex}, -39)" style="display:*{username-display};">
        <svg width="600" height="300" viewBox="0 0 2400 1200" fill="none" overflow="visible"
          xmlns="http://www.w3.org/2000/svg">
          *{username}
        </svg>
      </g>
    </g>

    <g id="level-tag-wrap-*{id}">
      <g id="level-tag" transform="translate(-31.5, -31)" style="display:*{level-tag-display};">
        <rect x="3" width="77" height="9" fill="white"/>
        <rect x="1" y="0.600006" width="81" height="7.8" fill="white"/>
        <rect y="1.20001" width="83" height="6.6" fill="white"/>
      </g>
    </g>

    <g id="level-wrap-*{id}">
      <svg width="600" height="300" viewBox="0 0 200 100" fill="none" overflow="visible">
        <g id="level" transform="translate(*{levelx}, -9.8)">
          <g transform="translate(10, -0.05)">
            <path
              d="M0.21875 0.03125H0.65625V1.78125H1.53125V2H0.21875V0.03125ZM2.1875 1.5625H1.96875V0.46875H2.40625V1.5625H2.84375V0.46875H3.28125V1.5625H3.0625V1.78125H2.84375V2H2.40625V1.78125H2.1875V1.5625Z"
              fill="black"/>
          </g>
          *{level}
        </g>
      </svg>
    </g>

    <svg width="600" height="300" viewBox="0 0 200 100" fill="none" overflow="visible">
      <g id="quokka-*{id}-shadow" transform="translate(-0.5, 6)">
        <rect y="0.5" width="7" height="1" fill="#2B4447" fill-opacity="0.1"/>
        <rect x="0.538574" y="0.25" width="5.92308" height="0.25" fill="#2B4447"
          fill-opacity="0.1"/>
        <rect x="0.538574" y="1.5" width="5.92308" height="0.25" fill="#2B4447" fill-opacity="0.1"/>
        <rect x="1.0769" width="4.84615" height="0.25" fill="#2B4447" fill-opacity="0.1"/>
        <rect x="1.0769" y="1.75" width="4.84615" height="0.25" fill="#2B4447" fill-opacity="0.1"/>
      </g>
      <g id="quokka-*{id}-leg-left" transform="translate(0.5, 3)">
        <rect width="2" height="4" fill="#C7A684"/>
      </g>
      <g id="quokka-*{id}-leg-right" transform="translate(3.5, 3)">
        <rect width="2" height="4" fill="#C7A684"/>
      </g>
      <g id="quokka-*{id}-body" transform="translate(-0.5, 0)">
        <rect x="1" width="5" height="6" fill="#C7A684"/>
        <rect x="1" y="1" width="5" height="5" fill="#C7A684"/>
        <rect x="1" y="1" width="6" height="4" fill="#C7A684"/>
        <rect y="1" width="6" height="4" fill="#C7A684"/>
        <rect x="3" y="2" width="3" height="2" fill="#EBC49C"/>
        <rect x="4" y="3" width="2" height="2" fill="#EBC49C"/>
        <rect x="2" y="3" width="4" height="3" fill="#EBC49C"/>
        <rect y="3" width="1" height="2" fill="black" fill-opacity="0.1"/>
        <rect width="1" height="1" transform="matrix(1 0 0 -1 1 6)" fill="black"
          fill-opacity="0.1"/>
      </g>
      <g id="quokka-*{id}-head" transform="translate(-0.5, -6)">
        <rect y="3" width="7" height="3.5" fill="#C7A684"/>
        <rect x="1" y="3" width="5" height="4" fill="#C7A684"/>
        <rect x="1" y="1" width="5" height="3" fill="#C7A684"/>
        <rect width="2" height="2" fill="#C7A684"/>
        <rect x="5" width="2" height="2" fill="#C7A684"/>
        <rect x="5" y="3" width="1" height="1" fill="black"/>
        <rect x="2" y="3" width="1" height="1" fill="black"/>
        <rect width="1" height="0.5" transform="matrix(1 0 0 -1 1 5)" fill="#FBB3BE"/>
        <rect width="1" height="0.5" transform="matrix(1 0 0 -1 6 5)" fill="#FBB3BE"/>
        <rect x="3" y="6" width="2" height="0.5" fill="black"/>
        <rect width="0.5" height="0.5" transform="matrix(1 0 0 -1 5 6)" fill="black"/>
        <rect x="3" y="6" width="0.5" height="0.5" transform="rotate(-180 3 6)" fill="black"/>
        <rect x="4" y="4" width="1" height="1" fill="black" fill-opacity="0.3"/>
        <rect x="1" y="1" width="1" height="1" fill="#EBC49C"/>
        <rect x="5" y="1" width="1" height="1" fill="#EBC49C"/>
        <rect width="0.941163" height="0.470582" transform="matrix(1 0 0 -1 4 7.17651)"
          fill="#70BB51"/>
        <rect width="0.470581" height="0.705872" transform="matrix(1 0 0 -1 4.11768 7.29419)"
          fill="#70BB51"/>
        <rect width="0.470581" height="0.705872" transform="matrix(1 0 0 -1 4.23535 7.41174)"
          fill="#70BB51"/>
        <rect width="0.823518" height="0.705872" transform="matrix(1 0 0 -1 4.35303 7.52942)"
          fill="#70BB51"/>
        <rect width="0.352936" height="0.705872" transform="matrix(1 0 0 -1 4.94092 7.64709)"
          fill="#70BB51"/>
        <rect width="0.235291" height="0.705872" transform="matrix(1 0 0 -1 5.17627 7.76477)"
          fill="#70BB51"/>
        <rect width="0.352936" height="0.588227" transform="matrix(1 0 0 -1 5.17627 7.76477)"
          fill="#70BB51"/>
        <rect width="0.117645" height="0.705872" transform="matrix(1 0 0 -1 5.41162 7.88232)"
          fill="#70BB51"/>
        <rect width="0.470581" height="0.470582" transform="matrix(1 0 0 -1 5.41162 7.88232)"
          fill="#70BB51"/>
        <rect width="0.352936" height="0.352936" transform="matrix(1 0 0 -1 5.64697 7.52942)"
          fill="#70BB51"/>
        <rect width="0.352936" height="0.352936" transform="matrix(1 0 0 -1 5.5293 7.17651)"
          fill="#70BB51"/>
        <rect width="0.352936" height="0.470582" transform="matrix(1 0 0 -1 5.41162 7.05884)"
          fill="#70BB51"/>
        <rect width="0.352936" height="0.470582" transform="matrix(1 0 0 -1 5.29395 6.94116)"
          fill="#70BB51"/>
        <rect width="0.235291" height="0.470582" transform="matrix(1 0 0 -1 5.17627 6.82361)"
          fill="#70BB51"/>
        <rect width="0.588227" height="0.352936" transform="matrix(1 0 0 -1 4.82373 6.70593)"
          fill="#70BB51"/>
        <rect width="0.823518" height="0.117645" transform="matrix(1 0 0 -1 4.58838 6.47058)"
          fill="#70BB51"/>
        <rect width="0.117645" height="0.235291" transform="matrix(1 0 0 -1 5.5293 7.41174)"
          fill="#52882E"/>
        <rect width="0.117645" height="0.117645" transform="matrix(1 0 0 -1 5.41162 7.17651)"
          fill="#52882E"/>
        <rect width="0.117645" height="0.117645" transform="matrix(1 0 0 -1 5.29395 7.05884)"
          fill="#52882E"/>
        <rect width="0.117645" height="0.117645" transform="matrix(1 0 0 -1 5.17627 6.94116)"
          fill="#52882E"/>
        <rect width="0.235291" height="0.117645" transform="matrix(1 0 0 -1 4.94092 6.82361)"
          fill="#52882E"/>
        <rect width="0.352936" height="0.117645" transform="matrix(1 0 0 -1 4.58838 6.70593)"
          fill="#52882E"/>
        <rect width="0.235291" height="0.235291" transform="matrix(1 0 0 -1 4.58838 6.70593)"
          fill="#52882E"/>
        <rect width="0.352936" height="0.117645" transform="matrix(1 0 0 -1 4.4707 6.58826)"
          fill="#52882E"/>
        <rect width="0.235291" height="0.117645" transform="matrix(1 0 0 -1 4.23535 6.47058)"
          fill="#52882E"/>
        <rect width="0.117645" height="0.117645" transform="matrix(1 0 0 -1 4.11768 6.35303)"
          fill="#52882E"/>
        <rect width="0.235291" height="0.352936" transform="matrix(1 0 0 -1 5.64697 7.29419)"
          fill="#70BB51"/>
        <rect width="0.117645" height="1.41174" transform="matrix(1 0 0 -1 5.64697 8)"
          fill="#70BB51"/>
      </g>
    </svg>
  </g>
</svg>
