<svg xmlns="http://www.w3.org/2000/svg" fill="none" overflow="visible">
  <style>
    *{act}

    @keyframes rabbit-head-*{id}-move {
    0% {
    transform: translate(0, -1px);
    }
    50% {
    transform: translate(0, -2px);
    }
    100% {
    transform: translate(0, -1px);
    }
    }

    @keyframes rabbit-obj-*{id}-move {
    0% {
    transform: translate(0px, 0px);
    }
    33% {
    transform: translate(0px, -1.5px);
    }
    66% {
    transform: translate(0px, 1.5px),
    }
    100% {
    transform: translate(0px, 0px);
    }
    }

    #rabbit-head-*{id} {
    animation-name: rabbit-head-*{id}-move;
    animation-duration:1s;
    animation-iteration-count:infinite;
    animation-timing-function: ease-in-out;
    }

    #rabbit-obj-*{id} {
    animation-name: rabbit-obj-*{id}-move;
    animation-duration:2s;
    animation-iteration-count:infinite;
    animation-timing-function: ease-in-out;
    }
  </style>

  <g id="rabbit-*{id}" transform="translate(100, 100)">
    <g id="id"> *{id} </g>
    <g id="contributions-wrap-*{id}">
      <g id="contributions" transform="translate(-28.5, -51)"
        style="display:*{contribution-display};">
        <g id="contribution-tag" transform="translate(-3, -1)">
          <rect x="3" width="77" height="19" fill="white"/>
          <rect x="1" y="1.26669" width="81" height="16.4667" fill="white"/>
          <rect y="2.53333" width="83" height="13.9333" fill="white"/>
        </g>
        <path
          d="M1 2.75H4V3.5H4.75V4.25H3.25V3.5H1.75V7.25H3.25V6.5H4.75V7.25H4V8H1V7.25H0.25V3.5H1V2.75ZM7 2.75H10V3.5H10.75V7.25H10V8H7V7.25H6.25V3.5H7V2.75ZM9.25 7.25V3.5H7.75V7.25H9.25ZM16 3.5H16.75V8H15.25V3.5H13.75V8H12.25V2.75H16V3.5ZM19 1.25H20.5V2.75H22.75V3.5H20.5V7.25H22.75V8H19.75V7.25H19V3.5H18.25V2.75H19V1.25ZM24.25 2.75H25.75V4.25H26.5V5H25.75V8H24.25V2.75ZM28.75 2.75V4.25H26.5V3.5H27.25V2.75H28.75ZM33.25 2H31.75V0.5H33.25V2ZM33.25 7.25H34.75V8H30.25V7.25H31.75V3.5H30.25V2.75H33.25V7.25ZM40 3.5H40.75V7.25H40V8H36.25V1.25H37.75V2.75H40V3.5ZM39.25 7.25V3.5H37.75V7.25H39.25ZM45.25 2.75H46.75V8H43V7.25H42.25V2.75H43.75V7.25H45.25V2.75ZM49 1.25H50.5V2.75H52.75V3.5H50.5V7.25H52.75V8H49.75V7.25H49V3.5H48.25V2.75H49V1.25ZM57.25 2H55.75V0.5H57.25V2ZM57.25 7.25H58.75V8H54.25V7.25H55.75V3.5H54.25V2.75H57.25V7.25ZM61 2.75H64V3.5H64.75V7.25H64V8H61V7.25H60.25V3.5H61V2.75ZM63.25 7.25V3.5H61.75V7.25H63.25ZM70 3.5H70.75V8H69.25V3.5H67.75V8H66.25V2.75H70V3.5ZM73 5H72.25V3.5H73V2.75H76.75V3.5H73.75V5H76V5.75H76.75V7.25H76V8H72.25V7.25H75.25V5.75H73V5Z"
          fill="black"/>
        <svg width="600" height="300" viewBox="0 0 200 100" fill="none" overflow="visible"
          xmlns="http://www.w3.org/2000/svg">
          <g id="contribution" transform="translate(*{contributionx}, 3.5)">
            *{contribution}
          </g>
        </svg>
      </g>
    </g>

    <g id="username-tag-wrap-*{id}">
      <g id="username-tag" transform="translate(-28.5, -39.5)" style="display:*{username-tag-display};">
        <rect x="3" width="77" height="9" fill="white"/>
        <rect x="1" y="0.600006" width="81" height="7.8" fill="white"/>
        <rect y="1.20001" width="83" height="6.6" fill="white"/>
      </g>
    </g>

    <g id="username-wrap-*{id}">
      <g id="username" transform="translate(*{usernamex}, -39)" style="display:*{username-display};">
        <svg width="600" height="300" viewBox="0 0 2400 1200" fill="none" overflow="visible"
          xmlns="http://www.w3.org/2000/svg">
          *{username}
        </svg>
      </g>
    </g>

    <g id="level-tag-wrap-*{id}">
      <g id="level-tag" transform="translate(-31.5, -31)" style="display:*{level-tag-display};">
        <rect x="3" width="77" height="9" fill="white"/>
        <rect x="1" y="0.600006" width="81" height="7.8" fill="white"/>
        <rect y="1.20001" width="83" height="6.6" fill="white"/>
      </g>
    </g>

    <g id="level-wrap-*{id}" style="display:*{level-display};">
      <svg width="600" height="300" viewBox="0 0 200 100" fill="none" overflow="visible">
        <g id="level" transform="translate(*{levelx}, -9.8)">
          <g transform="translate(10, -0.05)">
            <path
              d="M0.21875 0.03125H0.65625V1.78125H1.53125V2H0.21875V0.03125ZM2.1875 1.5625H1.96875V0.46875H2.40625V1.5625H2.84375V0.46875H3.28125V1.5625H3.0625V1.78125H2.84375V2H2.40625V1.78125H2.1875V1.5625Z"
              fill="black"/>
          </g>
          *{level}
        </g>
      </svg>
    </g>

    <svg width="600" height="300" viewBox="0 0 200 100" fill="none" overflow="visible">
      <g id = "rabbit-*{id}-watter-top" transform="translate(-5, 3)">
        <rect x="-1.52588e-05" y="1.60242" width="15.0094" height="2.25009" fill="#5FC4FF" fill-opacity="0.7"/>
        <rect x="1.25077" y="0.852417" width="12.5078" height="0.750029" fill="#5FC4FF" fill-opacity="0.7"/>
        <rect x="2.50153" y="0.102295" width="10.0063" height="0.750029" fill="#5FC4FF" fill-opacity="0.7"/>
        <rect x="13.1255" y="2.91492" width="1.87507" height="0.878425" fill="#0059FF" fill-opacity="0.1"/>
        <rect x="0.937536" y="1.97742" width="1.87507" height="0.878425" fill="#0059FF" fill-opacity="0.1"/>
        <rect x="3.75015" y="1.03992" width="1.87507" height="0.878425" fill="#0059FF" fill-opacity="0.1"/>
        <rect x="4.68768" y="0.102295" width="2.81261" height="0.937537" fill="#0059FF" fill-opacity="0.1"/>
      </g>
      <g id="rabbit-obj-*{id}">
        <g id="rabbit-body-*{id}" transform="translate(-4, 5)">
          <rect x="4" width="6" height="4" fill="#FFF2F4"/>
          <rect x="2" y="1" width="8" height="3" fill="#FFF2F4"/>
          <rect x="1" y="2" width="8" height="2" fill="#FFF2F4"/>
          <rect x="2" y="3" width="8" height="2" fill="#FFF2F4"/>
          <rect y="2" width="8" height="1" fill="#FFF2F4"/>
          <rect x="1" y="3" width="1" height="1" fill="#FF6666" fill-opacity="0.1"/>
          <rect x="2" y="4" width="2" height="1" fill="#FF6666" fill-opacity="0.1"/>
          <rect x="6" y="3" width="1" height="2" fill="#FF6666" fill-opacity="0.1"/>
          <rect x="8" y="3" width="1" height="2" fill="#FF6666" fill-opacity="0.1"/>
        </g>
        <g id="rabbit-head-*{id}" transform="translate(0, -10)">
          <rect x="1" y="3" width="5" height="4" fill="#FFF2F4"/>
          <rect y="4" width="7" height="3" fill="#FFF2F4"/>
          <rect x="1" y="4" width="5" height="4" fill="#FFF2F4"/>
          <rect y="2" width="3" height="5" fill="#FFF2F4"/>
          <rect x="4" y="2" width="3" height="5" fill="#FFF2F4"/>
          <rect width="2" height="3" fill="#FFF2F4"/>
          <rect x="5" width="2" height="3" fill="#FFF2F4"/>
          <rect x="1" y="1" width="1" height="2" fill="#FBB3BE"/>
          <rect x="5" y="1" width="1" height="2" fill="#FBB3BE"/>
          <rect x="2" y="4" width="1" height="1" fill="black"/>
          <rect x="5" y="4" width="1" height="1" fill="black"/>
          <rect width="2" height="1" transform="matrix(-1 0 0 1 2 5)" fill="#FF778F"/>
          <rect width="2" height="1" transform="matrix(-1 0 0 1 8 5)" fill="#FF778F"/>
          <rect x="3" y="6" width="2" height="1" fill="black"/>
          <rect y="6" width="1" height="1" fill="#FF6666" fill-opacity="0.1"/>
          <rect x="1" y="7" width="1" height="1" fill="#FF6666" fill-opacity="0.1"/>
        </g>
      </g>
      <g id = "rabbit-*{id}-watter-bottom" transform="translate(-5, 6)">
        <rect width="15.0094" height="3.37513" transform="matrix(1 0 0 -1 1.52588e-05 4.22754)" fill="#5FC4FF" fill-opacity="0.7"/>
        <rect width="12.5078" height="1.12504" transform="matrix(1 0 0 -1 1.25077 5.35266)" fill="#5FC4FF" fill-opacity="0.7"/>
        <rect width="10.0063" height="1.12504" transform="matrix(1 0 0 -1 2.50151 6.47766)" fill="#5FC4FF" fill-opacity="0.7"/>
        <rect x="9.19688" y="4.71179" width="2.81261" height="0.878425" fill="#0059FF" fill-opacity="0.1"/>
        <rect x="3.75015" y="5.54016" width="1.87507" height="0.878425" fill="#0059FF" fill-opacity="0.1"/>
        <rect y="2.72754" width="1.87507" height="0.878425" fill="#0059FF" fill-opacity="0.1"/>
        <rect x="4.50919" y="4.71179" width="1.87507" height="0.878425" fill="#0059FF" fill-opacity="0.1"/>
        <rect x="12.188" y="2.72754" width="1.87507" height="0.878425" fill="#0059FF" fill-opacity="0.1"/>
        <rect x="8.25934" y="5.59021" width="2.81261" height="0.878425" fill="#0059FF" fill-opacity="0.1"/>
      </g>
      <g id = "rabbit-*{id}-tube" transform="translate(-5, 0)">
        <rect x="1.93427" y="4.7196" width="1.06729" height="7.47105" transform="rotate(-38.8527 1.93427 4.7196)" fill="#F8F8F8"/>
        <rect x="1.77263" y="6.22034" width="3.20188" height="1.06729" transform="rotate(-38.8527 1.77263 6.22034)" fill="#F8F8F8"/>
        <rect x="1.611" y="7.72107" width="3.20188" height="3.20188" transform="rotate(-38.8527 1.611 7.72107)" fill="#F8F8F8"/>
        <rect x="1.77263" y="6.22034" width="2.13459" height="4.26917" transform="rotate(-38.8527 1.77263 6.22034)" fill="#F8F8F8"/>
        <rect x="3.78126" y="8.71387" width="3.20188" height="2.13459" transform="rotate(-38.8527 3.78126 8.71387)" fill="#F8F8F8"/>
        <rect x="5.2819" y="8.87549" width="3.20188" height="2.13459" transform="rotate(-38.8527 5.2819 8.87549)" fill="#F8F8F8"/>
        <rect x="6.78261" y="9.03711" width="4.26917" height="2.13459" transform="rotate(-38.8527 6.78261 9.03711)" fill="#F8F8F8"/>
        <rect x="9.11451" y="8.52917" width="3.20188" height="2.13459" transform="rotate(-38.8527 9.11451 8.52917)" fill="#F8F8F8"/>
        <rect x="7.45216" y="9.86829" width="6.40376" height="1.06729" transform="rotate(-38.8527 7.45216 9.86829)" fill="#F8F8F8"/>
        <rect x="1.93427" y="4.7196" width="1.06729" height="1.06729" transform="rotate(-38.8527 1.93427 4.7196)" fill="#FF99E7"/>
        <rect x="2.95008" y="9.38342" width="4.26917" height="1.06729" transform="rotate(-38.8527 2.95008 9.38342)" fill="#FF99E7"/>
        <rect x="1.611" y="7.72107" width="3.20188" height="1.06729" transform="rotate(-38.8527 1.611 7.72107)" fill="#FF99E7"/>
        <rect x="5.95144" y="9.70654" width="5.33647" height="1.06729" transform="rotate(-38.8527 5.95144 9.70654)" fill="#FF99E7"/>
        <rect x="9.78405" y="9.36035" width="3.20188" height="1.06729" transform="rotate(-38.8527 9.78405 9.36035)" fill="#FF99E7"/>
        <rect x="3.43499" y="4.88135" width="1.06729" height="1.06729" transform="rotate(-38.8527 3.43499 4.88135)" fill="black" fill-opacity="0.1"/>
        <rect x="3.27335" y="6.38196" width="1.06729" height="1.06729" transform="rotate(-38.8527 3.27335 6.38196)" fill="black" fill-opacity="0.1"/>
        <rect x="3.9429" y="7.21313" width="1.06729" height="1.06729" transform="rotate(-38.8527 3.9429 7.21313)" fill="black" fill-opacity="0.1"/>
        <rect x="5.44353" y="7.37476" width="1.06729" height="1.06729" transform="rotate(-38.8527 5.44353 7.37476)" fill="black" fill-opacity="0.1"/>
        <rect x="6.94425" y="7.53638" width="1.06729" height="1.06729" transform="rotate(-38.8527 6.94425 7.53638)" fill="black" fill-opacity="0.1"/>
        <rect x="8.44497" y="7.698" width="2.13459" height="1.06729" transform="rotate(-38.8527 8.44497 7.698)" fill="black" fill-opacity="0.1"/>
        <rect x="10.7769" y="7.19019" width="2.13459" height="1.06729" transform="rotate(-38.8527 10.7769 7.19019)" fill="black" fill-opacity="0.1"/>
      </g>
    </svg>
  </g>
</svg>
