<svg xmlns="http://www.w3.org/2000/svg" fill="none" overflow="visible">
  <style>
    *{act}

    @keyframes rabbit-head-*{id}-move {
    0% {
    transform: translate(0, -1px);
    }
    50% {
    transform: translate(0, -2px);
    }
    100% {
    transform: translate(0, -1px);
    }
    }

    @keyframes rabbit-obj-*{id}-move {
    0% {
    transform: translate(0, 0px);
    }
    15% {
    transform: translate(0, -5px);
    }
    30% {
    transform: translate(0, 0px);
    }
    100% {
    transform: translate(0, 0px);
    }
    }

    @keyframes rabbit-*{id}-shadow-move {
    0% {
    transform: translate(-2px, 9px) scaleX(1);
    }
    15% {
    transform: translate(-2px, 9px) scaleX(1.2);
    }
    30% {
    transform: translate(-2px, 9px) scaleX(1);
    }
    100% {
    transform: translate(-2px, 9px) scaleX(1);
    }
    }

    #rabbit-head-*{id} {
    animation-name: rabbit-head-*{id}-move;
    animation-duration:1s;
    animation-iteration-count:infinite;
    animation-timing-function: ease-in-out;
    }

    #rabbit-shadow-*{id} {
    animation-name: rabbit-*{id}-shadow-move;
    animation-duration:2s;
    animation-iteration-count:infinite;
    animation-timing-function: ease-in-out;
    }

    #rabbit-obj-*{id} {
    animation-name: rabbit-obj-*{id}-move;
    animation-duration:2s;
    animation-iteration-count:infinite;
    animation-timing-function: ease-in-out;
    }
  </style>

  <g id="rabbit-*{id}" transform="translate(100, 100)">
    <g id="contributions-wrap-*{id}">
      <g id="contributions" transform="translate(-28.5, -51)"
        style="display:*{contribution-display};">
        <g id="contribution-tag" transform="translate(-3, -1)">
          <rect x="3" width="77" height="19" fill="white"/>
          <rect x="1" y="1.26669" width="81" height="16.4667" fill="white"/>
          <rect y="2.53333" width="83" height="13.9333" fill="white"/>
        </g>
        <path
          d="M1 2.75H4V3.5H4.75V4.25H3.25V3.5H1.75V7.25H3.25V6.5H4.75V7.25H4V8H1V7.25H0.25V3.5H1V2.75ZM7 2.75H10V3.5H10.75V7.25H10V8H7V7.25H6.25V3.5H7V2.75ZM9.25 7.25V3.5H7.75V7.25H9.25ZM16 3.5H16.75V8H15.25V3.5H13.75V8H12.25V2.75H16V3.5ZM19 1.25H20.5V2.75H22.75V3.5H20.5V7.25H22.75V8H19.75V7.25H19V3.5H18.25V2.75H19V1.25ZM24.25 2.75H25.75V4.25H26.5V5H25.75V8H24.25V2.75ZM28.75 2.75V4.25H26.5V3.5H27.25V2.75H28.75ZM33.25 2H31.75V0.5H33.25V2ZM33.25 7.25H34.75V8H30.25V7.25H31.75V3.5H30.25V2.75H33.25V7.25ZM40 3.5H40.75V7.25H40V8H36.25V1.25H37.75V2.75H40V3.5ZM39.25 7.25V3.5H37.75V7.25H39.25ZM45.25 2.75H46.75V8H43V7.25H42.25V2.75H43.75V7.25H45.25V2.75ZM49 1.25H50.5V2.75H52.75V3.5H50.5V7.25H52.75V8H49.75V7.25H49V3.5H48.25V2.75H49V1.25ZM57.25 2H55.75V0.5H57.25V2ZM57.25 7.25H58.75V8H54.25V7.25H55.75V3.5H54.25V2.75H57.25V7.25ZM61 2.75H64V3.5H64.75V7.25H64V8H61V7.25H60.25V3.5H61V2.75ZM63.25 7.25V3.5H61.75V7.25H63.25ZM70 3.5H70.75V8H69.25V3.5H67.75V8H66.25V2.75H70V3.5ZM73 5H72.25V3.5H73V2.75H76.75V3.5H73.75V5H76V5.75H76.75V7.25H76V8H72.25V7.25H75.25V5.75H73V5Z"
          fill="black"/>
        <svg width="600" height="300" viewBox="0 0 200 100" fill="none" overflow="visible"
          xmlns="http://www.w3.org/2000/svg">
          <g id="contribution" transform="translate(*{contributionx}, 3.5)">
            *{contribution}
          </g>
        </svg>
      </g>
    </g>

    <g id="level-tag-wrap-*{id}">
      <g id="level-tag" transform="translate(-31.5, -31)" style="display:*{level-tag-display};">
        <rect x="3" width="77" height="9" fill="white"/>
        <rect x="1" y="0.600006" width="81" height="7.8" fill="white"/>
        <rect y="1.20001" width="83" height="6.6" fill="white"/>
      </g>
    </g>

    <g id="level-wrap-*{id}">
      <svg width="600" height="300" viewBox="0 0 200 100" fill="none" overflow="visible">
        <g id="level" transform="translate(*{levelx}, -9.8)">
          <g transform="translate(10, -0.05)">
            <path
              d="M0.21875 0.03125H0.65625V1.78125H1.53125V2H0.21875V0.03125ZM2.1875 1.5625H1.96875V0.46875H2.40625V1.5625H2.84375V0.46875H3.28125V1.5625H3.0625V1.78125H2.84375V2H2.40625V1.78125H2.1875V1.5625Z"
              fill="black"/>
          </g>
          *{level}
        </g>
      </svg>
    </g>

    <svg width="600" height="300" viewBox="0 0 200 100" fill="none" overflow="visible">
      <g id="rabbit-shadow-*{id}" transform="translate(-2, 9)">
        <rect width="8" height="1" transform="matrix(-1 0 0 1 8 0.5)" fill="#2B4447"
          fill-opacity="0.1"/>
        <rect width="6.76923" height="0.25" transform="matrix(-1 0 0 1 7.38452 0.25)" fill="#2B4447"
          fill-opacity="0.1"/>
        <rect width="6.76923" height="0.25" transform="matrix(-1 0 0 1 7.38452 1.5)" fill="#2B4447"
          fill-opacity="0.1"/>
        <rect width="5.53846" height="0.25" transform="matrix(-1 0 0 1 6.76929 0)" fill="#2B4447"
          fill-opacity="0.1"/>
        <rect width="5.53846" height="0.25" transform="matrix(-1 0 0 1 6.76929 1.75)" fill="#2B4447"
          fill-opacity="0.1"/>
      </g>
      <g id="rabbit-obj-*{id}">
        <g id="rabbit-body-*{id}" transform="translate(-4, 5)">
          <rect x="4" width="6" height="4" fill="#FBB3BE"/>
          <rect x="2" y="1" width="8" height="3" fill="#FBB3BE"/>
          <rect x="1" y="2" width="8" height="2" fill="#FBB3BE"/>
          <rect x="2" y="3" width="8" height="2" fill="#FBB3BE"/>
          <rect y="2" width="8" height="1" fill="#FBB3BE"/>
          <rect x="1" y="3" width="1" height="1" fill="#494949" fill-opacity="0.1"/>
          <rect x="2" y="4" width="2" height="1" fill="#494949" fill-opacity="0.1"/>
          <rect x="6" y="3" width="1" height="2" fill="#494949" fill-opacity="0.1"/>
          <rect x="8" y="3" width="1" height="2" fill="#494949" fill-opacity="0.1"/>
        </g>
        <g id="rabbit-head-*{id}" transform="translate(0, -10)">
          <rect x="1" y="3" width="5" height="4" fill="#FBB3BE"/>
          <rect y="4" width="7" height="3" fill="#FBB3BE"/>
          <rect x="1" y="4" width="5" height="4" fill="#FBB3BE"/>
          <rect y="2" width="3" height="5" fill="#FBB3BE"/>
          <rect x="4" y="2" width="3" height="5" fill="#FBB3BE"/>
          <rect width="2" height="3" fill="#FBB3BE"/>
          <rect x="5" width="2" height="3" fill="#FBB3BE"/>
          <rect x="1" y="1" width="1" height="2" fill="#FFD0D7"/>
          <rect x="5" y="1" width="1" height="2" fill="#FFD0D7"/>
          <rect x="2" y="4" width="1" height="1" fill="black"/>
          <rect x="5" y="4" width="1" height="1" fill="black"/>
          <rect width="2" height="1" transform="matrix(-1 0 0 1 2 5)" fill="#FF758E"/>
          <rect width="2" height="1" transform="matrix(-1 0 0 1 8 5)" fill="#FF758E"/>
          <rect x="3" y="6" width="2" height="1" fill="black"/>
          <rect y="6" width="1" height="1" fill="#494949" fill-opacity="0.1"/>
          <rect x="1" y="7" width="1" height="1" fill="#494949" fill-opacity="0.1"/>
        </g>
      </g>
      <g id="notebook-*{id}" transform="translate(2, 4)">
        <rect width="4.66667" height="3.33333" transform="matrix(-1 0 0 1 6.66699 0)" fill="#E4E4E4"/>
        <rect width="6" height="3.33333" transform="matrix(-1 0 0 1 7.3335 0.666626)" fill="#E4E4E4"/>
        <rect width="6" height="1.33333" transform="matrix(-1 0 0 1 6.66699 2.66663)" fill="#E4E4E4"/>
        <rect width="6" height="0.666667" transform="matrix(-1 0 0 1 6 3.33337)" fill="#E4E4E4"/>
        <rect width="0.666667" height="1.33333" transform="matrix(-1 0 0 1 1.3335 2.66663)" fill="black" fill-opacity="0.1"/>
        <rect width="0.666667" height="0.666667" transform="matrix(-1 0 0 1 0.666992 3.33337)" fill="black" fill-opacity="0.1"/>
        <rect width="6" height="0.666667" transform="matrix(-1 0 0 1 7.3335 3.33337)" fill="black" fill-opacity="0.1"/>
        <rect x="5.3335" y="2.33337" width="0.666667" height="0.333333" transform="rotate(180 5.3335 2.33337)" fill="#242427"/>
        <rect width="0.666667" height="0.333333" transform="matrix(-1 0 0 1 5 1.66675)" fill="#242427"/>
        <rect width="0.333333" height="1.33333" transform="matrix(-1 0 0 1 5.3335 1.33337)" fill="#242427"/>
        <rect width="1" height="0.333333" transform="matrix(-1 0 0 1 5.3335 2.33337)" fill="#242427"/>
      </g>
    </svg>
  </g>
</svg>
