<svg xmlns="http://www.w3.org/2000/svg" viewBox="-15 -25 45 45">
  <!--
    Capybara Carrot — mini sleep (peeking from edge, asleep)
    Head + carrot + partial body, closed eyes + Zzz
  -->
  <g>
    <g transform="translate(-3.2, 6.1)">
      <path d="M9.98971 0.876343H3.32993V4.59799H9.98971V0.876343Z" fill="#C17B46"/>
      <path d="M15.0825 2.83508H0V10.6701H15.0825V2.83508Z" fill="#C17B46"/>
      <path d="M15.0824 6.75256H7.24741V8.71132H15.0824V6.75256Z" fill="#A56235"/>
      <path d="M13.1237 8.5155H9.20615V10.6701H13.1237V8.5155Z" fill="#A56235"/>
      <path d="M7.24743 4.79382H5.28867V6.75258H7.24743V4.79382Z" fill="#A56235"/>
    </g>

    <g transform="translate(5.2, -3.8)">
      <path d="M4.12371 0H2.16495V2.15464H4.12371V0Z" fill="#4AFF79"/>
      <path d="M6.08243 1.95874H0.206146V6.07214H6.08243V1.95874Z" fill="#FF8948"/>
    </g>

    <g transform="translate(0, 0)">
      <g>
        <path d="M14.0412 0H11.299V2.54639H14.0412V0Z" fill="#8E654A"/>
        <path d="M16 1.95886H2.28867V9.79391H16V1.95886Z" fill="#C17B46"/>
        <path d="M16 9.01038H4.24741V11.7526H16V9.01038Z" fill="#C17B46"/>
        <path d="M16 7.83508H8.16495V11.7526H16V7.83508Z" fill="#7C4B32"/>
        <path d="M16 5.87634H10.1237V8.22686H16V5.87634Z" fill="#7C4B32"/>
        <path d="M4.24745 0H0.329926V3.91752H4.24745V0Z" fill="#8E654A"/>
        <!-- Closed eyes -->
        <rect x="4.2" y="5.0" width="3.4" height="0.6" fill="black"/>
      </g>
    </g>
  </g>

  <!-- Zzz injected via shared accessory (acc-zzz.svg) -->
</svg>
