<svg xmlns="http://www.w3.org/2000/svg" viewBox="-15 -25 45 45">
  <!--
    Dessert Fox — thinking state
    Base: idle-follow.svg (standing)
    Changes: head rotates 15deg (more tilt), thought bubble upper-right with 3 loading dots
    Bubble prop: clawd-working-thinking.svg 말풍선 패턴 차용
    Keyframe prefix: dessert-fox-*{id}-think-*
  -->
  <style>
    @keyframes dessert-fox-*{id}-think-leg-left {
      0%   { transform: translate(5px, 5px); }
      50%  { transform: translate(5px, 5px) rotate(10deg); }
      100% { transform: translate(5px, 5px); }
    }
    @keyframes dessert-fox-*{id}-think-leg-right {
      0%   { transform: translate(8px, 5px); }
      50%  { transform: translate(8px, 5px) rotate(-10deg); }
      100% { transform: translate(8px, 5px); }
    }
    @keyframes dessert-fox-*{id}-think-head {
      0%   { transform: translate(0px, -5px) rotate(0deg); }
      50%  { transform: translate(2px, -6px) rotate(15deg); }
      100% { transform: translate(0px, -5px) rotate(0deg); }
    }
    @keyframes dessert-fox-*{id}-think-obj {
      0%   { transform: translate(0, 0); }
      15%  { transform: translate(0, -2.5px); }
      30%  { transform: translate(0, 0); }
      100% { transform: translate(0, 0); }
    }
    @keyframes dessert-fox-*{id}-think-shadow {
      0%   { transform: translate(3px, 7px) scaleX(1); }
      15%  { transform: translate(3px, 7px) scaleX(1.2); }
      30%  { transform: translate(3px, 7px) scaleX(1); }
      100% { transform: translate(3px, 7px) scaleX(1); }
    }
    @keyframes dessert-fox-*{id}-think-bubble {
      0%   { transform: translate(14px, -12px); }
      50%  { transform: translate(14px, -12.3px); }
      100% { transform: translate(14px, -12px); }
    }
    @keyframes dessert-fox-*{id}-think-dot-1 {
      0%, 20%   { opacity: 0; }
      21%, 100% { opacity: 1; }
    }
    @keyframes dessert-fox-*{id}-think-dot-2 {
      0%, 40%   { opacity: 0; }
      41%, 100% { opacity: 1; }
    }
    @keyframes dessert-fox-*{id}-think-dot-3 {
      0%, 60%   { opacity: 0; }
      61%, 100% { opacity: 1; }
    }

    #dessert-fox-*{id}-think-shadow {
      animation: dessert-fox-*{id}-think-shadow 2s ease-in-out infinite;
    }
    #dessert-fox-*{id}-think-obj {
      animation: dessert-fox-*{id}-think-obj 2s ease-in-out infinite;
    }
    #dessert-fox-*{id}-think-leg-left {
      animation: dessert-fox-*{id}-think-leg-left 1s ease-in-out infinite;
    }
    #dessert-fox-*{id}-think-leg-right {
      animation: dessert-fox-*{id}-think-leg-right 1s ease-in-out infinite;
    }
    #dessert-fox-*{id}-think-head {
      animation: dessert-fox-*{id}-think-head 1.5s ease-in-out infinite;
    }
    #dessert-fox-*{id}-think-bubble {
      animation: dessert-fox-*{id}-think-bubble 4s ease-in-out infinite;
    }
    #dessert-fox-*{id}-think-d1 {
      opacity: 0;
      animation: dessert-fox-*{id}-think-dot-1 2s ease-in-out infinite;
    }
    #dessert-fox-*{id}-think-d2 {
      opacity: 0;
      animation: dessert-fox-*{id}-think-dot-2 2s ease-in-out infinite;
    }
    #dessert-fox-*{id}-think-d3 {
      opacity: 0;
      animation: dessert-fox-*{id}-think-dot-3 2s ease-in-out infinite;
    }
  </style>

  <!-- Shadow -->
  <g id="dessert-fox-*{id}-think-shadow" transform="translate(3, 7)">
    <rect width="8" height="1" transform="matrix(-1 0 0 1 8 0.5)" fill="#2B4447" fill-opacity="0.1"/>
    <rect width="6.76923" height="0.25" transform="matrix(-1 0 0 1 7.38452 0.25)" fill="#2B4447" fill-opacity="0.1"/>
    <rect width="6.76923" height="0.25" transform="matrix(-1 0 0 1 7.38452 1.5)" fill="#2B4447" fill-opacity="0.1"/>
    <rect width="5.53846" height="0.25" transform="matrix(-1 0 0 1 6.76929 0)" fill="#2B4447" fill-opacity="0.1"/>
    <rect width="5.53846" height="0.25" transform="matrix(-1 0 0 1 6.76929 1.75)" fill="#2B4447" fill-opacity="0.1"/>
  </g>

  <!-- obj: legs + body + head (bouncing group) -->
  <g id="dessert-fox-*{id}-think-obj">
    <!-- Legs -->
    <g id="dessert-fox-*{id}-think-leg-left" transform="translate(5, 5)">
      <rect width="2" height="3" fill="#DDD7B5"/>
    </g>
    <g id="dessert-fox-*{id}-think-leg-right" transform="translate(8, 5)">
      <rect width="2" height="3" fill="#DDD7B5"/>
    </g>

    <!-- Body -->
    <g transform="translate(-2, 2)">
      <rect x="2" y="2" width="3" height="1" fill="#F5F5F7"/>
      <rect x="3" y="3" width="3" height="1" fill="#F5F5F7"/>
      <rect y="3" width="2" height="1" fill="#F5F5F7"/>
      <rect x="3" y="2" width="8" height="1" fill="#DDD7B5"/>
      <rect x="7" width="6" height="4" fill="#DDD7B5"/>
      <rect x="7" y="2" width="6" height="2" fill="#DDD7B5"/>
      <rect x="4" y="2" width="8" height="2" fill="#DDD7B5"/>
      <rect x="6" y="1" width="7" height="3" fill="#DDD7B5"/>
      <rect x="6" y="3" width="7" height="2" fill="#DDD7B5"/>
      <rect x="9" y="2" width="3" height="3" fill="#F5F5F7"/>
      <rect x="8" y="3" width="3" height="2" fill="#F5F5F7"/>
      <rect x="7" y="4" width="3" height="1" fill="#F5F5F7"/>
      <rect x="2" y="1" width="2" height="1" fill="#DDD7B5"/>
      <rect x="1" y="2" width="1" height="1" fill="#DDD7B5"/>
      <rect y="3" width="1" height="1" fill="#DDD7B5"/>
      <rect x="4" y="3" width="2" height="1" fill="black" fill-opacity="0.1"/>
      <rect x="6" y="4" width="2" height="1" fill="black" fill-opacity="0.1"/>
      <rect x="3" y="2" width="1" height="1" fill="black" fill-opacity="0.1"/>
    </g>

    <!-- Head (15deg tilt for "thinking" feel) -->
    <g id="dessert-fox-*{id}-think-head" transform="translate(0, -5)">
      <rect x="7" y="2" width="4" height="5" fill="#DDD7B5"/>
      <rect x="9" y="5" width="2" height="2" fill="#F5F5F7"/>
      <rect x="6" y="3" width="6" height="4" fill="#DDD7B5"/>
      <rect x="8" y="6" width="4" height="1" fill="#F5F5F7"/>
      <rect x="8" y="6" width="3" height="2" fill="#F5F5F7"/>
      <rect x="6" y="3" width="6" height="1" fill="#DDD7B5"/>
      <rect x="3" y="4" width="12" height="1" fill="#DDD7B5"/>
      <rect x="5" y="3" width="8" height="3" fill="#DDD7B5"/>
      <rect x="7" y="7" width="4" height="1" fill="#DDD7B5"/>
      <!-- Left ear -->
      <rect x="1" y="2" width="4" height="1" fill="#DDD7B5"/>
      <rect y="1" width="4" height="1" fill="#DDD7B5"/>
      <rect x="1" width="2" height="3" fill="#DDD7B5"/>
      <rect x="1" y="1" width="2" height="1" fill="#FBB3BE"/>
      <rect x="2" y="1" width="1" height="2" fill="#FBB3BE"/>
      <rect x="2" y="2" width="2" height="2" fill="#FBB3BE"/>
      <rect x="3" y="3" width="2" height="2" fill="#FBB3BE"/>
      <rect x="3" y="4" width="3" height="1" fill="#FBB3BE"/>
      <!-- Right ear -->
      <rect x="13" y="2" width="4" height="1" fill="#DDD7B5"/>
      <rect x="14" y="1" width="4" height="1" fill="#DDD7B5"/>
      <rect x="15" width="2" height="3" fill="#DDD7B5"/>
      <rect x="15" y="1" width="2" height="1" fill="#FBB3BE"/>
      <rect x="15" y="1" width="1" height="2" fill="#FBB3BE"/>
      <rect x="14" y="2" width="2" height="2" fill="#FBB3BE"/>
      <rect x="13" y="3" width="2" height="2" fill="#FBB3BE"/>
      <rect x="12" y="4" width="3" height="1" fill="#FBB3BE"/>
      <!-- Nose -->
      <rect x="10" y="6" width="1" height="1" fill="black"/>
      <!-- Muzzle highlight -->
      <rect x="7" y="7" width="4" height="1" fill="#F5F5F7"/>
      <rect x="9" y="5" width="3" height="1" fill="#F5F5F7"/>
      <!-- Shadow under muzzle -->
      <rect x="7" y="7" width="2" height="1" fill="black" fill-opacity="0.1"/>
      <rect x="6" y="6" width="1" height="1" fill="black" fill-opacity="0.1"/>
      <!-- Eyes (drawn last for highest z) -->
      <rect x="8" y="4" width="1" height="2" fill="black"/>
      <rect x="11" y="4" width="1" height="2" fill="black"/>
    </g>
  </g>

  <!-- Thought bubble (upper-right, outside obj so it floats independently) -->
  <g id="dessert-fox-*{id}-think-bubble" transform="translate(14, -12)">
    <!-- White soft-rounded bubble body -->
    <g fill="white" fill-opacity="0.92">
      <rect x="1" y="0" width="7" height="6"/>
      <rect x="0" y="1" width="9" height="4"/>
      <!-- Tail pointing down-left toward fox head -->
      <rect x="1" y="6" width="3" height="1"/>
      <rect x="0" y="7" width="1" height="1"/>
    </g>
    <!-- Loading dots (blue, sequential) -->
    <rect id="dessert-fox-*{id}-think-d1" x="1" y="2.5" width="1.5" height="1.5" fill="#0082FC"/>
    <rect id="dessert-fox-*{id}-think-d2" x="3.75" y="2.5" width="1.5" height="1.5" fill="#0082FC"/>
    <rect id="dessert-fox-*{id}-think-d3" x="6.5" y="2.5" width="1.5" height="1.5" fill="#0082FC"/>
  </g>
</svg>
