<svg xmlns="http://www.w3.org/2000/svg" fill="none" overflow="visible"><style>
  @keyframes bbibbi-14-body-move {
  0% {
  transform: translate(0px, 0px);
  }
  50% {
  transform: translate(0.4px, 0px);
  }
  100% {
  transform: translate(0px, 0px);
  }
  }

  @keyframes bbibbi-14-leg-move-1 {
  0% {
  transform: translate(5px, 15px);
  }
  50% {
  transform: translate(5px, 14px) rotate(10deg);
  }
  100% {
  transform: translate(5px, 15px);
  }
  }

  @keyframes bbibbi-14-leg-move-2 {
  0% {
  transform: translate(10px, 15px);
  }
  50% {
  transform: translate(10px, 15px) rotate(-10deg);
  }
  100% {
  transform: translate(10px, 15px);
  }
  }

  #bbibbi-14-body {
  animation-name:bbibbi-14-body-move;
  animation-duration:1s;
  animation-iteration-count:infinite;
  animation-timing-function: ease-in-out;
  }

  #bbibbi-14-leg-1 {
  animation-name:bbibbi-14-leg-move-1;
  animation-duration:1s;
  animation-iteration-count:infinite;
  animation-timing-function: ease-in-out;
  }

  #bbibbi-14-leg-2 {
  animation-name:bbibbi-14-leg-move-2;
  animation-duration:1s;
  animation-iteration-count:infinite;
  animation-timing-function: ease-in-out;
  }
</style>
  <g id="bbibbi-14" transform="translate(7, 31)">
    <svg width="600" height="300" viewBox="0 0 200 100" fill="none" overflow="visible">
      <g id="bbibbi-14-shadow" transform="translate(1, 19)">
        <rect y="0.5" width="18" height="1" fill="#2B4447" fill-opacity="0.1"/>
        <rect x="1.38461" y="0.25" width="15.2308" height="0.25" fill="#2B4447" fill-opacity="0.1"/>
        <rect x="1.38461" y="1.5" width="15.2308" height="0.25" fill="#2B4447" fill-opacity="0.1"/>
        <rect x="2.76923" width="12.4615" height="0.25" fill="#2B4447" fill-opacity="0.1"/>
        <rect x="2.76923" y="1.75" width="12.4615" height="0.25" fill="#2B4447" fill-opacity="0.1"/>
      </g>

      <g id="bbibbi-14-leg-1" transform="translate(5, 15)">
        <rect x="3" width="1" height="3" fill="#242427"/>
        <rect width="1" height="4" fill="#242427"/>
        <rect width="2" height="3" transform="matrix(-1 0 0 1 3 1)" fill="#F5F378"/>
        <rect width="2" height="1" transform="matrix(-1 0 0 1 4 3)" fill="#F5F378"/>
        <rect x="4" y="3" width="1" height="1" fill="#242427"/>
        <rect x="1" y="4" width="3" height="1" fill="#242427"/>
      </g>

      <g id="bbibbi-14-leg-2" transform="translate(10, 15)">
        <rect x="3" width="1" height="3" fill="#242427"/>
        <rect width="1" height="4" fill="#242427"/>
        <rect width="2" height="3" transform="matrix(-1 0 0 1 3 1)" fill="#F5F378"/>
        <rect width="2" height="1" transform="matrix(-1 0 0 1 4 3)" fill="#F5F378"/>
        <rect x="4" y="3" width="1" height="1" fill="#242427"/>
        <rect x="1" y="4" width="3" height="1" fill="#242427"/>
      </g>

      <g id="bbibbi-14-body">
        <rect width="10" height="7" transform="matrix(-1 0 0 1 15 2)" fill="#242427"/>
        <rect width="12" height="12" transform="matrix(-1 0 0 1 16 1)" fill="#242427"/>
        <rect width="8" height="13" transform="matrix(-1 0 0 1 14 0)" fill="#242427"/>
        <rect width="14" height="12" transform="matrix(-1 0 0 1 17 2)" fill="#242427"/>
        <rect width="12" height="13" transform="matrix(-1 0 0 1 16 2)" fill="#242427"/>
        <rect width="16" height="11" transform="matrix(-1 0 0 1 18 3)" fill="#242427"/>
        <rect width="16" height="10" transform="matrix(-1 0 0 1 18 3)" fill="#242427"/>
        <rect width="18" height="8" transform="matrix(-1 0 0 1 19 5)" fill="#242427"/>
        <rect width="14" height="6" transform="matrix(-1 0 0 1 17 4)" fill="#242427"/>
        <rect x="2" y="6" width="2" height="1" fill="#242427"/>
        <rect width="20" height="5" transform="matrix(-1 0 0 1 20 7)" fill="#242427"/>
        <rect width="14" height="5" transform="matrix(-1 0 0 1 17 10)" fill="#242427"/>
        <rect width="12" height="5" transform="matrix(-1 0 0 1 16 11)" fill="#242427"/>
        <rect width="10" height="5" transform="matrix(-1 0 0 1 15 12)" fill="#242427"/>
        <rect width="3.14286" height="4" transform="matrix(-1 0 0 1 15 5)" fill="white"/>
        <rect width="0.285714" height="0.285714" transform="matrix(-1 0 0 1 12.1429 5)" fill="#242427"/>
        <rect width="0.285714" height="0.285714" transform="matrix(-1 0 0 1 12.1429 8.71429)" fill="#242427"/>
        <rect width="0.285714" height="0.285714" transform="matrix(-1 0 0 1 15 8.71429)" fill="#242427"/>
        <rect width="0.285714" height="0.285714" transform="matrix(-1 0 0 1 15 8.42857)" fill="#242427"/>
        <rect width="0.285714" height="0.285714" transform="matrix(-1 0 0 1 14.7143 8.71429)" fill="#242427"/>
        <rect width="0.285714" height="0.285714" transform="matrix(-1 0 0 1 12.4286 8.71429)" fill="#242427"/>
        <rect width="0.285714" height="0.285714" transform="matrix(-1 0 0 1 12.1429 8.42857)" fill="#242427"/>
        <rect width="0.285714" height="0.285714" transform="matrix(-1 0 0 1 12.1429 5.28571)" fill="#242427"/>
        <rect width="0.285714" height="0.285714" transform="matrix(-1 0 0 1 15 5.28571)" fill="#242427"/>
        <rect width="0.285714" height="0.285714" transform="matrix(-1 0 0 1 15 5.57143)" fill="#242427"/>
        <rect width="0.285714" height="0.285714" transform="matrix(-1 0 0 1 14.7143 5.28571)" fill="#242427"/>
        <rect width="0.285714" height="0.285714" transform="matrix(-1 0 0 1 14.4286 5)" fill="#242427"/>
        <rect width="0.285714" height="0.285714" transform="matrix(-1 0 0 1 12.4286 5)" fill="#242427"/>
        <rect width="0.285714" height="0.285714" transform="matrix(-1 0 0 1 12.7143 5)" fill="#242427"/>
        <rect width="0.285714" height="0.285714" transform="matrix(-1 0 0 1 12.4286 5.28571)" fill="#242427"/>
        <rect width="0.285714" height="0.285714" transform="matrix(-1 0 0 1 12.1429 5.57143)" fill="#242427"/>
        <rect width="0.285714" height="0.285714" transform="matrix(-1 0 0 1 12.1429 8.14286)" fill="#242427"/>
        <rect width="0.285714" height="0.285714" transform="matrix(-1 0 0 1 12.4286 8.42857)" fill="#242427"/>
        <rect width="0.285714" height="0.285714" transform="matrix(-1 0 0 1 12.7143 8.71429)" fill="#242427"/>
        <rect width="0.285714" height="0.285714" transform="matrix(-1 0 0 1 14.4286 8.71429)" fill="#242427"/>
        <rect width="0.285714" height="0.285714" transform="matrix(-1 0 0 1 14.7143 8.42857)" fill="#242427"/>
        <rect width="0.285714" height="0.285714" transform="matrix(-1 0 0 1 15 8.14286)" fill="#242427"/>
        <rect width="0.285714" height="0.285714" transform="matrix(-1 0 0 1 14.7143 5)" fill="#242427"/>
        <rect width="0.285714" height="0.285714" transform="matrix(-1 0 0 1 15 5)" fill="#242427"/>
        <rect width="1.42857" height="1.14286" transform="matrix(-1 0 0 1 14.4286 6.42857)" fill="#242427"/>
        <rect width="0.857143" height="0.571429" transform="matrix(-1 0 0 1 14.1429 7.28571)" fill="#242427"/>
        <rect width="3.14286" height="4" transform="matrix(-1 0 0 1 11 5)" fill="white"/>
        <rect width="0.285714" height="0.285714" transform="matrix(-1 0 0 1 8.14285 5)" fill="#242427"/>
        <rect width="0.285714" height="0.285714" transform="matrix(-1 0 0 1 8.14285 8.71429)" fill="#242427"/>
        <rect width="0.285714" height="0.285714" transform="matrix(-1 0 0 1 11 8.71429)" fill="#242427"/>
        <rect width="0.285714" height="0.285714" transform="matrix(-1 0 0 1 11 8.42857)" fill="#242427"/>
        <rect width="0.285714" height="0.285714" transform="matrix(-1 0 0 1 10.7143 8.71429)" fill="#242427"/>
        <rect width="0.285714" height="0.285714" transform="matrix(-1 0 0 1 8.42857 8.71429)" fill="#242427"/>
        <rect width="0.285714" height="0.285714" transform="matrix(-1 0 0 1 8.14285 8.42857)" fill="#242427"/>
        <rect width="0.285714" height="0.285714" transform="matrix(-1 0 0 1 8.14285 5.28571)" fill="#242427"/>
        <rect width="0.285714" height="0.285714" transform="matrix(-1 0 0 1 11 5.28571)" fill="#242427"/>
        <rect width="0.285714" height="0.285714" transform="matrix(-1 0 0 1 11 5.57143)" fill="#242427"/>
        <rect width="0.285714" height="0.285714" transform="matrix(-1 0 0 1 10.7143 5.28571)" fill="#242427"/>
        <rect width="0.285714" height="0.285714" transform="matrix(-1 0 0 1 10.4286 5)" fill="#242427"/>
        <rect width="0.285714" height="0.285714" transform="matrix(-1 0 0 1 8.42857 5)" fill="#242427"/>
        <rect width="0.285714" height="0.285714" transform="matrix(-1 0 0 1 8.71428 5)" fill="#242427"/>
        <rect width="0.285714" height="0.285714" transform="matrix(-1 0 0 1 8.42857 5.28571)" fill="#242427"/>
        <rect width="0.285714" height="0.285714" transform="matrix(-1 0 0 1 8.14285 5.57143)" fill="#242427"/>
        <rect width="0.285714" height="0.285714" transform="matrix(-1 0 0 1 8.14285 8.14286)" fill="#242427"/>
        <rect width="0.285714" height="0.285714" transform="matrix(-1 0 0 1 8.42857 8.42857)" fill="#242427"/>
        <rect width="0.285714" height="0.285714" transform="matrix(-1 0 0 1 8.71428 8.71429)" fill="#242427"/>
        <rect width="0.285714" height="0.285714" transform="matrix(-1 0 0 1 10.4286 8.71429)" fill="#242427"/>
        <rect width="0.285714" height="0.285714" transform="matrix(-1 0 0 1 10.7143 8.42857)" fill="#242427"/>
        <rect width="0.285714" height="0.285714" transform="matrix(-1 0 0 1 11 8.14286)" fill="#242427"/>
        <rect width="0.285714" height="0.285714" transform="matrix(-1 0 0 1 10.7143 5)" fill="#242427"/>
        <rect width="0.285714" height="0.285714" transform="matrix(-1 0 0 1 11 5)" fill="#242427"/>
        <rect width="1.42857" height="1.14286" transform="matrix(-1 0 0 1 10.4286 6.42857)" fill="#242427"/>
        <rect width="0.857143" height="0.571429" transform="matrix(-1 0 0 1 10.1429 7.28571)" fill="#242427"/>
        <rect width="0.428571" height="0.857143" transform="matrix(-1 0 0 1 10.1429 9.28571)" fill="white"/>
        <rect width="0.428571" height="0.428571" transform="matrix(-1 0 0 1 14 8.85714)" fill="white"/>
        <rect width="0.428571" height="0.428571" transform="matrix(-1 0 0 1 13.5714 8.42857)" fill="white"/>
        <rect width="3" height="0.428571" transform="matrix(-1 0 0 1 13.1429 8)" fill="white"/>
        <rect width="0.428571" height="0.428571" transform="matrix(-1 0 0 1 10.1429 8.42857)" fill="white"/>
        <rect width="0.428571" height="0.428571" transform="matrix(-1 0 0 1 9.71428 8.85714)" fill="white"/>
        <rect width="2.14286" height="0.428571" transform="matrix(-1 0 0 1 12.7143 8.85714)" fill="white"/>
        <rect width="0.428571" height="0.857143" transform="matrix(-1 0 0 1 14 9.28571)" fill="white"/>
        <rect width="0.428571" height="0.428571" transform="matrix(-1 0 0 1 13.5714 10.1429)" fill="white"/>
        <rect width="0.428571" height="0.428571" transform="matrix(-1 0 0 1 10.1429 10.1429)" fill="white"/>
        <rect width="0.428571" height="0.428571" transform="matrix(-1 0 0 1 10.5714 9.28571)" fill="white"/>
        <rect width="0.428571" height="0.428571" transform="matrix(-1 0 0 1 13.1429 9.28571)" fill="white"/>
        <rect width="0.428571" height="0.428571" transform="matrix(-1 0 0 1 13.1429 9.71429)" fill="white"/>
        <rect width="0.428571" height="0.428571" transform="matrix(-1 0 0 1 10.5714 9.71429)" fill="white"/>
        <rect width="2.14286" height="0.428571" transform="matrix(-1 0 0 1 12.7143 9.71429)" fill="white"/>
        <rect width="3" height="0.428571" transform="matrix(-1 0 0 1 13.1429 10.1429)" fill="white"/>
        <rect width="0.428571" height="0.428571" transform="matrix(-1 0 0 1 10.1429 10.1429)" fill="#242427"/>
        <rect width="0.428571" height="0.857143" transform="matrix(-1 0 0 1 10.5714 9.28571)" fill="white"/>
        <rect width="0.428571" height="0.428571" transform="matrix(-1 0 0 1 9.71428 9.71429)" fill="black" fill-opacity="0.1"/>
        <rect width="3" height="0.428571" transform="matrix(-1 0 0 1 13.1429 10.5714)" fill="white"/>
        <rect width="0.428571" height="0.857143" transform="matrix(-1 0 0 1 9.71428 9.28571)" fill="white"/>
        <rect width="0.428571" height="1.28571" transform="matrix(-1 0 0 1 9.71428 8.85714)" fill="#242427"/>
        <rect width="0.428571" height="0.428571" transform="matrix(-1 0 0 1 10.1429 8.42857)" fill="#242427"/>
        <rect width="3" height="0.428571" transform="matrix(-1 0 0 1 13.1429 8)" fill="#242427"/>
        <rect width="0.428571" height="0.428571" transform="matrix(-1 0 0 1 13.5714 8.42857)" fill="#242427"/>
        <rect width="0.428571" height="1.28571" transform="matrix(-1 0 0 1 14 8.85714)" fill="#242427"/>
        <rect width="0.428571" height="0.428571" transform="matrix(-1 0 0 1 13.5714 10.1429)" fill="#242427"/>
        <rect width="0.428571" height="0.857143" transform="matrix(-1 0 0 1 13.1429 9.28571)" fill="white"/>
        <rect width="2.14286" height="0.428571" transform="matrix(-1 0 0 1 12.7143 8.85714)" fill="white"/>
        <rect width="2.14286" height="0.428571" transform="matrix(-1 0 0 1 12.7143 9.71429)" fill="white"/>
        <rect width="3" height="0.428571" transform="matrix(-1 0 0 1 13.1429 10.5714)" fill="#242427"/>
        <rect width="0.428571" height="1.28571" transform="matrix(-1 0 0 1 13.5714 8.85714)" fill="white"/>
        <rect width="0.428571" height="0.857143" transform="matrix(-1 0 0 1 13.1429 8.42857)" fill="white"/>
        <rect width="2.57143" height="0.428571" transform="matrix(-1 0 0 1 12.7143 8.42857)" fill="white"/>
        <rect width="0.857143" height="0.428571" transform="matrix(-1 0 0 1 10.5714 8.85714)" fill="white"/>
        <rect width="0.428571" height="0.857143" transform="matrix(1 0 0 -1 13.1429 9.71429)" fill="#F5F378"/>
        <rect width="0.428571" height="0.428571" transform="matrix(1 0 0 -1 9.28572 10.1429)" fill="#F5F378"/>
        <rect width="0.428571" height="0.428571" transform="matrix(1 0 0 -1 9.71429 10.5714)" fill="#F5F378"/>
        <rect width="3" height="0.428571" transform="matrix(1 0 0 -1 10.1429 11)" fill="#F5F378"/>
        <rect width="0.428571" height="0.428571" transform="matrix(1 0 0 -1 13.1429 10.5714)" fill="#F5F378"/>
        <rect width="0.428571" height="0.428571" transform="matrix(1 0 0 -1 13.5715 10.1429)" fill="#F5F378"/>
        <rect width="2.14286" height="0.428571" transform="matrix(1 0 0 -1 10.5715 10.1429)" fill="#F5F378"/>
        <rect width="0.428571" height="0.857143" transform="matrix(1 0 0 -1 9.28572 9.71429)" fill="#F5F378"/>
        <rect width="0.428571" height="0.428571" transform="matrix(1 0 0 -1 9.71429 8.85712)" fill="#F5F378"/>
        <rect width="0.428571" height="0.428571" transform="matrix(1 0 0 -1 13.1429 8.85712)" fill="#F5F378"/>
        <rect width="0.428571" height="0.428571" transform="matrix(1 0 0 -1 12.7143 9.71429)" fill="#F5F378"/>
        <rect width="0.428571" height="0.428571" transform="matrix(1 0 0 -1 10.1429 9.71429)" fill="#F5F378"/>
        <rect width="0.428571" height="0.428571" transform="matrix(1 0 0 -1 10.1429 9.28571)" fill="#F5F378"/>
        <rect width="0.428571" height="0.428571" transform="matrix(1 0 0 -1 12.7143 9.28571)" fill="#F5F378"/>
        <rect width="2.14286" height="0.428571" transform="matrix(1 0 0 -1 10.5715 9.28571)" fill="#F5F378"/>
        <rect width="3" height="0.428571" transform="matrix(1 0 0 -1 10.1429 8.85712)" fill="#F5F378"/>
        <rect width="0.428571" height="0.428571" transform="matrix(1 0 0 -1 13.1429 8.85712)" fill="#242427"/>
        <rect width="0.428571" height="0.857143" transform="matrix(1 0 0 -1 12.7143 9.71429)" fill="#F5F378"/>
        <rect width="0.428571" height="0.428571" transform="matrix(1 0 0 -1 13.5715 9.28571)" fill="black" fill-opacity="0.1"/>
        <rect width="3" height="0.428571" transform="matrix(1 0 0 -1 10.1429 8.4286)" fill="#F5F378"/>
        <rect width="0.428571" height="0.857143" transform="matrix(1 0 0 -1 13.5715 9.71429)" fill="#F5F378"/>
        <rect width="0.428571" height="1.28571" transform="matrix(1 0 0 -1 13.5715 10.1429)" fill="#242427"/>
        <rect width="0.428571" height="0.428571" transform="matrix(1 0 0 -1 13.1429 10.5714)" fill="#242427"/>
        <rect width="3" height="0.428571" transform="matrix(1 0 0 -1 10.1429 11)" fill="#242427"/>
        <rect width="0.428571" height="0.428571" transform="matrix(1 0 0 -1 9.71429 10.5714)" fill="#242427"/>
        <rect width="0.428571" height="1.28571" transform="matrix(1 0 0 -1 9.28572 10.1429)" fill="#242427"/>
        <rect width="0.428571" height="0.428571" transform="matrix(1 0 0 -1 9.71429 8.85712)" fill="#242427"/>
        <rect width="0.428571" height="0.857143" transform="matrix(1 0 0 -1 10.1429 9.71429)" fill="#F5F378"/>
        <rect width="2.14286" height="0.428571" transform="matrix(1 0 0 -1 10.5715 10.1429)" fill="#F5F378"/>
        <rect width="2.14286" height="0.428571" transform="matrix(1 0 0 -1 10.5715 9.28571)" fill="#F5F378"/>
        <rect width="3" height="0.428571" transform="matrix(1 0 0 -1 10.1429 8.4286)" fill="#242427"/>
        <rect width="2.14286" height="0.428571" transform="matrix(1 0 0 -1 10.5714 9.71429)" fill="#242427"/>
        <rect width="0.428571" height="0.428571" transform="matrix(1 0 0 -1 10.1429 9.28571)" fill="#242427"/>
        <rect width="0.428571" height="0.428571" transform="matrix(1 0 0 -1 12.7143 9.28571)" fill="#242427"/>
        <rect width="0.428571" height="1.28571" transform="matrix(1 0 0 -1 9.71429 10.1429)" fill="#F5F378"/>
        <rect width="0.428571" height="0.857143" transform="matrix(1 0 0 -1 10.1429 10.5714)" fill="#F5F378"/>
        <rect width="2.57143" height="0.428571" transform="matrix(1 0 0 -1 10.5715 10.5714)" fill="#F5F378"/>
        <rect width="0.857143" height="0.428571" transform="matrix(1 0 0 -1 12.7143 10.1429)" fill="#F5F378"/>
      </g>

      <g id="notebook" transform="translate(12, 7)">
        <rect width="7" height="5" transform="matrix(-1 0 0 1 10 0)" fill="#E4E4E4"/>
        <rect width="9" height="5" transform="matrix(-1 0 0 1 11 1)" fill="#E4E4E4"/>
        <rect width="9" height="2" transform="matrix(-1 0 0 1 10 4)" fill="#E4E4E4"/>
        <rect width="9" height="1" transform="matrix(-1 0 0 1 9 5)" fill="#E4E4E4"/>
        <rect width="1" height="2" transform="matrix(-1 0 0 1 2 4)" fill="black" fill-opacity="0.1"/>
        <rect width="1" height="1" transform="matrix(-1 0 0 1 1 5)" fill="black" fill-opacity="0.1"/>
        <rect width="9" height="1" transform="matrix(-1 0 0 1 11 5)" fill="black" fill-opacity="0.1"/>
        <rect x="8" y="3.5" width="1" height="0.5" transform="rotate(180 8 3.5)" fill="#242427"/>
        <rect width="1" height="0.5" transform="matrix(-1 0 0 1 7.5 2.5)" fill="#242427"/>
        <rect width="0.5" height="2" transform="matrix(-1 0 0 1 8 2)" fill="#242427"/>
        <rect width="1.5" height="0.5" transform="matrix(-1 0 0 1 8 3.5)" fill="#242427"/>
      </g>
    </svg>
  </g>
  <style>
    #contributions {
    filter: url(#contribution_blur)
    }
  </style>

  <defs>
    <filter id="contribution_blur" x="-100" y="-100" width="200" height="200" filterUnits="userSpaceOnUse" color-interpolation-filters="sRGB">
      <feFlood flood-opacity="0" result="BackgroundImageFix"/>
      <feColorMatrix in="SourceAlpha" type="matrix" values="0 0 0 0 0 0 0 0 0 0 0 0 0 0 0 0 0 0 127 0" result="hardAlpha"/>
      <feOffset/>
      <feGaussianBlur stdDeviation="2"/>
      <feComposite in2="hardAlpha" operator="out"/>
      <feColorMatrix type="matrix" values="0 0 0 0 1 0 0 0 0 1 0 0 0 0 1 0 0 0 1 0"/>
      <feBlend mode="normal" in2="BackgroundImageFix" result="effect1_dropShadow_216_87060"/>
      <feBlend mode="normal" in="SourceGraphic" in2="effect1_dropShadow_216_87060" result="shape"/>
    </filter>
  </defs><style>
    #level {
    filter: url(#level_shadow)
    }
  </style>

  <defs>
    <filter id="level_shadow" x="-200" y="-200" width="400" height="400" filterUnits="userSpaceOnUse" color-interpolation-filters="sRGB">
      <feFlood flood-opacity="0" result="BackgroundImageFix"/>
      <feColorMatrix in="SourceAlpha" type="matrix" values="0 0 0 0 0 0 0 0 0 0 0 0 0 0 0 0 0 0 127 0" result="hardAlpha"/>
      <feOffset/>
      <feGaussianBlur stdDeviation="0.5"/>
      <feComposite in2="hardAlpha" operator="out"/>
      <feColorMatrix type="matrix" values="0 0 0 0 1 0 0 0 0 1 0 0 0 0 1 0 0 0 1 0"/>
      <feBlend mode="normal" in2="BackgroundImageFix" result="effect1_dropShadow_138_125"/>
      <feBlend mode="normal" in="SourceGraphic" in2="effect1_dropShadow_138_125" result="shape"/>
    </filter>
  </defs></svg>
