<svg xmlns="http://www.w3.org/2000/svg" fill="none" overflow="visible"><script xmlns=""/><style>
  @keyframes capybara-0-floating {
  0% {
  transform: translate(0px, 0px);
  }
  33% {
  transform: translate(0px, -1.5px);
  }
  66% {
  transform: translate(0px, 1.5px),
  }
  100% {
  transform: translate(0px, 0px);
  }
  }

  @keyframes capybara-0-head-move {
  0% {
  transform: translate(0px, 0px);
  }
  50% {
  transform: translate(0.5px, 0px);
  }
  100% {
  transform: translate(0px, 0px);
  }
  }

  @keyframes capybara-0-leg-front-move {
  0% {
  transform: translate(3.8px, 15px);
  }
  50% {
  transform: translate(3.8px, 15.5px);
  }
  100% {
  transform: translate(3.8px, 15px);
  }
  }

  @keyframes capybara-0-leg-back-move {
  0% {
  transform: translate(-2px, 14px);
  }
  50% {
  transform: translate(-2px, 14.5px);
  }
  100% {
  transform: translate(-2px, 14px);
  }
  }

  #capybara-0-wrap {
  animation-name:capybara-0-floating;
  animation-duration:1s;
  animation-iteration-count:infinite;
  animation-timing-function: ease-in-out;
  }


  #capybara-0-head {
  animation-name: capybara-0-head-move;
  animation-duration: 1s;
  animation-iteration-count: infinite;
  animation-timing-function: ease-in-out;
  }

  #capybara-0-leg-front {
  animation-name:capybara-0-leg-front-move;
  animation-duration:1s;
  animation-iteration-count:infinite;
  animation-timing-function: ease-in-out;
  }

  #capybara-0-leg-back {
  animation-name:capybara-0-leg-back-move;
  animation-duration:1s;
  animation-delay: 0.5s;
  animation-iteration-count:infinite;
  animation-timing-function: ease-in-out;
  }

</style>
  <g id="capybara-0" transform="translate(30, 10)">
    <g id="id">0</g>
    <svg width="600" height="300" viewBox="0 0 200 100" fill="none" overflow="visible">
      <g id="capybara-0-swim-top" transform="translate(-8.2, 1)">
        <rect y="2.92908" width="28" height="4.19753" fill="#5FC4FF" fill-opacity="0.7"/>
        <rect x="2.33331" y="1.53003" width="23.3333" height="1.39918" fill="#5FC4FF" fill-opacity="0.7"/>
        <rect x="4.66656" y="0.130859" width="18.6667" height="1.39918" fill="#5FC4FF" fill-opacity="0.7"/>
        <rect x="24.4856" y="5.37769" width="3.49794" height="1.6387" fill="#0059FF" fill-opacity="0.1"/>
        <rect x="1.74896" y="3.62878" width="3.49794" height="1.6387" fill="#0059FF" fill-opacity="0.1"/>
        <rect x="6.99588" y="1.87976" width="3.49794" height="1.6387" fill="#0059FF" fill-opacity="0.1"/>
        <rect x="8.74487" y="0.130859" width="5.24692" height="1.74897" fill="#0059FF" fill-opacity="0.1"/>
      </g>
      <g id="capybara-0-wrap">
        <g id="capybara-0-leg-front" transform="translate(3.8, 15)">
          <path d="M8.08245 0.0825195H6.12369V2.62891H8.08245V0.0825195Z" fill="#C17B46"/>
          <path d="M2.20617 0.0825195H0.247406V2.62891H2.20617V0.0825195Z" fill="#C17B46"/>
        </g>
        <g id="capybara-0-leg-back" transform="translate(-2, 14)">
          <path d="M4.28865 0.886719H0.371124V3.62898H4.28865V0.886719Z" fill="#C17B46"/>
        </g>
        <g id="capybara-0-body" transform="translate(-3.2, 6.1)">
          <path d="M9.98971 0.876343H3.32993V4.59799H9.98971V0.876343Z" fill="#C17B46"/>
          <path d="M15.0825 2.83508H0V10.6701H15.0825V2.83508Z" fill="#C17B46"/>
          <path d="M15.0824 6.75256H7.24741V8.71132H15.0824V6.75256Z" fill="#A56235"/>
          <path d="M13.1237 8.5155H9.20615V10.6701H13.1237V8.5155Z" fill="#A56235"/>
          <path d="M7.24743 4.79382H5.28867V6.75258H7.24743V4.79382Z" fill="#A56235"/>
        </g>
        <g id="capybara-0-head" transform="translate(0, 0)">
          <path d="M14.0412 0H11.299V2.54639H14.0412V0Z" fill="#8E654A"/>
          <path d="M16 1.95886H2.28867V9.79391H16V1.95886Z" fill="#C17B46"/>
          <path d="M16 9.01038H4.24741V11.7526H16V9.01038Z" fill="#C17B46"/>
          <path d="M16 7.83508H8.16495V11.7526H16V7.83508Z" fill="#7C4B32"/>
          <path d="M16 5.87634H10.1237V8.22686H16V5.87634Z" fill="#7C4B32"/>
          <path d="M4.24745 0H0.329926V3.91752H4.24745V0Z" fill="#8E654A"/>
          <path d="M7.38144 4.70105H4.4433V5.87631H7.38144V4.70105Z" fill="black"/>
        </g>
      </g>
      <g id="capybara-0-swim-bottom" transform="translate(-8.2, 8)">
        <rect width="28" height="6.2963" transform="matrix(1 0 0 -1 0 6.4231)" fill="#5FC4FF" fill-opacity="0.7"/>
        <rect width="23.3333" height="2.09877" transform="matrix(1 0 0 -1 2.33331 8.52222)" fill="#5FC4FF" fill-opacity="0.7"/>
        <rect width="18.6667" height="2.09877" transform="matrix(1 0 0 -1 4.66656 10.6206)" fill="#5FC4FF" fill-opacity="0.7"/>
        <rect x="17.1568" y="7.32629" width="5.24692" height="1.6387" fill="#0059FF" fill-opacity="0.1"/>
        <rect x="6.99588" y="8.87158" width="3.49794" height="1.6387" fill="#0059FF" fill-opacity="0.1"/>
        <rect y="3.62476" width="3.49794" height="1.6387" fill="#0059FF" fill-opacity="0.1"/>
        <rect x="8.41193" y="7.32629" width="3.49794" height="1.6387" fill="#0059FF" fill-opacity="0.1"/>
        <rect x="22.7366" y="3.62476" width="3.49794" height="1.6387" fill="#0059FF" fill-opacity="0.1"/>
        <rect x="15.4078" y="8.96497" width="5.24692" height="1.6387" fill="#0059FF" fill-opacity="0.1"/>
      </g>
    </svg>
  </g>
</svg>
