<svg xmlns="http://www.w3.org/2000/svg" fill="none" overflow="visible"><script xmlns=""/><style>
  @keyframes cat-0-head-move {
  0% {
  transform: translate(0px, -10px);
  }
  50% {
  transform: translate(-0.5px, -10px);
  }
  100% {
  transform: translate(0px, -10px);
  }
  }

  @keyframes cat-0-leg-left-move {
  0% {
  transform: translate(4px, 6px);
  }
  50% {
  transform: translate(4px, 7px);
  }
  100% {
  transform: translate(4px, 6px);
  }
  }

  @keyframes cat-0-leg-right-move {
  0% {
  transform: translate(8px, 6px);
  }
  50% {
  transform: translate(8px, 7px);
  }
  100% {
  transform: translate(8px, 6px);
  }
  }

  @keyframes cat-0-hand-window-move {
  0% {
  transform: translate(0.5px, 3.5px);
  }
  50% {
  transform: translate(0.5px, 2.5px);
  }
  100% {
  transform: translate(0.5px, 3.5px);
  }
  }

  #cat-0-head {
  animation-name: cat-0-head-move;
  animation-duration: 1s;
  animation-iteration-count: infinite;
  animation-timing-function: ease-in-out;
  }

  #cat-0-hand-window {
  animation-name: cat-0-hand-window-move;
  animation-duration: 1s;
  animation-iteration-count: infinite;
  animation-timing-function: ease-in-out;
  }

  #cat-0-leg-left {
  animation-name:cat-0-leg-left-move;
  animation-duration:1s;
  animation-iteration-count:infinite;
  animation-timing-function: ease-in-out;
  }

  #cat-0-leg-right {
  animation-name:cat-0-leg-right-move;
  animation-duration:1s;
  animation-delay: 0.5s;
  animation-iteration-count:infinite;
  animation-timing-function: ease-in-out;
  }

</style>
  <g id="cat-0" transform="translate(20, 30)">
    <g id="id"> 0 </g>
    <svg width="600" height="300" viewBox="0 0 200 100" fill="none" overflow="visible">
      <g id="cat-0-shadow" transform="translate(1, 10)">
        <rect y="0.75" width="11" height="1.5" fill="#2B4447" fill-opacity="0.1"/>
        <rect x="0.846146" y="0.375" width="9.30769" height="0.375" fill="#2B4447" fill-opacity="0.1"/>
        <rect x="0.846146" y="2.25" width="9.30769" height="0.375" fill="#2B4447" fill-opacity="0.1"/>
        <rect x="1.69228" width="7.61539" height="0.375" fill="#2B4447" fill-opacity="0.1"/>
        <rect x="1.69228" y="2.625" width="7.61539" height="0.375" fill="#2B4447" fill-opacity="0.1"/>
      </g>

      <g id="cat-0-leg-left" transform="translate(4, 6)">
        <rect width="2" height="5" transform="matrix(-1 0 0 1 2 0)" fill="#DDD7B5"/>
        <rect width="1" height="5" transform="matrix(-1 0 0 1 1 0)" fill="black" fill-opacity="0.1"/>
      </g>
      <g id="cat-0-leg-right" transform="translate(8, 6)">
        <rect width="2" height="5" transform="matrix(-1 0 0 1 2 0)" fill="#DDD7B5"/>
        <rect width="1" height="5" transform="matrix(-1 0 0 1 1 0)" fill="black" fill-opacity="0.1"/>
      </g>
      <g id="cat-0-head">
        <rect width="2" height="3" transform="matrix(-1 0 0 1 11 0)" fill="#DDD7B5"/>
        <rect width="2" height="4" transform="matrix(-1 0 0 1 3 0)" fill="#DDD7B5"/>
        <rect width="1" height="1" transform="matrix(-1 0 0 1 10 0)" fill="#DDD7B5"/>
        <rect width="1" height="3" transform="matrix(-1 0 0 1 3 0)" fill="#DDD7B5"/>
        <rect width="1" height="1" transform="matrix(-1 0 0 1 3 4)" fill="#DDD7B5"/>
        <rect width="10" height="6" transform="matrix(-1 0 0 1 12 5)" fill="#DDD7B5"/>
        <rect width="1" height="2" transform="matrix(-1 0 0 1 2 5)" fill="#DDD7B5"/>
        <rect width="12" height="2" transform="matrix(-1 0 0 1 13 5)" fill="#DDD7B5"/>
        <rect width="10" height="8" transform="matrix(-1 0 0 1 12 3)" fill="#DDD7B5"/>
        <rect width="12" height="3" transform="matrix(-1 0 0 1 13 7)" fill="#DDD7B5"/>
        <rect width="2" height="2" transform="matrix(-1 0 0 1 10 1)" fill="#DDD7B5"/>
        <rect width="3" height="2" transform="matrix(-1 0 0 1 4 1)" fill="#DDD7B5"/>
        <rect width="10" height="2" transform="matrix(-1 0 0 1 11 2)" fill="#DDD7B5"/>
        <rect width="1" height="1" transform="matrix(-1 0 0 1 9 7)" fill="black"/>
        <rect width="1" height="1" transform="matrix(-1 0 0 1 10 8)" fill="black"/>
        <rect width="1" height="1" transform="matrix(-1 0 0 1 8 8)" fill="black"/>
        <rect width="1" height="4" transform="matrix(-1 0 0 1 2 0)" fill="black" fill-opacity="0.1"/>
        <rect width="1" height="1" transform="matrix(-1 0 0 1 3 4)" fill="black" fill-opacity="0.1"/>
        <rect width="1" height="1" transform="matrix(-1 0 0 1 9 3)" fill="black" fill-opacity="0.1"/>
        <rect width="1" height="1" transform="matrix(-1 0 0 1 7 3)" fill="black" fill-opacity="0.1"/>
        <rect width="1" height="1" transform="matrix(-1 0 0 1 9 1)" fill="black" fill-opacity="0.1"/>
        <rect width="1" height="1" transform="matrix(-1 0 0 1 10 0)" fill="black" fill-opacity="0.1"/>
        <rect width="1" height="1" transform="matrix(-1 0 0 1 3 1)" fill="black" fill-opacity="0.1"/>
        <rect width="1" height="2" transform="matrix(-1 0 0 1 2 5)" fill="black" fill-opacity="0.1"/>
        <rect width="1" height="3" transform="matrix(-1 0 0 1 2 7)" fill="black" fill-opacity="0.1"/>
        <rect width="3" height="1" transform="matrix(-1 0 0 1 9 2)" fill="black" fill-opacity="0.1"/>
        <rect width="2" height="1" transform="matrix(-1 0 0 1 6 7)" fill="#FF778F"/>
        <rect width="2" height="1" transform="matrix(-1 0 0 1 13 7)" fill="#FF778F"/>
        <rect width="1" height="1" transform="matrix(-1 0 0 1 14 7)" fill="black"/>
        <rect width="1" height="1" transform="matrix(-1 0 0 1 14 9)" fill="black"/>
        <rect width="3" height="1" transform="matrix(-1 0 0 1 3 7)" fill="black"/>
        <rect width="3" height="1" transform="matrix(-1 0 0 1 3 9)" fill="black"/>
        <rect width="2" height="1" transform="matrix(-1 0 0 1 12 5)" fill="black"/>
        <rect width="2" height="1" transform="matrix(-1 0 0 1 7 5)" fill="black"/>
        <rect width="2" height="1" transform="matrix(-1 0 0 1 4 10)" fill="black" fill-opacity="0.1"/>
      </g>
      <g id="cat-0-body" transform="translate(-6, -2)">
        <rect width="11" height="3" transform="matrix(-1 0 0 1 18 6)" fill="#DDD7B5"/>
        <rect width="6" height="9" transform="matrix(-1 0 0 1 15 3)" fill="#DDD7B5"/>
        <rect width="7" height="9" transform="matrix(-1 0 0 1 16 2)" fill="#DDD7B5"/>
        <rect width="9" height="6" transform="matrix(-1 0 0 1 17 4)" fill="#DDD7B5"/>
        <rect width="10" height="3" transform="matrix(-1 0 0 1 17 7)" fill="#DDD7B5"/>
        <rect width="8" height="5" transform="matrix(-1 0 0 1 16 6)" fill="#DDD7B5"/>
        <rect width="5" height="5" transform="matrix(-1 0 0 1 15 5)" fill="white"/>
        <rect width="3" height="5" transform="matrix(-1 0 0 1 14 4)" fill="white"/>
        <rect width="3" height="1" transform="matrix(-1 0 0 1 15 11)" fill="black" fill-opacity="0.1"/>
        <rect width="2" height="1" transform="matrix(-1 0 0 1 11 11)" fill="black" fill-opacity="0.1"/>
        <rect x="8" y="10" width="1" height="1" fill="black" fill-opacity="0.1"/>
        <rect x="7" y="7" width="1" height="1" fill="black" fill-opacity="0.1"/>
        <rect x="7" y="6" width="1" height="1" fill="black" fill-opacity="0.1"/>
        <rect x="17" y="8" width="1" height="1" fill="black" fill-opacity="0.1"/>
        <rect width="1" height="2" transform="matrix(-1 0 0 1 10 2)" fill="black" fill-opacity="0.1"/>
        <rect width="1" height="2" transform="matrix(-1 0 0 1 9 4)" fill="black" fill-opacity="0.1"/>
        <rect width="2" height="4" transform="matrix(0 1 1 0 6 8)" fill="#DDD7B5"/>
        <rect width="1" height="3" transform="matrix(0 1 1 0 4 8)" fill="#DDD7B5"/>
        <rect width="2" height="1" transform="matrix(0 1 1 0 4 7)" fill="#DDD7B5"/>
        <rect width="1" height="3" transform="matrix(0 1 1 0 2 7)" fill="#DDD7B5"/>
        <rect width="2" height="1" transform="matrix(0 1 1 0 2 6)" fill="#DDD7B5"/>
        <rect width="1" height="2" transform="matrix(0 1 1 0 1 6)" fill="#DDD7B5"/>
        <rect width="3" height="1" transform="matrix(0 1 1 0 1 4)" fill="#DDD7B5"/>
        <rect width="1" height="2" transform="matrix(0 1 1 0 0 4)" fill="#DDD7B5"/>
        <rect width="4" height="1" transform="matrix(0 1 1 0 0 1)" fill="#DDD7B5"/>
        <rect width="1" height="2" transform="matrix(0 1 1 0 0 1)" fill="#DDD7B5"/>
        <rect width="2" height="1" transform="matrix(0 1 1 0 1 0)" fill="#DDD7B5"/>
        <rect x="6" y="9" width="2" height="1" fill="black" fill-opacity="0.1"/>
        <rect x="1" width="1" height="2" fill="black" fill-opacity="0.1"/>
        <rect y="1" width="1" height="2" fill="black" fill-opacity="0.1"/>
      </g>

      <g id="cat-0-hand-window" transform="translate(0.5, 13)">
        <rect width="4.45454" height="3.18181" transform="matrix(-0.999979 0.00642904 0.00642904 0.999979 5.63013 0.392822)" fill="#E4E4E4"/>
        <rect width="5.72726" height="3.18181" transform="matrix(-0.999979 0.00642904 0.00642904 0.999979 6.27057 1.02502)" fill="#E4E4E4"/>
        <rect width="2" height="4" transform="matrix(-1 0 0 1 3 0)" fill="#DDD7B5"/>
        <rect x="1" y="3" width="2" height="1" fill="black" fill-opacity="0.1"/>
        <rect x="3" y="2" width="1" height="1" fill="#D9D9D9"/>
        <rect x="3" y="2" width="0.5" height="0.5" fill="#FF6F0F"/>
        <rect x="3.5" y="2" width="0.5" height="0.5" fill="#6DE575"/>
        <rect x="3" y="2.5" width="1" height="0.5" fill="#21B2E2"/>
      </g>
    </svg>
  </g>
</svg>
