<svg xmlns="http://www.w3.org/2000/svg" fill="none" overflow="visible"><script xmlns=""/><style>
  @keyframes rotate-top-0 {
  0% {
  transform: rotate(0deg);
  }
  33% {
  transform: translate(1.3px, 0.3px) rotate(5deg);
  }
  66% {
  transform: translate(0px, 0px) rotate(0deg);
  }
  100% {
  transform: rotate(0deg);
  }
  }

  #flamingo-top-0 {
  animation-name:rotate-top-0;
  animation-duration:2s;
  animation-iteration-count: infinite;
  animation-timing-function: ease-in-out;
  }
</style>

  <g id="flamingo-0" style="transform:translate(0%, 0%) scaleX(1);">
    <svg width="600" height="300" viewBox="0 0 200 100" fill="none" overflow="visible">
      <g id="shadow" transform="translate(0, 26.5)">
        <rect x="1" y="3" width="12" height="2" fill="#C8AB83"/>
        <rect x="1.9231" y="2.5" width="10.1538" height="0.5" fill="#C8AB83"/>
        <rect x="1.9231" y="5" width="10.1538" height="0.5" fill="#C8AB83"/>
        <rect x="2.84619" y="2" width="8.30769" height="0.5" fill="#C8AB83"/>
        <rect x="2.84619" y="5.5" width="8.30769" height="0.5" fill="#C8AB83"/>
        <rect x="1.9231" y="5" width="10.1538" height="0.5" fill="#C8AB83"/>
        <rect x="1.9231" y="4.5" width="10.1538" height="1" fill="#C8AB83"/>
        <rect x="2.84619" y="5" width="8.30769" height="1" fill="#C8AB83"/>
        <path fill-rule="evenodd" clip-rule="evenodd" d="M10.3333 0.5H10.6667V1.5H11V1.16667H11.3333V1.83333H11.6667V2.16667H11.3333V2.5H11.6667V2.16667H12V3.16667H11.3333V2.83333H11V3.5H10.3333V3.83333H10V4.16667H9.66667V3.83333H9V3.5H8.33333V3.16667H8V2.83333H7.66667V3.16667H7.33333V2.83333H6.66667V3.16667H6.33333V2.83333H6V2.16667H6.33333V2.5H6.66667V2.16667H7V2.5H7.33333V1.83333H7.66667V1.16667H8V2.5H8.33333V1.83333H8.66667V2.16667H9V1.83333H8.66667V0.833333H9V1.16667H9.33333V0.5H9.66667V0.833333H10.3333V0.5ZM10 1.16667V1.83333H10.3333V1.16667H10Z" fill="#185D4A"/>
        <path d="M8 3.5H7.66667V3.83333H8V4.5H8.33333V4.16667H8.66667V3.83333H8V3.5Z" fill="#185D4A"/>
        <path d="M12.6667 2.5H12.3333V3.16667H12.6667V2.83333H14V2.16667H13.6667V2.5H13.3333V1.83333H13V2.16667H12.6667V2.5Z" fill="#185D4A"/>
        <path fill-rule="evenodd" clip-rule="evenodd" d="M4.33333 0.5H4.66667V1.5H5V1.16667H5.33333V1.83333H5.66667V2.16667H5.33333V2.5H5.66667V2.16667H6V3.16667H5.33333V2.83333H5V3.5H4.33333V3.83333H4V4.16667H3.66667V3.83333H3V3.5H2.33333V3.16667H2V2.83333H1.66667V3.16667H1.33333V2.83333H0.666667V3.16667H0.333333V2.83333H0V2.16667H0.333333V2.5H0.666667V2.16667H1V2.5H1.33333V1.83333H1.66667V1.16667H2V2.5H2.33333V1.83333H2.66667V2.16667H3V1.83333H2.66667V0.833333H3V1.16667H3.33333V0.5H3.66667V0.833333H4.33333V0.5ZM4 1.16667V1.83333H4.33333V1.16667H4Z" fill="#185D4A"/>
        <path d="M2 3.5H1.66667V3.83333H2V4.5H2.33333V4.16667H2.66667V3.83333H2V3.5Z" fill="#185D4A"/>
        <path d="M6.66667 2.5H6.33333V3.16667H6.66667V2.83333H8V2.16667H7.66667V2.5H7.33333V1.83333H7V2.16667H6.66667V2.5Z" fill="#185D4A"/>
      </g>

      <g id="flamingo-leg" transform="translate(6, 18)">
        <rect width="2" height="1" transform="matrix(1 0 0 -1 0 12)" fill="#FC9866"/>
        <rect width="1" height="12" transform="matrix(1 0 0 -1 0 12)" fill="#FC9866"/>
        <rect x="1" y="3" width="1" height="1" fill="#FC9866"/>
        <rect x="2" y="4" width="1" height="1" fill="#FC9866"/>
        <rect x="3" y="5" width="1" height="1" fill="#FC9866"/>
        <rect x="2" y="6" width="1" height="1" fill="#FC9866"/>
        <rect x="1" y="6" width="1" height="1" fill="#FC9866"/>
      </g>

      <g id="flamingo-shadow-front" transform="translate(1, 28.5)">
        <path fill-rule="evenodd" clip-rule="evenodd" d="M9.33333 0.5H9.66667V1.5H10V1.16667H10.3333V1.83333H10.6667V2.16667H10.3333V2.5H10.6667V2.16667H11V3.16667H10.3333V2.83333H10V3.5H9.33333V3.83333H9V4.16667H8.66667V3.83333H8V3.5H7.33333V3.16667H7V2.83333H6.66667V3.16667H6.33333V2.83333H5.66667V3.16667H5.33333V2.83333H5V2.16667H5.33333V2.5H5.66667V2.16667H6V2.5H6.33333V1.83333H6.66667V1.16667H7V2.5H7.33333V1.83333H7.66667V2.16667H8V1.83333H7.66667V0.833333H8V1.16667H8.33333V0.5H8.66667V0.833333H9.33333V0.5ZM9 1.16667V1.83333H9.33333V1.16667H9Z" fill="#185D4A"/>
        <path d="M7 3.5H6.66667V3.83333H7V4.5H7.33333V4.16667H7.66667V3.83333H7V3.5Z" fill="#185D4A"/>
        <path d="M11.6667 2.5H11.3333V3.16667H11.6667V2.83333H13V2.16667H12.6667V2.5H12.3333V1.83333H12V2.16667H11.6667V2.5Z" fill="#185D4A"/>
        <path fill-rule="evenodd" clip-rule="evenodd" d="M4.33333 0.5H4.66667V1.5H5V1.16667H5.33333V1.83333H5.66667V2.16667H5.33333V2.5H5.66667V2.16667H6V3.16667H5.33333V2.83333H5V3.5H4.33333V3.83333H4V4.16667H3.66667V3.83333H3V3.5H2.33333V3.16667H2V2.83333H1.66667V3.16667H1.33333V2.83333H0.666667V3.16667H0.333333V2.83333H0V2.16667H0.333333V2.5H0.666667V2.16667H1V2.5H1.33333V1.83333H1.66667V1.16667H2V2.5H2.33333V1.83333H2.66667V2.16667H3V1.83333H2.66667V0.833333H3V1.16667H3.33333V0.5H3.66667V0.833333H4.33333V0.5ZM4 1.16667V1.83333H4.33333V1.16667H4Z" fill="#185D4A"/>
        <path d="M2 3.5H1.66667V3.83333H2V4.5H2.33333V4.16667H2.66667V3.83333H2V3.5Z" fill="#185D4A"/>
        <path d="M6.66667 2.5H6.33333V3.16667H6.66667V2.83333H8V2.16667H7.66667V2.5H7.33333V1.83333H7V2.16667H6.66667V2.5Z" fill="#185D4A"/>
        <rect x="7.57452" y="2.88477" width="0.997929" height="0.166667" fill="#667C47"/>
        <rect x="7.4082" y="3.05139" width="0.997929" height="0.166667" fill="#667C47"/>
        <path d="M7.74085 1.88477H8.40613V2.05143H8.57245V2.55143H8.40613V2.7181H7.74085V2.55143H7.57452V2.05143H7.74085V1.88477Z" fill="#D85B37"/>
        <rect x="7.4082" y="2.21814" width="0.166321" height="0.333333" fill="#704441"/>
        <rect x="7.57452" y="2.55139" width="0.166321" height="0.333333" fill="#704441"/>
        <rect x="8.40613" y="2.55139" width="0.166321" height="0.166667" fill="#704441"/>
        <rect x="8.57245" y="2.21814" width="0.166321" height="0.5" fill="#704441"/>
        <rect x="8.23981" y="2.21814" width="0.166321" height="0.333333" fill="#DBD6B9"/>
        <rect x="7.74084" y="2.05139" width="0.166321" height="0.166667" fill="#DBD6B9"/>
        <rect width="0.831607" height="0.166667" transform="matrix(-1 0 0 1 8.57245 2.71814)" fill="#704441"/>
        <rect width="0.332643" height="0.166667" transform="matrix(-1 0 0 1 8.23981 2.88477)" fill="#DBD6B9"/>
        <rect x="9.23773" y="3.55139" width="0.498964" height="0.166667" transform="rotate(-180 9.23773 3.55139)" fill="#704441"/>
        <path d="M9.23773 3.55139H8.73877V3.71806H8.57245V3.88472H9.07141V3.71806H9.23773V3.55139Z" fill="#667C47"/>
        <rect x="8.90509" y="3.55139" width="0.166321" height="0.166667" fill="#DBD6B9"/>
        <path d="M8.57245 3.38477L9.40405 3.38477L9.40405 3.2181L9.23773 3.2181L9.23773 3.05143L8.73877 3.05143L8.73877 3.2181L8.57245 3.2181L8.57245 3.38477Z" fill="#D85B37"/>
        <rect x="1.66534" y="2" width="0.498964" height="0.166667" transform="rotate(-180 1.66534 2)" fill="#704441"/>
        <path d="M1.66535 2H1.16638V2.16667H1.00006V2.33333H1.49903V2.16667H1.66535V2Z" fill="#667C47"/>
        <rect x="1.33258" y="2" width="0.166321" height="0.166667" fill="#DBD6B9"/>
        <path d="M0.999997 1.83337L1.8316 1.83337L1.8316 1.66671L1.66528 1.66671L1.66528 1.50004L1.16632 1.50004L1.16632 1.66671L0.999997 1.66671L0.999997 1.83337Z" fill="#D85B37"/>
      </g>

      <g id="flamingo-top-0">
        <g id="flamingo-head" transform="translate(9, 5)">
          <rect x="2" y="11" width="3" height="3" fill="#F3EBED"/>
          <rect x="2" y="8" width="2" height="3" fill="#F3EBED"/>
          <rect x="1" y="7" width="2" height="1" fill="#F3EBED"/>
          <rect y="5" width="2" height="2" fill="#F3EBED"/>
          <rect y="4" width="1" height="1" fill="#F3EBED"/>
          <rect y="3" width="2" height="1" fill="#F3EBED"/>
          <rect x="1" y="2" width="2" height="1" fill="#F3EBED"/>
          <rect x="2" width="4" height="3" fill="#F3EBED"/>
          <rect x="5" y="1" width="2" height="2" fill="#FFA713"/>
          <rect x="6" y="1" width="1" height="3" fill="#FFA713"/>
          <rect x="6" y="3" width="1" height="1" fill="black"/>
          <rect x="3" y="1" width="1" height="1" fill="#FF7B7B"/>
          <rect x="5" width="1" height="1" fill="#FF7B7B"/>
          <rect x="2" y="7" width="1" height="2" fill="#F3EBED"/>
          <rect x="1" y="6" width="1" height="2" fill="#F3EBED"/>
          <rect y="3" width="1" height="3" fill="#F3EBED"/>
          <rect x="1" y="1" width="1" height="3" fill="#F3EBED"/>
          <rect x="3" y="10" width="1" height="2" fill="#F3EBED"/>
        </g>
        <g id="flamingo-body" transform="translate(1, 13)">
          <rect x="3" width="5" height="6" fill="#F3EBED"/>
          <rect x="1" y="2" width="9" height="2" fill="#F3EBED"/>
          <rect x="1" y="1" width="3" height="3" fill="#F3EBED"/>
          <rect x="3" y="4" width="8" height="2" fill="#F3EBED"/>
          <rect x="5" y="5" width="7" height="2" fill="#F3EBED"/>
          <rect x="6" y="6" width="4" height="2" fill="#DDDDDD"/>
          <rect y="1" width="1" height="1" fill="#CACACA"/>
          <rect x="1" y="2" width="1" height="2" fill="#CACACA"/>
          <rect x="2" y="4" width="1" height="1" fill="#CACACA"/>
          <rect x="3" y="5" width="1" height="1" fill="#CACACA"/>
          <rect x="4" y="6" width="2" height="1" fill="#CACACA"/>
          <rect width="2" height="1" transform="matrix(-1 0 0 1 12 6)" fill="#CACACA"/>
          <rect width="4" height="1" transform="matrix(-1 0 0 1 10 7)" fill="#CACACA"/>
          <rect x="8" y="1" width="1" height="1" fill="#F3EBED"/>
          <rect x="4" y="5" width="5" height="1" fill="#DDDDDD"/>
          <rect x="5" y="4" width="3" height="1" fill="#DDDDDD"/>
        </g>
      </g>
    </svg>
  </g>
</svg>
