<svg xmlns="http://www.w3.org/2000/svg" fill="none" overflow="visible"><style>
  @keyframes move-head {
  0% {
  -webkit-transform:translate(7px, 0px);
  -ms-transform:translate(7px, 0px);
  -o-transform:translate(7px, 0px);
  -moz-transform:translate(7px, 0px);
  transform:translate(7px, 0px);
  }
  50% {
  -webkit-transform:translate(7px, -0.5px);
  -ms-transform:translate(7px, -0.5px);
  -o-transform:translate(7px, -0.5px);
  -moz-transform:translate(7px, -0.5px);
  transform:translate(7px, -0.5px);
  }
  100% {
  -webkit-transform:translate(7px, 0px);
  -ms-transform:translate(7px, 0px);
  -o-transform:translate(7px, 0px);
  -moz-transform:translate(7px, 0px);
  transform:translate(7px, 0px);
  }
  }

  @keyframes move-14-logo {
  0% {
  -webkit-transform:translate(3px, 3px);
  -ms-transform:translate(3px, 3px);
  -o-transform:translate(3px, 3px);
  -moz-transform:translate(3px, 3px);
  transform:translate(3px, 3px);
  }
  50% {
  -webkit-transform:translate(3px, 2.5px);
  -ms-transform:translate(3px, 2.5px);
  -o-transform:translate(3px, 2.5px);
  -moz-transform:translate(3px, 2.5px);
  transform:translate(3px, 2.5px);
  }
  100% {
  -webkit-transform:translate(3px, 3px);
  -ms-transform:translate(3px, 3px);
  -o-transform:translate(3px, 3px);
  -moz-transform:translate(3px, 3px);
  transform:translate(3px, 3px);
  }
  }

  @keyframes move-leg {
  0% {
  -webkit-transform:rotate(0deg);
  -ms-transform:rotate(0deg);
  -o-transform:rotate(0deg);
  -moz-transform:rotate(0deg);
  transform:rotate(0deg);
  }
  50% {
  -webkit-transform:rotate(1deg);
  -ms-transform:rotate(1deg);
  -o-transform:rotate(1deg);
  -moz-transform:rotate(1deg);
  transform:rotate(1deg);
  }
  100% {
  -webkit-transform:rotate(0deg);
  -ms-transform:rotate(0deg);
  -o-transform:rotate(0deg);
  -moz-transform:rotate(0deg);
  transform:rotate(0deg);
  }
  }

  #head {
  animation-name:move-head;
  animation-duration:1s;
  animation-iteration-count:infinite;
  }

  #leg {
  animation-name:move-leg;
  animation-duration:0.5s;
  animation-iteration-count:360;
  animation-timing-function: ease-in;
  }

  #kotlin-14-logo {
  animation-name:move-14-logo;
  animation-duration:1s;
  animation-iteration-count:infinite;
  }
</style>

  <g id="goose-14" transform="translate(10, 10)">
    <svg width="600" height="300" viewBox="0 0 200 100" fill="none" overflow="visible">
      <g id="shadow" transform="translate(-4, -1)">
        <rect width="7.55862" height="1" transform="matrix(0.679659 0.733528 0.733528 -0.679659 3.95308 10.8252)" fill="#6F6F6F" fill-opacity="0.1"/>
        <rect width="7.55862" height="1" transform="matrix(0.679659 0.733528 0.733528 -0.679659 10.5548 4.70828)" fill="#6F6F6F" fill-opacity="0.1"/>
        <rect width="17.6368" height="4" transform="matrix(0.679659 0.733528 0.733528 -0.679659 2.72881 5.08992)" fill="#6F6F6F" fill-opacity="0.1"/>
        <rect width="15.1172" height="1" transform="matrix(0.679659 0.733528 0.733528 -0.679659 2.85149 6.69365)" fill="#6F6F6F" fill-opacity="0.1"/>
        <rect width="12.5977" height="1" transform="matrix(0.679659 0.733528 0.733528 -0.679659 2.97418 8.29739)" fill="#6F6F6F" fill-opacity="0.1"/>
        <rect width="15.1172" height="1" transform="matrix(0.679659 0.733528 0.733528 -0.679659 6.51913 3.29536)" fill="#6F6F6F" fill-opacity="0.1"/>
        <rect width="12.5977" height="1" transform="matrix(0.679659 0.733528 0.733528 -0.679659 8.10888 3.53978)" fill="#6F6F6F" fill-opacity="0.1"/>
      </g>
      <g id="head" transform="translate(7)">
        <rect x="1" y="1" width="6" height="11" fill="white"/>
        <rect width="3" height="2" transform="matrix(-1 0 0 1 8 4)" fill="#FFA713"/>
        <rect width="3" height="2" transform="matrix(-1 0 0 1 9 5)" fill="#FFA713"/>
        <rect width="2" height="1" transform="matrix(-1 0 0 1 9 7)" fill="#FFA713"/>
        <rect width="1" height="1" transform="matrix(-1 0 0 1 7 3)" fill="#FFA713"/>
        <rect width="1" height="1" transform="matrix(-1 0 0 1 10 6)" fill="#FFA713"/>
        <rect x="3" y="3" width="1" height="1" fill="black"/>
        <rect x="6" y="2" width="1" height="1" fill="black"/>
        <rect width="1" height="1" transform="matrix(-1 0 0 1 2 1)" fill="#D9D9D9"/>
        <rect width="1" height="10" transform="matrix(-1 0 0 1 1 2)" fill="#D9D9D9"/>
        <rect width="1" height="3" transform="matrix(-1 0 0 1 8 8)" fill="#D9D9D9"/>
        <rect width="1" height="1" transform="matrix(-1 0 0 1 7 1)" fill="#D9D9D9"/>
        <rect width="1" height="2" transform="matrix(-1 0 0 1 8 2)" fill="#D9D9D9"/>
        <rect width="4" height="1" transform="matrix(-1 0 0 1 6 0)" fill="#D9D9D9"/>
      </g>
      <g id="leg">
        <g id="leg-in" transform="translate(5,8)">
          <rect width="2" height="4" transform="matrix(-1 0 0 1 2 0)" fill="#FFA713"/>
        </g>
      </g>
      <g id="body">
        <rect width="4" height="1" transform="matrix(-1 0 0 1 6 0)" fill="#D9D9D9"/>
        <rect width="6" height="1" transform="matrix(-1 0 0 1 7 1)" fill="#D9D9D9"/>
        <rect width="8" height="1" transform="matrix(-1 0 0 1 8 2)" fill="#D9D9D9"/>
        <rect width="8" height="1" transform="matrix(-1 0 0 1 8 3)" fill="#D9D9D9"/>
        <rect width="9" height="1" transform="matrix(-1 0 0 1 9 4)" fill="#D9D9D9"/>
        <rect width="8" height="1" transform="matrix(-1 0 0 1 9 5)" fill="#D9D9D9"/>
        <rect width="8" height="1" transform="matrix(-1 0 0 1 10 6)" fill="#D9D9D9"/>
        <rect width="9" height="1" transform="matrix(-1 0 0 1 12 7)" fill="#D9D9D9"/>
        <rect width="11" height="1" transform="matrix(-1 0 0 1 15 8)" fill="#D9D9D9"/>
        <rect width="10" height="1" transform="matrix(-1 0 0 1 15 9)" fill="#D9D9D9"/>
        <rect width="9" height="1" transform="matrix(-1 0 0 1 15 10)" fill="#D9D9D9"/>
        <rect width="7" height="1" transform="matrix(-1 0 0 1 14 11)" fill="#D9D9D9"/>
        <rect width="5" height="1" transform="matrix(-1 0 0 1 13 12)" fill="#D9D9D9"/>
        <rect width="2" height="1" transform="matrix(-1 0 0 1 12 13)" fill="#D9D9D9"/>
        <rect x="1" y="2" width="6" height="3" fill="white"/>
        <rect x="1" y="2" width="6" height="3" fill="white"/>
        <rect x="2" y="1" width="4" height="1" fill="white"/>
        <rect x="2" y="1" width="4" height="1" fill="white"/>
        <rect x="2" y="3" width="6" height="3" fill="white"/>
        <rect x="2" y="3" width="6" height="3" fill="white"/>
        <rect x="3" y="4" width="6" height="3" fill="white"/>
        <rect x="3" y="4" width="6" height="3" fill="white"/>
        <rect x="4" y="5" width="6" height="3" fill="white"/>
        <rect x="4" y="5" width="6" height="3" fill="white"/>
        <rect x="5" y="6" width="6" height="3" fill="white"/>
        <rect x="5" y="6" width="6" height="3" fill="white"/>
        <rect x="6" y="7" width="6" height="3" fill="white"/>
        <rect x="6" y="7" width="6" height="3" fill="white"/>
        <rect x="7" y="8" width="7" height="3" fill="white"/>
        <rect x="7" y="8" width="7" height="3" fill="white"/>
        <rect x="8" y="9" width="5" height="3" fill="white"/>
        <rect x="8" y="9" width="5" height="3" fill="white"/>
        <rect x="10" y="12" width="2" height="1" fill="white"/>
        <rect x="10" y="12" width="2" height="1" fill="white"/>
      </g>

      <g id="kotlin-14-logo" transform="translate(3, 3)">
        <rect x="0.873688" y="6.57759" width="1.875" height="0.625" transform="rotate(-18 0.873688 6.57759)" fill="#3791FF"/>
        <rect x="2.43378" y="9.35651" width="3.75" height="0.625" transform="rotate(-18 2.43378 9.35651)" fill="#14A4FF"/>
        <rect x="0.680557" y="5.98318" width="2.5" height="0.625" transform="rotate(-18 0.680557 5.98318)" fill="#8068FF"/>
        <rect x="2.62692" y="9.95091" width="4.375" height="0.625" transform="rotate(-18 2.62692 9.95091)" fill="#00B2FF"/>
        <rect x="1.06683" y="7.172" width="1.25" height="0.625" transform="rotate(-18 1.06683 7.172)" fill="#14A4FF"/>
        <rect x="3.42947" y="8.37582" width="1.875" height="0.625" transform="rotate(-18 3.42947 8.37582)" fill="#3791FF"/>
        <rect x="1.25996" y="7.76641" width="0.625" height="0.625" transform="rotate(-18 1.25996 7.76641)" fill="#00B2FF"/>
        <rect x="3.83073" y="7.58828" width="0.625" height="0.625" transform="rotate(-18 3.83073 7.58828)" fill="#8068FF"/>
        <rect x="3.0582" y="5.21063" width="2.5" height="0.625" transform="rotate(-18 3.0582 5.21063)" fill="#FF8800"/>
        <rect x="2.65692" y="5.99818" width="2.5" height="0.625" transform="rotate(-18 2.65692 5.99818)" fill="#FF8800"/>
        <rect x="2.25565" y="6.78573" width="2.5" height="0.625" transform="rotate(-18 2.25565 6.78573)" fill="#FF8900"/>
        <rect x="1.85437" y="7.57327" width="2.5" height="0.625" transform="rotate(-18 1.85437 7.57327)" fill="#FA850F"/>
        <rect x="1.45309" y="8.36082" width="2.5" height="0.625" transform="rotate(-18 1.45309 8.36082)" fill="#F67428"/>
        <rect x="1.64624" y="8.95523" width="1.875" height="0.625" transform="rotate(-18 1.64624 8.95523)" fill="#E4715B"/>
        <rect x="1.83937" y="9.54964" width="1.25" height="0.625" transform="rotate(-18 1.83937 9.54964)" fill="#DE6B72"/>
        <rect x="2.0325" y="10.1441" width="0.625" height="0.625" transform="rotate(-18 2.0325 10.1441)" fill="#CD5CA8"/>
        <rect x="6.41652" y="5.43378" width="0.78125" height="3.125" transform="rotate(-18 6.41652 5.43378)" fill="black"/>
        <rect x="7.52167" y="6.30688" width="0.78125" height="0.78125" transform="rotate(-18 7.52167 6.30688)" fill="black"/>
        <rect x="7.65175" y="5.44315" width="0.78125" height="0.78125" transform="rotate(-18 7.65175 5.44315)" fill="black"/>
        <rect x="7.90254" y="4.95094" width="0.78125" height="0.78125" transform="rotate(-18 7.90254 4.95094)" fill="black"/>
        <rect x="8.01387" y="6.55767" width="0.78125" height="0.78125" transform="rotate(-18 8.01387 6.55767)" fill="black"/>
        <rect x="8.50609" y="6.80847" width="0.78125" height="0.78125" transform="rotate(-18 8.50609 6.80847)" fill="black"/>
        <rect x="8.99831" y="7.05927" width="0.78125" height="0.78125" transform="rotate(-18 8.99831 7.05927)" fill="black"/>
        <rect x="9.7507" y="5.58262" width="0.78125" height="1.5625" transform="rotate(-18 9.7507 5.58262)" fill="black"/>
        <rect x="11.2367" y="5.09978" width="0.78125" height="1.5625" transform="rotate(-18 11.2367 5.09978)" fill="black"/>
        <rect x="10.0015" y="5.0904" width="1.5625" height="0.78125" transform="rotate(-18 10.0015 5.0904)" fill="black"/>
        <rect x="10.4843" y="6.57643" width="1.5625" height="0.78125" transform="rotate(-18 10.4843 6.57643)" fill="black"/>
        <rect x="15.6948" y="3.65126" width="0.78125" height="1.95312" transform="rotate(-18 15.6948 3.65126)" fill="black"/>
        <rect x="15.3327" y="2.53674" width="0.78125" height="0.78125" transform="rotate(-18 15.3327 2.53674)" fill="black"/>
        <rect x="14.2182" y="2.89887" width="0.78125" height="3.125" transform="rotate(-18 14.2182 2.89887)" fill="black"/>
        <rect x="16.6886" y="2.91763" width="0.78125" height="2.34375" transform="rotate(-18 16.6886 2.91763)" fill="black"/>
        <rect x="18.2953" y="2.80629" width="0.78125" height="1.95312" transform="rotate(-18 18.2953 2.80629)" fill="black"/>
        <rect x="17.8031" y="2.5555" width="0.78125" height="0.78125" transform="rotate(-18 17.8031 2.5555)" fill="black"/>
        <rect x="17.1808" y="3.16842" width="0.78125" height="0.78125" transform="rotate(-18 17.1808 3.16842)" fill="black"/>
        <rect width="1.17188" height="0.390625" transform="matrix(-0.951057 0.309017 0.309017 0.951057 14.5709 5.24862)" fill="black"/>
        <rect width="0.78125" height="0.390625" transform="matrix(-0.951057 0.309017 0.309017 0.951057 14.3201 5.74084)" fill="black"/>
        <rect width="1.95312" height="0.390625" transform="matrix(-0.951057 0.309017 0.309017 0.951057 14.0881 3.7626)" fill="black"/>
        <rect width="0.390625" height="0.390625" transform="matrix(-0.951057 0.309017 0.309017 0.951057 14.4502 4.87711)" fill="black"/>
        <rect width="0.78125" height="2.34375" transform="matrix(-0.951057 0.309017 0.309017 0.951057 13.2243 3.63251)" fill="black"/>
      </g>
    </svg>
  </g>
</svg>
