<svg xmlns="http://www.w3.org/2000/svg" fill="none" overflow="visible"><style>
  @keyframes move-head {
  0% {
  -webkit-transform:translate(7px, 0px);
  -ms-transform:translate(7px, 0px);
  -o-transform:translate(7px, 0px);
  -moz-transform:translate(7px, 0px);
  transform:translate(7px, 0px);
  }
  50% {
  -webkit-transform:translate(7px, -0.5px);
  -ms-transform:translate(7px, -0.5px);
  -o-transform:translate(7px, -0.5px);
  -moz-transform:translate(7px, -0.5px);
  transform:translate(7px, -0.5px);
  }
  100% {
  -webkit-transform:translate(7px, 0px);
  -ms-transform:translate(7px, 0px);
  -o-transform:translate(7px, 0px);
  -moz-transform:translate(7px, 0px);
  transform:translate(7px, 0px);
  }
  }

  @keyframes move-14-logo {
  0% {
  -webkit-transform:translate(6px, 3px);
  -ms-transform:translate(6px, 3px);
  -o-transform:translate(6px, 3px);
  -moz-transform:translate(6px, 3px);
  transform:translate(6px, 3px);
  }
  50% {
  -webkit-transform:translate(6px, 2.5px);
  -ms-transform:translate(6px, 2.5px);
  -o-transform:translate(6px, 2.5px);
  -moz-transform:translate(6px, 2.5px);
  transform:translate(6px, 2.5px);
  }
  100% {
  -webkit-transform:translate(6px, 3px);
  -ms-transform:translate(6px, 3px);
  -o-transform:translate(6px, 3px);
  -moz-transform:translate(6px, 3px);
  transform:translate(6px, 3px);
  }
  }

  @keyframes move-leg {
  0% {
  -webkit-transform:rotate(0deg);
  -ms-transform:rotate(0deg);
  -o-transform:rotate(0deg);
  -moz-transform:rotate(0deg);
  transform:rotate(0deg);
  }
  50% {
  -webkit-transform:rotate(1deg);
  -ms-transform:rotate(1deg);
  -o-transform:rotate(1deg);
  -moz-transform:rotate(1deg);
  transform:rotate(1deg);
  }
  100% {
  -webkit-transform:rotate(0deg);
  -ms-transform:rotate(0deg);
  -o-transform:rotate(0deg);
  -moz-transform:rotate(0deg);
  transform:rotate(0deg);
  }
  }

  #head {
  animation-name:move-head;
  animation-duration:1s;
  animation-iteration-count:infinite;
  }

  #leg {
  animation-name:move-leg;
  animation-duration:0.5s;
  animation-iteration-count:360;
  animation-timing-function: ease-in;
  }

  #node-14-logo {
  animation-name:move-14-logo;
  animation-duration:1s;
  animation-iteration-count:infinite;
  }
</style>

  <g id="goose-14" transform="translate(10, 10)">
    <svg width="600" height="300" viewBox="0 0 200 100" fill="none" overflow="visible">
      <g id="shadow" transform="translate(-4, -1)">
        <rect width="7.55862" height="1" transform="matrix(0.679659 0.733528 0.733528 -0.679659 3.95308 10.8252)" fill="#6F6F6F" fill-opacity="0.1"/>
        <rect width="7.55862" height="1" transform="matrix(0.679659 0.733528 0.733528 -0.679659 10.5548 4.70828)" fill="#6F6F6F" fill-opacity="0.1"/>
        <rect width="17.6368" height="4" transform="matrix(0.679659 0.733528 0.733528 -0.679659 2.72881 5.08992)" fill="#6F6F6F" fill-opacity="0.1"/>
        <rect width="15.1172" height="1" transform="matrix(0.679659 0.733528 0.733528 -0.679659 2.85149 6.69365)" fill="#6F6F6F" fill-opacity="0.1"/>
        <rect width="12.5977" height="1" transform="matrix(0.679659 0.733528 0.733528 -0.679659 2.97418 8.29739)" fill="#6F6F6F" fill-opacity="0.1"/>
        <rect width="15.1172" height="1" transform="matrix(0.679659 0.733528 0.733528 -0.679659 6.51913 3.29536)" fill="#6F6F6F" fill-opacity="0.1"/>
        <rect width="12.5977" height="1" transform="matrix(0.679659 0.733528 0.733528 -0.679659 8.10888 3.53978)" fill="#6F6F6F" fill-opacity="0.1"/>
      </g>
      <g id="head" transform="translate(7)">
        <rect x="1" y="1" width="6" height="11" fill="white"/>
        <rect width="3" height="2" transform="matrix(-1 0 0 1 8 4)" fill="#FFA713"/>
        <rect width="3" height="2" transform="matrix(-1 0 0 1 9 5)" fill="#FFA713"/>
        <rect width="2" height="1" transform="matrix(-1 0 0 1 9 7)" fill="#FFA713"/>
        <rect width="1" height="1" transform="matrix(-1 0 0 1 7 3)" fill="#FFA713"/>
        <rect width="1" height="1" transform="matrix(-1 0 0 1 10 6)" fill="#FFA713"/>
        <rect x="3" y="3" width="1" height="1" fill="black"/>
        <rect x="6" y="2" width="1" height="1" fill="black"/>
        <rect width="1" height="1" transform="matrix(-1 0 0 1 2 1)" fill="#D9D9D9"/>
        <rect width="1" height="10" transform="matrix(-1 0 0 1 1 2)" fill="#D9D9D9"/>
        <rect width="1" height="3" transform="matrix(-1 0 0 1 8 8)" fill="#D9D9D9"/>
        <rect width="1" height="1" transform="matrix(-1 0 0 1 7 1)" fill="#D9D9D9"/>
        <rect width="1" height="2" transform="matrix(-1 0 0 1 8 2)" fill="#D9D9D9"/>
        <rect width="4" height="1" transform="matrix(-1 0 0 1 6 0)" fill="#D9D9D9"/>
      </g>
      <g id="leg">
        <g id="leg-in" transform="translate(5,8)">
          <rect width="2" height="4" transform="matrix(-1 0 0 1 2 0)" fill="#FFA713"/>
        </g>
      </g>
      <g id="body">
        <rect width="4" height="1" transform="matrix(-1 0 0 1 6 0)" fill="#D9D9D9"/>
        <rect width="6" height="1" transform="matrix(-1 0 0 1 7 1)" fill="#D9D9D9"/>
        <rect width="8" height="1" transform="matrix(-1 0 0 1 8 2)" fill="#D9D9D9"/>
        <rect width="8" height="1" transform="matrix(-1 0 0 1 8 3)" fill="#D9D9D9"/>
        <rect width="9" height="1" transform="matrix(-1 0 0 1 9 4)" fill="#D9D9D9"/>
        <rect width="8" height="1" transform="matrix(-1 0 0 1 9 5)" fill="#D9D9D9"/>
        <rect width="8" height="1" transform="matrix(-1 0 0 1 10 6)" fill="#D9D9D9"/>
        <rect width="9" height="1" transform="matrix(-1 0 0 1 12 7)" fill="#D9D9D9"/>
        <rect width="11" height="1" transform="matrix(-1 0 0 1 15 8)" fill="#D9D9D9"/>
        <rect width="10" height="1" transform="matrix(-1 0 0 1 15 9)" fill="#D9D9D9"/>
        <rect width="9" height="1" transform="matrix(-1 0 0 1 15 10)" fill="#D9D9D9"/>
        <rect width="7" height="1" transform="matrix(-1 0 0 1 14 11)" fill="#D9D9D9"/>
        <rect width="5" height="1" transform="matrix(-1 0 0 1 13 12)" fill="#D9D9D9"/>
        <rect width="2" height="1" transform="matrix(-1 0 0 1 12 13)" fill="#D9D9D9"/>
        <rect x="1" y="2" width="6" height="3" fill="white"/>
        <rect x="1" y="2" width="6" height="3" fill="white"/>
        <rect x="2" y="1" width="4" height="1" fill="white"/>
        <rect x="2" y="1" width="4" height="1" fill="white"/>
        <rect x="2" y="3" width="6" height="3" fill="white"/>
        <rect x="2" y="3" width="6" height="3" fill="white"/>
        <rect x="3" y="4" width="6" height="3" fill="white"/>
        <rect x="3" y="4" width="6" height="3" fill="white"/>
        <rect x="4" y="5" width="6" height="3" fill="white"/>
        <rect x="4" y="5" width="6" height="3" fill="white"/>
        <rect x="5" y="6" width="6" height="3" fill="white"/>
        <rect x="5" y="6" width="6" height="3" fill="white"/>
        <rect x="6" y="7" width="6" height="3" fill="white"/>
        <rect x="6" y="7" width="6" height="3" fill="white"/>
        <rect x="7" y="8" width="7" height="3" fill="white"/>
        <rect x="7" y="8" width="7" height="3" fill="white"/>
        <rect x="8" y="9" width="5" height="3" fill="white"/>
        <rect x="8" y="9" width="5" height="3" fill="white"/>
        <rect x="10" y="12" width="2" height="1" fill="white"/>
        <rect x="10" y="12" width="2" height="1" fill="white"/>
      </g>

      <g id="node-14-logo" transform="translate(3, 3)">
        <rect width="1.25" height="5" transform="matrix(-0.951057 0.309017 0.309017 0.951057 11.8882 1.35194)" fill="black"/>
        <rect width="1.875" height="0.625" transform="matrix(-0.951057 0.309017 0.309017 0.951057 11.0857 2.92703)" fill="black"/>
        <rect width="0.625" height="0.625" transform="matrix(-0.951057 0.309017 0.309017 0.951057 10.6694 5.69095)" fill="black"/>
        <rect width="0.625" height="0.625" transform="matrix(-0.951057 0.309017 0.309017 0.951057 11.8582 5.30467)" fill="black"/>
        <rect width="1.25" height="0.625" transform="matrix(-0.951057 0.309017 0.309017 0.951057 11.4569 6.09222)" fill="black"/>
        <rect width="1.25" height="2.5" transform="matrix(-0.951057 0.309017 0.309017 0.951057 10.09 3.90771)" fill="black"/>
        <rect width="1.25" height="3.125" transform="matrix(-0.951057 0.309017 0.309017 0.951057 14.0577 1.96135)" fill="black"/>
        <rect x="17.5942" y="4.75528" width="3.125" height="0.625" transform="rotate(162 17.5942 4.75528)" fill="black"/>
        <rect width="0.625" height="0.625" transform="matrix(0.951057 -0.309017 -0.309017 -0.951057 16.8066 4.354)" fill="black"/>
        <rect width="0.625" height="0.625" transform="matrix(0.951057 -0.309017 -0.309017 -0.951057 15.0234 4.93341)" fill="black"/>
        <rect width="2.5" height="0.625" transform="matrix(-0.951057 0.309017 0.309017 0.951057 15.6478 0.787537)" fill="black"/>
        <rect width="1.875" height="0.625" transform="matrix(-0.951057 0.309017 0.309017 0.951057 16.2272 2.57077)" fill="black"/>
        <rect width="1.25" height="1.875" transform="matrix(-0.951057 0.309017 0.309017 0.951057 16.4353 1.18881)" fill="black"/>
        <rect x="0.386276" y="6.40347" width="1.25" height="3.75" transform="rotate(-18 0.386276 6.40347)" fill="black"/>
        <rect x="2.95706" y="6.22534" width="1.25" height="3.125" transform="rotate(-18 2.95706 6.22534)" fill="black"/>
        <rect x="2.16951" y="5.82407" width="1.25" height="1.25" transform="rotate(-18 2.16951 5.82407)" fill="black"/>
        <rect x="1.17381" y="6.80475" width="1.25" height="1.25" transform="rotate(-18 1.17381 6.80475)" fill="black"/>
        <rect x="5.33469" y="5.4528" width="2.5" height="2.5" transform="rotate(-18 5.33469 5.4528)" fill="#70BB51"/>
        <rect x="5.73596" y="4.66527" width="1.25" height="3.75" transform="rotate(-18 5.73596 4.66527)" fill="#70BB51"/>
        <rect x="4.93341" y="6.24036" width="3.75" height="1.25" transform="rotate(-18 4.93341 6.24036)" fill="#70BB51"/>
        <rect x="14.0577" y="1.96136" width="1.25" height="1.25" transform="rotate(-18 14.0577 1.96136)" fill="#70BB51"/>
      </g>
    </svg>
  </g>
</svg>
