<svg xmlns="http://www.w3.org/2000/svg" fill="none" overflow="visible"><style>
  @keyframes hamster-0-floating {
  0% {
  transform: translate(0px, 0px);
  }
  33% {
  transform: translate(0px, -1.5px);
  }
  66% {
  transform: translate(0px, 1.5px),
  }
  100% {
  transform: translate(0px, 0px);
  }
  }

  @keyframes hamster-0-hand-left-move {
  0% {
  transform: translate(9px, 2px);
  }
  50% {
  transform: translate(9px, 2.5px);
  }
  100% {
  transform: translate(9px, 2px);
  }
  }

  @keyframes hamster-0-hand-right-move {
  0% {
  transform: translate(11px, 2px);
  }
  50% {
  transform: translate(11px, 1.5px);
  }
  100% {
  transform: translate(11px, 2px);
  }
  }

  #hamster-0-wrap {
  animation-name:hamster-0-floating;
  animation-duration:1s;
  animation-iteration-count:infinite;
  animation-timing-function: ease-in-out;
  }

  #hamster-0-hand-left {
  animation-name:hamster-0-hand-left-move;
  animation-duration:0.3s;
  animation-iteration-count: infinite;
  }

  #hamster-0-hand-right {
  animation-name:hamster-0-hand-right-move;
  animation-duration:0.3s;
  animation-iteration-count: infinite;
  }

</style>
  <g id="hamster-0" transform="translate(5, 20)">
    <g id="id">0</g>
    <svg width="600" height="300" viewBox="0 0 200 100" fill="none" overflow="visible">

      <g id="hamster-0-water-top" transform="translate(-2, -1)">
        <rect x="-1.71661e-05" y="1.76001" width="17.6103" height="2.64" fill="#5FC4FF" fill-opacity="0.7"/>
        <rect x="1.46752" y="0.880005" width="14.6753" height="0.88" fill="#5FC4FF" fill-opacity="0.7"/>
        <rect x="2.93502" width="11.7402" height="0.88" fill="#5FC4FF" fill-opacity="0.7"/>
        <rect x="15.4" y="3.30005" width="2.2" height="1.03064" fill="#0059FF" fill-opacity="0.1"/>
        <rect x="1.1" y="2.19995" width="2.2" height="1.03064" fill="#0059FF" fill-opacity="0.1"/>
        <rect x="4.4" y="1.09998" width="2.2" height="1.03064" fill="#0059FF" fill-opacity="0.1"/>
        <rect x="5.5" width="3.3" height="1.1" fill="#0059FF" fill-opacity="0.1"/>
      </g>

      <g id="hamster-0-wrap">
        <g id="hamster-0-body" transform="translate(0, 0)">
          <rect x="7" y="8" width="3" height="1" fill="#FBB3BE"/>
          <rect x="11" y="7" width="3" height="1" fill="#FBB3BE"/>
          <rect x="1" y="3" width="2" height="4" fill="#FFE1BF"/>
          <rect x="2" y="3" width="10" height="5" fill="#FFE1BF"/>
          <rect x="4" width="4" height="9" fill="#FFE1BF"/>
          <rect x="8" width="4" height="8" fill="#FFE1BF"/>
          <rect x="4" y="8" width="4" height="1" fill="#F8D196"/>
          <rect x="2" y="7" width="4" height="1" fill="#F8D196"/>
          <rect x="1" y="3" width="1" height="3" fill="#F8D196"/>
          <rect x="2" y="2" width="1" height="3" fill="#F8D196"/>
          <rect x="1" y="3" width="3" height="2" fill="#F8D196"/>
          <rect x="2" y="3" width="1" height="3" fill="#F8D196"/>
          <rect x="4" y="1" width="1" height="3" fill="#F8D196"/>
          <rect y="6" width="2" height="1" fill="#F8D196"/>
          <rect y="6" width="1" height="1" fill="black" fill-opacity="0.1"/>
          <rect x="1" y="6" width="1" height="1" fill="black" fill-opacity="0.1"/>
          <rect y="6" width="1" height="1" fill="black" fill-opacity="0.1"/>
          <rect x="2" y="7" width="2" height="1" fill="black" fill-opacity="0.1"/>
          <rect x="4" y="8" width="1" height="1" fill="black" fill-opacity="0.1"/>
          <rect x="9" y="7" width="3" height="1" fill="#FFE9D0"/>
          <rect x="10" y="6" width="2" height="1" fill="#FFE9D0"/>
          <rect x="11" y="5" width="1" height="1" fill="#FFE9D0"/>
        </g>
        <g id="hamster-0-head" transform="translate(2, -5)">
          <rect x="2" width="2" height="1" fill="#F8D196"/>
          <rect x="2" width="2" height="4" fill="#F8D196"/>
          <rect x="6" y="1" width="3" height="3" fill="#F8D196"/>
          <rect x="6" width="2" height="3" fill="#F8D196"/>
          <rect x="2" y="1" width="7" height="5" fill="#F8D196"/>
          <rect x="4" y="2" width="7" height="5" fill="#F8D196"/>
          <rect x="5" y="3" width="7" height="4" fill="#F8D196"/>
          <rect x="1" y="3" width="7" height="4" fill="#F8D196"/>
          <rect x="1" y="4" width="5" height="4" fill="#F8D196"/>
          <rect y="4" width="6" height="3" fill="#F8D196"/>
          <rect x="6" y="3" width="1" height="1" fill="black"/>
          <rect x="9" y="3" width="1" height="1" fill="black"/>
          <rect x="6" width="1" height="1" fill="black" fill-opacity="0.1"/>
          <rect x="1" y="7" width="2" height="1" fill="black" fill-opacity="0.1"/>
          <rect y="5" width="1" height="1" fill="black" fill-opacity="0.1"/>
          <rect width="1" height="1" transform="matrix(1 0 0 -1 0 7)" fill="black" fill-opacity="0.1"/>
          <rect x="5" y="6" width="6" height="2" fill="#FED9AF"/>
          <rect x="4" y="7" width="6" height="1" fill="#FED9AF"/>
          <rect x="10" y="5" width="2" height="2" fill="#FED9AF"/>
          <rect x="3" width="1" height="1" fill="#FBB3BE"/>
          <rect x="7" width="1" height="1" fill="#FBB3BE"/>
          <rect x="8" y="5" width="1" height="1" fill="#765D49"/>
        </g>
        <g id="hamster-0-hand-right" transform="translate(11, 2)">
          <rect y="0.333313" width="2" height="1.33333" fill="#FBB3BE"/>
          <rect x="0.333344" width="1.33333" height="2" fill="#FBB3BE"/>
        </g>

        <g id="hamster-0-amond" transform="translate(10, 1)">
          <rect x="0.75" width="0.5" height="3.75" fill="#846560"/>
          <rect x="0.499969" y="0.25" width="1" height="3.25" fill="#846560"/>
          <rect width="1.5" height="0.25" transform="matrix(1 0 0 -1 0.250031 3.5)" fill="#846560"/>
          <rect width="1" height="0.25" transform="matrix(1 0 0 -1 0.499969 3.75)" fill="#846560"/>
          <rect x="0.250031" y="0.75" width="1.5" height="2.5" fill="#846560"/>
          <rect y="2.75" width="2" height="0.5" fill="#846560"/>
          <rect y="1.5" width="2" height="1.5" fill="#846560"/>
          <rect x="0.499969" y="0.75" width="0.25" height="0.75" fill="#C09890"/>
          <rect x="0.999939" y="0.75" width="0.25" height="0.75" fill="#C09890"/>
          <rect x="1.50003" y="0.75" width="0.25" height="0.75" fill="#C09890"/>
          <rect width="0.25" height="0.25" transform="matrix(1 0 0 -1 0.499969 3.5)" fill="#C09890"/>
          <rect width="0.25" height="0.25" transform="matrix(1 0 0 -1 0.999939 3.5)" fill="#C09890"/>
          <rect width="0.25" height="0.25" transform="matrix(1 0 0 -1 1.50003 3.5)" fill="#C09890"/>
          <rect x="0.250031" y="1.5" width="0.25" height="1.75" fill="#C09890"/>
          <rect x="0.75" y="1.5" width="0.25" height="1.75" fill="#C09890"/>
          <rect x="1.25" y="1.5" width="0.25" height="1.75" fill="#C09890"/>
          <rect x="1.74997" y="1.5" width="0.25" height="1.75" fill="#C09890"/>
          <rect x="1.25" y="1.5" width="0.25" height="1.75" fill="#FFF9F0"/>
          <rect x="0.999939" y="0.75" width="0.25" height="0.75" fill="#FFF9F0"/>
          <rect x="0.999939" y="0.25" width="0.25" height="0.5" fill="#FFF9F0"/>
          <rect x="0.75" width="0.25" height="0.25" fill="#FFF9F0"/>
          <rect x="0.499969" y="0.25" width="0.25" height="1.25" fill="#FFF9F0"/>
          <rect x="0.75" y="1.5" width="0.25" height="1.75" fill="#FFF9F0"/>
          <rect x="0.250031" y="1.5" width="0.25" height="1.75" fill="#FFF9F0"/>
          <rect x="1.74997" y="1.5" width="0.25" height="1.75" fill="#FFF9F0"/>
          <rect x="1.50003" y="0.75" width="0.25" height="0.75" fill="#FFF9F0"/>
          <rect x="1.50003" y="3.25" width="0.25" height="0.25" fill="#FFF9F0"/>
          <rect x="0.999939" y="3.25" width="0.25" height="0.25" fill="#FFF9F0"/>
          <rect x="0.499969" y="3.25" width="0.25" height="0.25" fill="#FFF9F0"/>
        </g>

        <g id="hamster-0-hand-left" transform="translate(9, 2.5)">
          <rect y="0.833313" width="2" height="1.33333" fill="#FBB3BE"/>
          <rect x="0.333344" y="0.5" width="1.33333" height="2" fill="#FBB3BE"/>
        </g>
      </g>
      <g id="hamster-0-watter-bottom" transform="translate(-2, 2.95)">
        <rect width="17.6103" height="3.96" transform="matrix(1 0 0 -1 1.71661e-05 4.35999)" fill="#5FC4FF" fill-opacity="0.7"/>
        <rect width="14.6753" height="1.32" transform="matrix(1 0 0 -1 1.46751 5.68018)" fill="#5FC4FF" fill-opacity="0.7"/>
        <rect width="11.7402" height="1.32" transform="matrix(1 0 0 -1 2.93499 7)" fill="#5FC4FF" fill-opacity="0.7"/>
        <rect x="10.7906" y="4.9281" width="3.3" height="1.03064" fill="#0059FF" fill-opacity="0.1"/>
        <rect x="4.4" y="5.90002" width="2.2" height="1.03064" fill="#0059FF" fill-opacity="0.1"/>
        <rect y="2.59998" width="2.2" height="1.03064" fill="#0059FF" fill-opacity="0.1"/>
        <rect x="5.29058" y="4.9281" width="2.2" height="1.03064" fill="#0059FF" fill-opacity="0.1"/>
        <rect x="14.3" y="2.59998" width="2.2" height="1.03064" fill="#0059FF" fill-opacity="0.1"/>
        <rect x="9.69058" y="5.95874" width="3.3" height="1.03064" fill="#0059FF" fill-opacity="0.1"/>
      </g>
      <g id="hamster-0-tube" transform="translate(-0.5, -3.8)">
        <rect x="1.70119" y="6.31287" width="1.16132" height="8.12925" transform="rotate(-47.4317 1.70119 6.31287)" fill="#F8F8F8"/>
        <rect x="1.77087" y="7.95361" width="3.48396" height="1.16132" transform="rotate(-47.4317 1.77087 7.95361)" fill="#F8F8F8"/>
        <rect x="1.84055" y="9.59448" width="3.48396" height="3.48396" transform="rotate(-47.4317 1.84055 9.59448)" fill="#F8F8F8"/>
        <rect x="1.77087" y="7.95361" width="2.32264" height="4.64529" transform="rotate(-47.4317 1.77087 7.95361)" fill="#F8F8F8"/>
        <rect x="4.33674" y="10.3104" width="3.48396" height="2.32264" transform="rotate(-47.4317 4.33674 10.3104)" fill="#F8F8F8"/>
        <rect x="5.97753" y="10.2407" width="3.48396" height="2.32264" transform="rotate(-47.4317 5.97753 10.2407)" fill="#F8F8F8"/>
        <rect x="7.61843" y="10.1711" width="4.64529" height="2.32264" transform="rotate(-47.4317 7.61843 10.1711)" fill="#F8F8F8"/>
        <rect x="10.0449" y="9.24609" width="3.48396" height="2.32264" transform="rotate(-47.4317 10.0449 9.24609)" fill="#F8F8F8"/>
        <rect x="8.47372" y="10.9567" width="6.96793" height="1.16132" transform="rotate(-47.4317 8.47372 10.9567)" fill="#F8F8F8"/>
        <rect x="1.70119" y="6.31287" width="1.16132" height="1.16132" transform="rotate(-47.4317 1.70119 6.31287)" fill="#6DB33F"/>
        <rect x="3.55113" y="11.1656" width="4.64529" height="1.16132" transform="rotate(-47.4317 3.55113 11.1656)" fill="#6DB33F"/>
        <rect x="1.84055" y="9.59448" width="3.48396" height="1.16132" transform="rotate(-47.4317 1.84055 9.59448)" fill="#6DB33F"/>
        <rect x="6.83282" y="11.0264" width="5.80661" height="1.16132" transform="rotate(-47.4317 6.83282 11.0264)" fill="#6DB33F"/>
        <rect x="10.9002" y="10.0317" width="3.48396" height="1.16132" transform="rotate(-47.4317 10.9002 10.0317)" fill="#6DB33F"/>
        <rect x="3.34209" y="6.24304" width="1.16132" height="1.16132" transform="rotate(-47.4317 3.34209 6.24304)" fill="black" fill-opacity="0.1"/>
        <rect x="3.41177" y="7.88403" width="1.16132" height="1.16132" transform="rotate(-47.4317 3.41177 7.88403)" fill="black" fill-opacity="0.1"/>
        <rect x="4.26706" y="8.66968" width="1.16132" height="1.16132" transform="rotate(-47.4317 4.26706 8.66968)" fill="black" fill-opacity="0.1"/>
        <rect x="5.90786" y="8.59985" width="1.16132" height="1.16132" transform="rotate(-47.4317 5.90786 8.59985)" fill="black" fill-opacity="0.1"/>
        <rect x="7.54875" y="8.53015" width="1.16132" height="1.16132" transform="rotate(-47.4317 7.54875 8.53015)" fill="black" fill-opacity="0.1"/>
        <rect x="9.18965" y="8.46045" width="2.32264" height="1.16132" transform="rotate(-47.4317 9.18965 8.46045)" fill="black" fill-opacity="0.1"/>
        <rect x="11.6162" y="7.53564" width="2.32264" height="1.16132" transform="rotate(-47.4317 11.6162 7.53564)" fill="black" fill-opacity="0.1"/>
      </g>
    </svg>
  </g>
</svg>
