<svg xmlns="http://www.w3.org/2000/svg" fill="none" overflow="visible"><style>
  @keyframes little-chick-move-head {
  0% {
  -webkit-transform:translate(6px, -2px) rotate(0deg);
  -ms-transform:translate(6px, -2px) rotate(0deg);
  -o-transform:translate(6px, -2px) rotate(0deg);
  -moz-transform:translate(6px, -2px) rotate(0deg);
  transform:translate(6px, -2px) rotate(0deg);
  }
  50% {
  -webkit-transform:translate(8px, -2.2px) rotate(21deg);
  -ms-transform:translate(8px, -2.2px) rotate(21deg);
  -o-transform:translate(8px, -2.2px) rotate(21deg);
  -moz-transform:translate(8px, -2.2px) rotate(21deg);
  transform:translate(8px, -2.2px) rotate(21deg);
  }
  100% {
  -webkit-transform:translate(6px, -2px) rotate(0deg);
  -ms-transform:translate(6px, -2px) rotate(0deg);
  -o-transform:translate(6px, -2px) rotate(0deg);
  -moz-transform:translate(6px, -2px) rotate(0deg);
  transform:translate(6px, -2px) rotate(0deg);
  }
  }

  @keyframes little-chick-move-leg {
  0% {
  -webkit-transform:translate(2px, 6px) rotate(0deg);
  -ms-transform:translate(2px, 6px) rotate(0deg);
  -o-transform:translate(2px, 6px) rotate(0deg);
  -moz-transform:translate(2px, 6px) rotate(0deg);
  transform:translate(2px, 6px) rotate(0deg);
  }
  50% {
  -webkit-transform:translate(2px, 6px) rotate(3deg);
  -ms-transform:translate(2px, 6px) rotate(3deg);
  -o-transform:translate(2px, 6px) rotate(3deg);
  -moz-transform:translate(2px, 6px) rotate(3deg);
  transform:translate(2px, 6px) rotate(3deg);
  }
  100% {
  -webkit-transform:translate(2px, 6px) rotate(0deg);
  -ms-transform:translate(2px, 6px) rotate(0deg);
  -o-transform:translate(2px, 6px) rotate(0deg);
  -moz-transform:translate(2px, 6px) rotate(0deg);
  transform:translate(2px, 6px) rotate(0deg);
  }
  }

  #little-chick-head {
  animation-name:little-chick-move-head;
  animation-duration:1s;
  animation-iteration-count:infinite;
  }

  #little-chick-leg {
  animation-name:little-chick-move-leg;
  animation-duration:0.5s;
  animation-iteration-count:360;
  animation-timing-function: ease-in;
  }
</style>

  <g id="little-chick-14" transform="translate(10, 10)">
    <svg xmlns="http://www.w3.org/2000/svg" width="600" height="300" viewBox="0 0 300 150" fill="none" overflow="visible">
      <g id="little-chick-shadow" transform="translate(-2, 2)">
        <rect width="12" height="3" transform="matrix(0.707107 0.707107 0.707107 -0.707107 1.41422 2.12132)" fill="#6F6F6F" fill-opacity="0.1"/>
        <rect width="10" height="1" transform="matrix(0.707107 0.707107 0.707107 -0.707107 1.41422 3.53553)" fill="#6F6F6F" fill-opacity="0.1"/>
        <rect width="8" height="1" transform="matrix(0.707107 0.707107 0.707107 -0.707107 1.41422 4.94975)" fill="#6F6F6F" fill-opacity="0.1"/>
      </g>

      <g id="little-chick-leg" transform="translate(2, 6)">
        <rect width="2" height="2" fill="#FF6F0F"/>
        <rect x="1" y="1" width="2" height="1" fill="#FF6F0F"/>
      </g>

      <g id="little-chick-body">
        <rect width="6" height="1" transform="matrix(-1 0 0 1 7 4)" fill="#FFD600"/>
        <rect x="3" y="5" width="5" height="2" fill="white"/>
        <rect x="3" y="5" width="5" height="2" fill="#FFD600"/>
        <rect width="9" height="3" transform="matrix(-1 0 0 1 12 4)" fill="#FFD600"/>
        <rect width="6" height="1" transform="matrix(-1 0 0 1 11 8)" fill="#FFD600"/>
        <rect width="7" height="1" transform="matrix(-1 0 0 1 11 7)" fill="#FFD600"/>
        <rect width="4" height="1" transform="matrix(-1 0 0 1 10 9)" fill="#FFD600"/>
        <rect width="6" height="1" transform="matrix(-1 0 0 1 7 1)" fill="#FFD600"/>
        <rect width="1" height="1" transform="matrix(-1 0 0 1 3 5)" fill="#FFD600"/>
        <rect width="3" height="1" transform="matrix(-1 0 0 1 5 0)" fill="#FFD600"/>
        <rect width="7" height="2" transform="matrix(-1 0 0 1 7 2)" fill="#FFD600"/>
        <rect x="1" y="2" width="5" height="2" fill="white"/>
        <rect x="1" y="2" width="5" height="2" fill="#FFD600"/>
        <rect x="2" y="1" width="3" height="2" fill="white"/>
        <rect x="2" y="1" width="3" height="2" fill="#FFD600"/>
        <rect x="2" y="3" width="5" height="2" fill="white"/>
        <rect x="2" y="3" width="5" height="2" fill="#FFD600"/>
        <rect x="4" y="2" width="7" height="5" fill="white"/>
        <rect x="4" y="2" width="7" height="5" fill="#FFD600"/>
        <rect x="5" y="7" width="5" height="1" fill="white"/>
        <rect x="5" y="7" width="5" height="1" fill="#FFD600"/>
        <rect x="6" y="8" width="4" height="1" fill="white"/>
        <rect x="6" y="8" width="4" height="1" fill="#FFD600"/>
      </g>

      <g id="little-chick-head" transform="translate(6,-2)">
        <rect x="1" y="1" width="4" height="6" fill="#FFD600"/>
        <rect x="2" y="3" width="1" height="1" fill="black"/>
        <rect x="4" y="2" width="1" height="1" fill="black"/>
        <rect width="1" height="4" transform="matrix(-1 0 0 1 1 1)" fill="#FFD600"/>
        <rect width="1" height="1" transform="matrix(-1 0 0 1 5 1)" fill="#FFD600"/>
        <rect width="1" height="4" transform="matrix(-1 0 0 1 6 2)" fill="#FFD600"/>
        <rect width="3" height="1" transform="matrix(-1 0 0 1 4 0)" fill="#FFD600"/>
        <rect x="4" y="4" width="2" height="2" fill="#FF6F0F"/>
        <rect x="5" y="5" width="2" height="1" fill="#FF6F0F"/>
      </g>
    </svg>
  </g>
</svg>
