<svg width="626" height="159" viewBox="0 0 626 159" fill="none" xmlns="http://www.w3.org/2000/svg">
<rect x="26" y="24" width="600" height="135" rx="5" fill="white"/>
<rect width="22.6716" height="2.99944" transform="matrix(0.679659 0.733528 0.733528 -0.679659 10.2727 31.4729)" fill="#6F6F6F" fill-opacity="0.1"/>
<rect width="22.6716" height="2.99944" transform="matrix(0.679659 0.733528 0.733528 -0.679659 30.0742 13.1255)" fill="#6F6F6F" fill-opacity="0.1"/>
<rect width="52.9005" height="11.9978" transform="matrix(0.679659 0.733528 0.733528 -0.679659 6.60052 14.2704)" fill="#6F6F6F" fill-opacity="0.1"/>
<rect width="45.3433" height="2.99944" transform="matrix(0.679659 0.733528 0.733528 -0.679659 6.96854 19.0804)" fill="#6F6F6F" fill-opacity="0.1"/>
<rect width="37.7861" height="2.99944" transform="matrix(0.679659 0.733528 0.733528 -0.679659 7.33652 23.8909)" fill="#6F6F6F" fill-opacity="0.1"/>
<rect width="45.3433" height="2.99944" transform="matrix(0.679659 0.733528 0.733528 -0.679659 17.9694 8.8877)" fill="#6F6F6F" fill-opacity="0.1"/>
<rect width="37.7861" height="2.99944" transform="matrix(0.679659 0.733528 0.733528 -0.679659 22.7378 9.62073)" fill="#6F6F6F" fill-opacity="0.1"/>
<rect width="5.99888" height="11.9978" transform="matrix(-1 0 0 1 28.41 25.9983)" fill="#FFA713"/>
<rect x="31.4095" y="5.0022" width="17.9967" height="32.9939" fill="white"/>
<rect width="8.99833" height="5.99888" transform="matrix(-1 0 0 1 52.4056 14.0006)" fill="#FFA713"/>
<rect width="8.99833" height="5.99888" transform="matrix(-1 0 0 1 55.405 17)" fill="#FFA713"/>
<rect width="5.99888" height="2.99944" transform="matrix(-1 0 0 1 55.405 22.9989)" fill="#FFA713"/>
<rect width="2.99944" height="2.99944" transform="matrix(-1 0 0 1 49.4061 11.0011)" fill="#FFA713"/>
<rect width="2.99944" height="2.99944" transform="matrix(-1 0 0 1 58.4044 19.9995)" fill="#FFA713"/>
<rect x="37.4084" y="11.0011" width="2.99944" height="2.99944" fill="black"/>
<rect x="46.4067" y="8.00171" width="2.99944" height="2.99944" fill="black"/>
<rect width="2.99944" height="2.99944" transform="matrix(-1 0 0 1 34.4089 5.0022)" fill="#D9D9D9"/>
<rect width="2.99944" height="29.9944" transform="matrix(-1 0 0 1 31.4095 8.00171)" fill="#D9D9D9"/>
<rect width="2.99944" height="8.99832" transform="matrix(-1 0 0 1 52.4056 25.9983)" fill="#D9D9D9"/>
<rect width="2.99944" height="2.99944" transform="matrix(-1 0 0 1 49.4061 5.0022)" fill="#D9D9D9"/>
<rect width="2.99944" height="5.99888" transform="matrix(-1 0 0 1 52.4056 8.00171)" fill="#D9D9D9"/>
<rect width="11.9978" height="2.99944" transform="matrix(-1 0 0 1 46.4067 2.00281)" fill="#D9D9D9"/>
<rect width="11.9978" height="2.99944" transform="matrix(-1 0 0 1 25.4106 2.00281)" fill="#D9D9D9"/>
<rect width="17.9967" height="2.99944" transform="matrix(-1 0 0 1 28.41 5.0022)" fill="#D9D9D9"/>
<rect width="23.9955" height="2.99944" transform="matrix(-1 0 0 1 31.4095 8.00171)" fill="#D9D9D9"/>
<rect width="23.9955" height="2.99944" transform="matrix(-1 0 0 1 31.4095 11.0011)" fill="#D9D9D9"/>
<rect width="26.995" height="2.99944" transform="matrix(-1 0 0 1 34.4089 14.0006)" fill="#D9D9D9"/>
<rect width="23.9955" height="2.99944" transform="matrix(-1 0 0 1 34.4089 17)" fill="#D9D9D9"/>
<rect width="23.9955" height="2.99944" transform="matrix(-1 0 0 1 37.4084 19.9995)" fill="#D9D9D9"/>
<rect width="26.995" height="2.99944" transform="matrix(-1 0 0 1 43.4072 22.9989)" fill="#D9D9D9"/>
<rect width="32.9939" height="2.99944" transform="matrix(-1 0 0 1 52.4056 25.9983)" fill="#D9D9D9"/>
<rect width="29.9944" height="2.99944" transform="matrix(-1 0 0 1 52.4056 28.9978)" fill="#D9D9D9"/>
<rect width="26.995" height="2.99944" transform="matrix(-1 0 0 1 52.4056 31.9972)" fill="#D9D9D9"/>
<rect width="20.9961" height="2.99944" transform="matrix(-1 0 0 1 49.4061 34.9967)" fill="#D9D9D9"/>
<rect width="14.9972" height="2.99944" transform="matrix(-1 0 0 1 46.4067 37.9961)" fill="#D9D9D9"/>
<rect width="5.99888" height="2.99944" transform="matrix(-1 0 0 1 43.4072 40.9955)" fill="#D9D9D9"/>
<rect x="10.4134" y="8.00171" width="17.9967" height="8.99832" fill="white"/>
<rect x="10.4134" y="8.00171" width="17.9967" height="8.99832" fill="white"/>
<rect x="13.4128" y="5.0022" width="11.9978" height="2.99944" fill="white"/>
<rect x="13.4128" y="5.0022" width="11.9978" height="2.99944" fill="white"/>
<rect x="13.4128" y="11.0011" width="17.9967" height="8.99832" fill="white"/>
<rect x="13.4128" y="11.0011" width="17.9967" height="8.99832" fill="white"/>
<rect x="16.4123" y="14.0006" width="17.9967" height="8.99832" fill="white"/>
<rect x="16.4123" y="14.0006" width="17.9967" height="8.99832" fill="white"/>
<rect x="19.4117" y="17" width="17.9967" height="8.99832" fill="white"/>
<rect x="19.4117" y="17" width="17.9967" height="8.99832" fill="white"/>
<rect x="22.4112" y="19.9995" width="17.9967" height="8.99832" fill="white"/>
<rect x="22.4112" y="19.9995" width="17.9967" height="8.99832" fill="white"/>
<rect x="25.4106" y="22.9989" width="17.9967" height="8.99832" fill="white"/>
<rect x="25.4106" y="22.9989" width="17.9967" height="8.99832" fill="white"/>
<rect x="28.41" y="25.9983" width="20.9961" height="8.99832" fill="white"/>
<rect x="28.41" y="25.9983" width="20.9961" height="8.99832" fill="white"/>
<rect x="31.4095" y="28.9978" width="14.9972" height="8.99832" fill="white"/>
<rect x="31.4095" y="28.9978" width="14.9972" height="8.99832" fill="white"/>
<rect x="37.4084" y="37.9961" width="5.99888" height="2.99944" fill="white"/>
<rect x="37.4084" y="37.9961" width="5.99888" height="2.99944" fill="white"/>
<rect x="32.5509" y="13.2716" width="11.5693" height="1.28547" transform="rotate(-13.8199 32.5509 13.2716)" fill="black"/>
<rect x="30.9956" y="12.3306" width="1.28548" height="1.28547" transform="rotate(-13.8199 30.9956 12.3306)" fill="black"/>
<rect x="29.4402" y="11.3893" width="1.28548" height="1.28547" transform="rotate(-13.8199 29.4402 11.3893)" fill="black"/>
<rect x="27.8849" y="10.4482" width="1.28548" height="1.28547" transform="rotate(-13.8199 27.8849 10.4482)" fill="black"/>
<rect x="26.3296" y="9.50684" width="1.28548" height="1.28547" transform="rotate(-13.8199 26.3296 9.50684)" fill="black"/>
<rect x="34.1062" y="14.2129" width="8.99833" height="1.28547" transform="rotate(-13.8199 34.1062 14.2129)" fill="black"/>
<rect x="35.6615" y="15.1539" width="6.42738" height="1.28547" transform="rotate(-13.8199 35.6615 15.1539)" fill="black"/>
<rect x="43.7852" y="10.5083" width="11.5693" height="1.28547" transform="rotate(-13.8199 43.7852 10.5083)" fill="black"/>
<rect x="45.3406" y="11.4493" width="8.99833" height="1.28547" transform="rotate(-13.8199 45.3406 11.4493)" fill="black"/>
<rect x="46.8959" y="12.3906" width="6.42738" height="1.28547" transform="rotate(-13.8199 46.8959 12.3906)" fill="black"/>
<rect x="35.3545" y="13.9058" width="1.28548" height="1.28547" transform="rotate(-13.8199 35.3545 13.9058)" fill="white"/>
<rect x="36.9098" y="14.847" width="1.28548" height="1.28547" transform="rotate(-13.8199 36.9098 14.847)" fill="white"/>
<rect x="46.5888" y="11.1421" width="1.28548" height="1.28547" transform="rotate(-13.8199 46.5888 11.1421)" fill="white"/>
<rect x="48.1442" y="12.0835" width="1.28548" height="1.28547" transform="rotate(-13.8199 48.1442 12.0835)" fill="white"/>
<rect width="40.0077" height="11.6944" transform="matrix(1 2.26611e-08 -2.79767e-08 -1 51 123.696)" fill="#2B4447" fill-opacity="0.1"/>
<rect width="33.3398" height="3.89813" transform="matrix(1 2.94396e-08 -2.1535e-08 -1 54.334 127.594)" fill="#2B4447" fill-opacity="0.1"/>
<rect width="33.3398" height="3.89813" transform="matrix(1 2.94396e-08 -2.1535e-08 -1 54.4218 111.899)" fill="#2B4447" fill-opacity="0.1"/>
<rect width="26.6718" height="3.89813" transform="matrix(1 2.94396e-08 -2.1535e-08 -1 57.668 131.492)" fill="#2B4447" fill-opacity="0.1"/>
<rect width="26.6718" height="3.89813" transform="matrix(1 2.94396e-08 -2.1535e-08 -1 57.8436 107.898)" fill="#2B4447" fill-opacity="0.1"/>
<rect width="40.0077" height="11.6944" transform="matrix(1 2.26611e-08 -2.79767e-08 -1 151 123.696)" fill="#2B4447" fill-opacity="0.1"/>
<rect width="33.3398" height="3.89813" transform="matrix(1 2.94396e-08 -2.1535e-08 -1 154.334 127.594)" fill="#2B4447" fill-opacity="0.1"/>
<rect width="33.3398" height="3.89813" transform="matrix(1 2.94396e-08 -2.1535e-08 -1 154.422 111.899)" fill="#2B4447" fill-opacity="0.1"/>
<rect width="26.6718" height="3.89813" transform="matrix(1 2.94396e-08 -2.1535e-08 -1 157.668 131.492)" fill="#2B4447" fill-opacity="0.1"/>
<rect width="26.6718" height="3.89813" transform="matrix(1 2.94396e-08 -2.1535e-08 -1 157.844 107.898)" fill="#2B4447" fill-opacity="0.1"/>
<rect width="40.0077" height="11.6944" transform="matrix(1 2.26611e-08 -2.79767e-08 -1 251 123.696)" fill="#2B4447" fill-opacity="0.1"/>
<rect width="33.3398" height="3.89813" transform="matrix(1 2.94396e-08 -2.1535e-08 -1 254.334 127.594)" fill="#2B4447" fill-opacity="0.1"/>
<rect width="33.3398" height="3.89813" transform="matrix(1 2.94396e-08 -2.1535e-08 -1 254.422 111.899)" fill="#2B4447" fill-opacity="0.1"/>
<rect width="26.6718" height="3.89813" transform="matrix(1 2.94396e-08 -2.1535e-08 -1 257.668 131.492)" fill="#2B4447" fill-opacity="0.1"/>
<rect width="26.6718" height="3.89813" transform="matrix(1 2.94396e-08 -2.1535e-08 -1 257.844 107.898)" fill="#2B4447" fill-opacity="0.1"/>
<rect width="40.0077" height="11.6944" transform="matrix(1 2.26611e-08 -2.79767e-08 -1 301 123.696)" fill="#2B4447" fill-opacity="0.1"/>
<rect width="33.3398" height="3.89813" transform="matrix(1 2.94396e-08 -2.1535e-08 -1 304.334 127.594)" fill="#2B4447" fill-opacity="0.1"/>
<rect width="33.3398" height="3.89813" transform="matrix(1 2.94396e-08 -2.1535e-08 -1 304.422 111.899)" fill="#2B4447" fill-opacity="0.1"/>
<rect width="26.6718" height="3.89813" transform="matrix(1 2.94396e-08 -2.1535e-08 -1 307.668 131.492)" fill="#2B4447" fill-opacity="0.1"/>
<rect width="26.6718" height="3.89813" transform="matrix(1 2.94396e-08 -2.1535e-08 -1 307.844 107.898)" fill="#2B4447" fill-opacity="0.1"/>
<rect width="40.0077" height="11.6944" transform="matrix(1 2.26611e-08 -2.79767e-08 -1 351 123.696)" fill="#2B4447" fill-opacity="0.1"/>
<rect width="33.3398" height="3.89813" transform="matrix(1 2.94396e-08 -2.1535e-08 -1 354.334 127.594)" fill="#2B4447" fill-opacity="0.1"/>
<rect width="33.3398" height="3.89813" transform="matrix(1 2.94396e-08 -2.1535e-08 -1 354.422 111.899)" fill="#2B4447" fill-opacity="0.1"/>
<rect width="26.6718" height="3.89813" transform="matrix(1 2.94396e-08 -2.1535e-08 -1 357.668 131.492)" fill="#2B4447" fill-opacity="0.1"/>
<rect width="26.6718" height="3.89813" transform="matrix(1 2.94396e-08 -2.1535e-08 -1 357.844 107.898)" fill="#2B4447" fill-opacity="0.1"/>
<rect width="46" height="11.6944" transform="matrix(1 1.97091e-08 -3.2167e-08 -1 401 122.696)" fill="#2B4447" fill-opacity="0.1"/>
<rect width="38.3333" height="3.89813" transform="matrix(1 2.56046e-08 -2.47605e-08 -1 404.833 126.594)" fill="#2B4447" fill-opacity="0.1"/>
<rect width="38.3333" height="3.89813" transform="matrix(1 2.56046e-08 -2.47605e-08 -1 404.934 110.899)" fill="#2B4447" fill-opacity="0.1"/>
<rect width="30.6667" height="3.89813" transform="matrix(1 2.56046e-08 -2.47605e-08 -1 408.667 130.492)" fill="#2B4447" fill-opacity="0.1"/>
<rect width="30.6667" height="3.89813" transform="matrix(1 2.56046e-08 -2.47605e-08 -1 408.869 106.898)" fill="#2B4447" fill-opacity="0.1"/>
<rect width="40" height="11.6944" transform="matrix(1 2.26655e-08 -2.79713e-08 -1 451 122.696)" fill="#2B4447" fill-opacity="0.1"/>
<rect width="33.3333" height="3.89813" transform="matrix(1 2.94453e-08 -2.15309e-08 -1 454.333 126.594)" fill="#2B4447" fill-opacity="0.1"/>
<rect width="33.3333" height="3.89813" transform="matrix(1 2.94453e-08 -2.15309e-08 -1 454.421 110.899)" fill="#2B4447" fill-opacity="0.1"/>
<rect width="26.6667" height="3.89813" transform="matrix(1 2.94453e-08 -2.15309e-08 -1 457.667 130.492)" fill="#2B4447" fill-opacity="0.1"/>
<rect width="26.6667" height="3.89813" transform="matrix(1 2.94453e-08 -2.15309e-08 -1 457.842 106.898)" fill="#2B4447" fill-opacity="0.1"/>
<rect width="40" height="11.6944" transform="matrix(1 2.26655e-08 -2.79713e-08 -1 501 122.696)" fill="#2B4447" fill-opacity="0.1"/>
<rect width="33.3333" height="3.89813" transform="matrix(1 2.94453e-08 -2.15309e-08 -1 504.333 126.594)" fill="#2B4447" fill-opacity="0.1"/>
<rect width="33.3333" height="3.89813" transform="matrix(1 2.94453e-08 -2.15309e-08 -1 504.421 110.899)" fill="#2B4447" fill-opacity="0.1"/>
<rect width="26.6667" height="3.89813" transform="matrix(1 2.94453e-08 -2.15309e-08 -1 507.667 130.492)" fill="#2B4447" fill-opacity="0.1"/>
<rect width="26.6667" height="3.89813" transform="matrix(1 2.94453e-08 -2.15309e-08 -1 507.842 106.898)" fill="#2B4447" fill-opacity="0.1"/>
<rect width="40" height="11.6944" transform="matrix(1 2.26655e-08 -2.79713e-08 -1 551 122.696)" fill="#2B4447" fill-opacity="0.1"/>
<rect width="33.3333" height="3.89813" transform="matrix(1 2.94453e-08 -2.15309e-08 -1 554.333 126.594)" fill="#2B4447" fill-opacity="0.1"/>
<rect width="33.3333" height="3.89813" transform="matrix(1 2.94453e-08 -2.15309e-08 -1 554.421 110.899)" fill="#2B4447" fill-opacity="0.1"/>
<rect width="26.6667" height="3.89813" transform="matrix(1 2.94453e-08 -2.15309e-08 -1 557.667 130.492)" fill="#2B4447" fill-opacity="0.1"/>
<rect width="26.6667" height="3.89813" transform="matrix(1 2.94453e-08 -2.15309e-08 -1 557.842 106.898)" fill="#2B4447" fill-opacity="0.1"/>
<rect width="11.6921" height="2.92303" transform="matrix(0.707107 0.707107 0.707107 -0.707107 592.378 122.375)" fill="#538991" fill-opacity="0.1"/>
<rect width="9.74344" height="0.974344" transform="matrix(0.707107 0.707107 0.707107 -0.707107 592.378 123.752)" fill="#538991" fill-opacity="0.1"/>
<rect width="7.79475" height="0.974344" transform="matrix(0.707107 0.707107 0.707107 -0.707107 592.378 125.13)" fill="#538991" fill-opacity="0.1"/>
<rect x="594.897" y="124.205" width="1.94869" height="1.94869" fill="#FF6F0F"/>
<rect x="595.872" y="125.179" width="1.94869" height="0.974344" fill="#FF6F0F"/>
<rect width="5.84606" height="0.974344" transform="matrix(-1 0 0 1 599.769 122.256)" fill="#FFD600"/>
<rect x="594.897" y="121.282" width="4.87172" height="1.94869" fill="white"/>
<rect x="594.897" y="121.282" width="4.87172" height="1.94869" fill="#FFD600"/>
<rect x="595.872" y="123.231" width="4.87172" height="1.94869" fill="white"/>
<rect x="595.872" y="123.231" width="4.87172" height="1.94869" fill="#FFD600"/>
<rect width="8.7691" height="1.94869" transform="matrix(-1 0 0 1 604.641 123.231)" fill="#FFD600"/>
<rect width="5.84606" height="0.974344" transform="matrix(-1 0 0 1 603.666 126.154)" fill="#FFD600"/>
<rect width="6.82041" height="0.974344" transform="matrix(-1 0 0 1 603.666 125.179)" fill="#FFD600"/>
<rect width="3.89738" height="0.974344" transform="matrix(-1 0 0 1 602.692 127.128)" fill="#FFD600"/>
<rect width="4.87172" height="0.974344" transform="matrix(-1 0 0 1 598.795 119.333)" fill="#FFD600"/>
<rect width="0.974344" height="0.974344" transform="matrix(-1 0 0 1 595.872 123.231)" fill="#FFD600"/>
<rect width="2.92303" height="0.974344" transform="matrix(-1 0 0 1 597.82 118.359)" fill="#FFD600"/>
<rect width="6.82041" height="1.94869" transform="matrix(-1 0 0 1 599.769 120.308)" fill="#FFD600"/>
<rect x="593.923" y="120.308" width="4.87172" height="1.94869" fill="white"/>
<rect x="593.923" y="120.308" width="4.87172" height="1.94869" fill="#FFD600"/>
<rect x="594.897" y="119.333" width="2.92303" height="1.94869" fill="white"/>
<rect x="594.897" y="119.333" width="2.92303" height="1.94869" fill="#FFD600"/>
<rect x="596.846" y="121.282" width="6.82041" height="3.89738" fill="white"/>
<rect x="596.846" y="121.282" width="6.82041" height="3.89738" fill="#FFD600"/>
<rect x="597.82" y="125.179" width="4.87172" height="0.974344" fill="white"/>
<rect x="597.82" y="125.179" width="4.87172" height="0.974344" fill="#FFD600"/>
<rect x="598.795" y="126.154" width="3.89738" height="0.974344" fill="white"/>
<rect x="598.795" y="126.154" width="3.89738" height="0.974344" fill="#FFD600"/>
<rect x="599.769" y="117.385" width="3.89738" height="5.84606" fill="#FFD600"/>
<rect x="600.743" y="119.333" width="0.974344" height="0.974344" fill="black"/>
<rect x="602.692" y="118.359" width="0.974344" height="0.974344" fill="black"/>
<rect width="0.974344" height="3.89738" transform="matrix(-1 0 0 1 599.769 117.385)" fill="#FFD600"/>
<rect width="0.974344" height="0.974344" transform="matrix(-1 0 0 1 603.666 117.385)" fill="#FFD600"/>
<rect width="0.974344" height="4.87172" transform="matrix(-1 0 0 1 604.641 118.359)" fill="#FFD600"/>
<rect width="2.92303" height="0.974344" transform="matrix(-1 0 0 1 602.692 116.41)" fill="#FFD600"/>
<rect x="602.692" y="120.307" width="1.94869" height="1.94869" fill="#FF6F0F"/>
<rect x="603.666" y="121.282" width="1.94869" height="0.974344" fill="#FF6F0F"/>
<rect x="599.074" y="120.132" width="3.85714" height="0.428571" transform="rotate(-13.8199 599.074 120.132)" fill="black"/>
<rect x="598.556" y="119.818" width="0.428571" height="0.428571" transform="rotate(-13.8199 598.556 119.818)" fill="black"/>
<rect x="598.037" y="119.504" width="0.428571" height="0.428571" transform="rotate(-13.8199 598.037 119.504)" fill="black"/>
<rect x="597.519" y="119.191" width="0.428571" height="0.428571" transform="rotate(-13.8199 597.519 119.191)" fill="black"/>
<rect x="597" y="118.877" width="0.428571" height="0.428571" transform="rotate(-13.8199 597 118.877)" fill="black"/>
<rect x="599.593" y="120.446" width="3" height="0.428571" transform="rotate(-13.8199 599.593 120.446)" fill="black"/>
<rect x="600.111" y="120.76" width="2.14286" height="0.428571" transform="rotate(-13.8199 600.111 120.76)" fill="black"/>
<rect x="602.82" y="119.211" width="3.85714" height="0.428571" transform="rotate(-13.8199 602.82 119.211)" fill="black"/>
<rect x="603.338" y="119.524" width="3" height="0.428571" transform="rotate(-13.8199 603.338 119.524)" fill="black"/>
<rect x="603.857" y="119.838" width="2.14286" height="0.428571" transform="rotate(-13.8199 603.857 119.838)" fill="black"/>
<rect x="600.009" y="120.343" width="0.428571" height="0.428571" transform="rotate(-13.8199 600.009 120.343)" fill="white"/>
<rect x="600.527" y="120.657" width="0.428571" height="0.428571" transform="rotate(-13.8199 600.527 120.657)" fill="white"/>
<rect x="603.754" y="119.422" width="0.428571" height="0.428571" transform="rotate(-13.8199 603.754 119.422)" fill="white"/>
<rect x="604.273" y="119.736" width="0.428571" height="0.428571" transform="rotate(-13.8199 604.273 119.736)" fill="white"/>
<rect width="40.0077" height="11.6944" transform="matrix(1 2.26611e-08 -2.79767e-08 -1 102 121.704)" fill="#2B4447" fill-opacity="0.1"/>
<rect width="33.3398" height="3.89813" transform="matrix(1 2.94396e-08 -2.1535e-08 -1 105.334 125.602)" fill="#2B4447" fill-opacity="0.1"/>
<rect width="33.3398" height="3.89813" transform="matrix(1 2.94396e-08 -2.1535e-08 -1 105.422 109.907)" fill="#2B4447" fill-opacity="0.1"/>
<rect width="26.6718" height="3.89813" transform="matrix(1 2.94396e-08 -2.1535e-08 -1 108.668 129.5)" fill="#2B4447" fill-opacity="0.1"/>
<rect width="26.6718" height="3.89813" transform="matrix(1 2.94396e-08 -2.1535e-08 -1 108.844 105.906)" fill="#2B4447" fill-opacity="0.1"/>
<rect x="110.002" y="114.01" width="8.00155" height="8.00155" fill="#FF6F0F"/>
<rect x="114.002" y="118.011" width="8.00155" height="4.00077" fill="#FF6F0F"/>
<rect x="126.005" y="114.01" width="8.00155" height="8.00155" fill="#FF6F0F"/>
<rect x="130.005" y="118.011" width="8.00155" height="4.00077" fill="#FF6F0F"/>
<rect x="110.002" y="77" width="28.0054" height="36.4541" fill="white"/>
<rect width="4.00077" height="22.7838" transform="matrix(-1 0 0 1 138.007 81.5568)" fill="#2D2D2D"/>
<rect width="4.00077" height="27.3406" transform="matrix(-1 0 0 1 142.008 86.1135)" fill="#2D2D2D"/>
<rect width="4.00077" height="22.7838" transform="matrix(-1 0 0 1 106.001 86.1135)" fill="#2D2D2D"/>
<rect width="4.00077" height="31.8973" transform="matrix(-1 0 0 1 110.002 81.5568)" fill="#2D2D2D"/>
<rect width="3" height="27" transform="matrix(-1 0 0 1 113 77)" fill="#2D2D2D"/>
<rect width="28.0054" height="4.55676" transform="matrix(1 0 0 -1 110.002 118.011)" fill="#2D2D2D"/>
<rect width="25" height="7.99999" transform="matrix(-1 0 0 1 138 63.0001)" fill="#2D2D2D"/>
<rect width="27.8707" height="6" transform="matrix(-1 0 0 1 137.871 68)" fill="#2D2D2D"/>
<rect width="3" height="12" transform="matrix(-1 0 0 1 113 68)" fill="#2D2D2D"/>
<rect width="8.99999" height="6" transform="matrix(-1 0 0 1 138 71)" fill="#2D2D2D"/>
<rect x="117" y="63.0001" width="17" height="24" fill="white"/>
<rect x="113" y="72.9999" width="21" height="14" fill="white"/>
<rect x="134" y="63.0001" width="17" height="4" transform="rotate(-180 134 63.0001)" fill="#2D2D2D"/>
<rect x="122" y="71" width="4" height="6" fill="black"/>
<rect x="129" y="66.9999" width="4" height="6" fill="black"/>
<rect width="5" height="4" transform="matrix(-1 0 0 1 128 63.0001)" fill="#2D2D2D"/>
<rect x="130" y="75.0031" width="8.66667" height="8.00155" fill="#FF6F0F"/>
<rect x="134.333" y="79.0039" width="8.66667" height="4.00077" fill="#FF6F0F"/>
<rect x="113.64" y="75.0569" width="15.4286" height="1.71428" transform="rotate(-18 113.64 75.0569)" fill="black"/>
<rect x="111.48" y="73.9564" width="1.71428" height="1.71428" transform="rotate(-18 111.48 73.9564)" fill="black"/>
<rect x="109.32" y="72.8556" width="1.71428" height="1.71428" transform="rotate(-18 109.32 72.8556)" fill="black"/>
<rect x="107.16" y="71.7548" width="1.71428" height="1.71428" transform="rotate(-18 107.16 71.7548)" fill="black"/>
<rect x="105" y="70.6543" width="1.71428" height="1.71428" transform="rotate(-18 105 70.6543)" fill="black"/>
<rect x="115.801" y="76.1573" width="12" height="1.71428" transform="rotate(-18 115.801 76.1573)" fill="black"/>
<rect x="117.961" y="77.2582" width="8.57142" height="1.71428" transform="rotate(-18 117.961 77.2582)" fill="black"/>
<rect x="128.314" y="70.2892" width="15.4286" height="1.71428" transform="rotate(-18 128.314 70.2892)" fill="black"/>
<rect x="130.474" y="71.3896" width="12" height="1.71428" transform="rotate(-18 130.474 71.3896)" fill="black"/>
<rect x="132.634" y="72.4905" width="8.57142" height="1.71428" transform="rotate(-18 132.634 72.4905)" fill="black"/>
<rect x="117.431" y="75.6278" width="1.71428" height="1.71428" transform="rotate(-18 117.431 75.6278)" fill="white"/>
<rect x="119.591" y="76.7283" width="1.71428" height="1.71428" transform="rotate(-18 119.591 76.7283)" fill="white"/>
<rect x="132.104" y="70.8601" width="1.71428" height="1.71428" transform="rotate(-18 132.104 70.8601)" fill="white"/>
<rect x="134.265" y="71.9606" width="1.71428" height="1.71428" transform="rotate(-18 134.265 71.9606)" fill="white"/>
<path d="M83.5 72H89.75V84.5H77.25V72H64.75V115.75H77.25V103.25H71V97H89.75V122H58.5V115.75H52.25V72H58.5V65.75H83.5V72ZM189.75 72H177.25V122H164.75V72H152.25V65.75H189.75V72ZM258.5 72H264.75V65.75H277.25V72H283.5V78.25H289.75V122H277.25V103.25H264.75V122H252.25V78.25H258.5V72ZM277.25 97V78.25H264.75V97H277.25ZM333.5 84.5H339.75V122H327.25V84.5H314.75V122H302.25V78.25H333.5V84.5ZM377.25 72H364.75V59.5H377.25V72ZM377.25 115.75H389.75V122H352.25V115.75H364.75V84.5H352.25V78.25H377.25V115.75ZM414.75 122H402.25V78.25H439.75V84.5H446V122H433.5V84.5H427.25V115.75H421V84.5H414.75V122ZM477.25 84.5H458.5V78.25H483.5V84.5H489.75V122H458.5V115.75H452.25V103.25H458.5V97H477.25V84.5ZM477.25 115.75V103.25H464.75V115.75H477.25ZM527.25 115.75H539.75V122H502.25V115.75H514.75V72H502.25V65.75H527.25V115.75ZM558.5 97H552.25V84.5H558.5V78.25H589.75V84.5H564.75V97H583.5V103.25H589.75V115.75H583.5V122H552.25V115.75H577.25V103.25H558.5V97Z" fill="black"/>
</svg>
