<svg xmlns="http://www.w3.org/2000/svg" fill="none" overflow="visible"><style>
  @keyframes penguin-14-move-body {
  0% {
  -webkit-transform:translate(0px, 0px);
  -ms-transform:translate(0px, 0px);
  -o-transform:translate(0px, 0px);
  -moz-transform:translate(0px, 0px);
  transform:translate(0px, 0px);
  }
  50% {
  -webkit-transform:translate(0px, -0.5px);
  -ms-transform:translate(0px, -0.5px);
  -o-transform:translate(0px, -0.5px);
  -moz-transform:translate(0px, -0.5px);
  transform:translate(0px, -0.5px);
  }
  100% {
  -webkit-transform:translate(0px, 0px);
  -ms-transform:translate(0px, 0px);
  -o-transform:translate(0px, 0px);
  -moz-transform:translate(0px, 0px);
  transform:translate(0px, 0px);
  }
  }

  @keyframes move-14-logo {
  0% {
  -webkit-transform:translate(12px, 4px);
  -ms-transform:translate(12px, 4px);
  -o-transform:translate(12px, 4px);
  -moz-transform:translate(12px, 4px);
  transform:translate(12px, 4px);
  }
  50% {
  -webkit-transform:translate(12px, 3.5px);
  -ms-transform:translate(12px, 3.5px);
  -o-transform:translate(12px, 3.5px);
  -moz-transform:translate(12px, 3.5px);
  transform:translate(12px, 3.5px);
  }
  100% {
  -webkit-transform:translate(12px, 4px);
  -ms-transform:translate(12px, 4px);
  -o-transform:translate(12px, 4px);
  -moz-transform:translate(12px, 4px);
  transform:translate(12px, 4px);
  }
  }

  @keyframes penguin-14-move-leg {
  0% {
  -webkit-transform:rotate(0deg);
  -ms-transform:rotate(0deg);
  -o-transform:rotate(0deg);
  -moz-transform:rotate(0deg);
  transform:rotate(0deg);
  }
  50% {
  -webkit-transform:rotate(1deg);
  -ms-transform:rotate(1deg);
  -o-transform:rotate(1deg);
  -moz-transform:rotate(1deg);
  transform:rotate(1deg);
  }
  100% {
  -webkit-transform:rotate(0deg);
  -ms-transform:rotate(0deg);
  -o-transform:rotate(0deg);
  -moz-transform:rotate(0deg);
  transform:rotate(0deg);
  }
  }

  #penguin-14-body {
  animation-name:penguin-14-move-body;
  animation-duration:1s;
  animation-iteration-count:infinite;
  }

  #penguin-14-leg {
  animation-name:penguin-14-move-leg;
  animation-duration:0.5s;
  animation-iteration-count:360;
  animation-timing-function: ease-in;
  }

  #kotlin-14-logo {
  animation-name:move-14-logo;
  animation-duration:1s;
  animation-iteration-count:infinite;
  }
</style>

  <g id="penguin-14" transform="translate(10, 20)">
    <svg width="600" height="300" viewBox="0 0 200 100" fill="none" overflow="visible">
      <g id="shadow" transform="translate(0.5, 8.5)">
        <rect width="13.3359" height="3.89813" transform="matrix(1 2.26611e-08 -2.79767e-08 -1 0 6.90123)" fill="#2B4447" fill-opacity="0.1"/>
        <rect width="11.1133" height="1.29938" transform="matrix(1 2.94396e-08 -2.1535e-08 -1 1.11133 8.20061)" fill="#2B4447" fill-opacity="0.1"/>
        <rect width="11.1133" height="1.29938" transform="matrix(1 2.94396e-08 -2.1535e-08 -1 1.14059 2.9689)" fill="#2B4447" fill-opacity="0.1"/>
        <rect width="8.89062" height="1.29938" transform="matrix(1 2.94396e-08 -2.1535e-08 -1 2.22266 9.5)" fill="#2B4447" fill-opacity="0.1"/>
        <rect width="8.89062" height="1.29938" transform="matrix(1 2.94396e-08 -2.1535e-08 -1 2.28119 1.6353)" fill="#2B4447" fill-opacity="0.1"/>
      </g>

      <g id="penguin-14-leg-out" transform="translate(2, 12)">
        <g id="penguin-14-leg">
          <rect x="0.667175" y="0.3367" width="2.66718" height="2.66719" fill="#FF6F0F"/>
          <rect x="2.00076" y="1.67029" width="2.66718" height="1.33359" fill="#FF6F0F"/>
          <rect x="6.00153" y="0.3367" width="2.66718" height="2.66719" fill="#FF6F0F"/>
          <rect x="7.33511" y="1.67029" width="2.66718" height="1.33359" fill="#FF6F0F"/>
        </g>
      </g>

      <g id="penguin-14-body">
        <rect x="2.66718" width="9.33515" height="12.1514" fill="white"/>
        <rect width="1.33359" height="7.59461" transform="matrix(-1 0 0 1 12.0023 1.51892)" fill="#2D2D2D"/>
        <rect width="1.33359" height="9.11353" transform="matrix(-1 0 0 1 13.3359 3.03784)" fill="#2D2D2D"/>
        <rect width="1.33359" height="7.59461" transform="matrix(-1 0 0 1 1.33359 3.03784)" fill="#2D2D2D"/>
        <rect width="1.33359" height="10.6325" transform="matrix(-1 0 0 1 2.66718 1.51892)" fill="#2D2D2D"/>
        <rect width="1" height="9" transform="matrix(-1 0 0 1 3.66666 0)" fill="#2D2D2D"/>
        <rect width="9.33515" height="1.51892" transform="matrix(1 0 0 -1 2.66718 13.6703)" fill="#2D2D2D"/>
      </g>

      <g id="penguin-14-head" transform="translate(2, -6.5)">
        <rect width="8.33333" height="2.66667" transform="matrix(-1 0 0 1 10 1.33333)" fill="#2D2D2D"/>
        <rect width="9.29025" height="2" transform="matrix(-1 0 0 1 9.95692 3)" fill="#2D2D2D"/>
        <rect width="1" height="4" transform="matrix(-1 0 0 1 1.66667 3)" fill="#2D2D2D"/>
        <rect width="3" height="2" transform="matrix(-1 0 0 1 10 4)" fill="#2D2D2D"/>
        <rect x="3" y="1.33333" width="5.66667" height="8" fill="white"/>
        <rect x="1.66667" y="4.66667" width="7" height="4.66667" fill="white"/>
        <rect x="8.66667" y="1.33333" width="5.66667" height="1.33333" transform="rotate(-180 8.66667 1.33333)" fill="#2D2D2D"/>
        <rect x="4.66667" y="4" width="1.33333" height="2" fill="black"/>
        <rect x="7" y="2.66667" width="1.33333" height="2" fill="black"/>
        <rect width="1.66667" height="1.33333" transform="matrix(-1 0 0 1 6.66667 1.33333)" fill="#2D2D2D"/>
        <rect x="7.33334" y="5.33437" width="2.88889" height="2.66719" fill="#FF6F0F"/>
        <rect x="8.77778" y="6.66795" width="2.88889" height="1.33359" fill="#FF6F0F"/>
      </g>

      <g id="kotlin-14-logo" transform="translate(3, 3)">
        <rect x="0.873688" y="6.57759" width="1.875" height="0.625" transform="rotate(-18 0.873688 6.57759)" fill="#3791FF"/>
        <rect x="2.43378" y="9.35651" width="3.75" height="0.625" transform="rotate(-18 2.43378 9.35651)" fill="#14A4FF"/>
        <rect x="0.680557" y="5.98318" width="2.5" height="0.625" transform="rotate(-18 0.680557 5.98318)" fill="#8068FF"/>
        <rect x="2.62692" y="9.95091" width="4.375" height="0.625" transform="rotate(-18 2.62692 9.95091)" fill="#00B2FF"/>
        <rect x="1.06683" y="7.172" width="1.25" height="0.625" transform="rotate(-18 1.06683 7.172)" fill="#14A4FF"/>
        <rect x="3.42947" y="8.37582" width="1.875" height="0.625" transform="rotate(-18 3.42947 8.37582)" fill="#3791FF"/>
        <rect x="1.25996" y="7.76641" width="0.625" height="0.625" transform="rotate(-18 1.25996 7.76641)" fill="#00B2FF"/>
        <rect x="3.83073" y="7.58828" width="0.625" height="0.625" transform="rotate(-18 3.83073 7.58828)" fill="#8068FF"/>
        <rect x="3.0582" y="5.21063" width="2.5" height="0.625" transform="rotate(-18 3.0582 5.21063)" fill="#FF8800"/>
        <rect x="2.65692" y="5.99818" width="2.5" height="0.625" transform="rotate(-18 2.65692 5.99818)" fill="#FF8800"/>
        <rect x="2.25565" y="6.78573" width="2.5" height="0.625" transform="rotate(-18 2.25565 6.78573)" fill="#FF8900"/>
        <rect x="1.85437" y="7.57327" width="2.5" height="0.625" transform="rotate(-18 1.85437 7.57327)" fill="#FA850F"/>
        <rect x="1.45309" y="8.36082" width="2.5" height="0.625" transform="rotate(-18 1.45309 8.36082)" fill="#F67428"/>
        <rect x="1.64624" y="8.95523" width="1.875" height="0.625" transform="rotate(-18 1.64624 8.95523)" fill="#E4715B"/>
        <rect x="1.83937" y="9.54964" width="1.25" height="0.625" transform="rotate(-18 1.83937 9.54964)" fill="#DE6B72"/>
        <rect x="2.0325" y="10.1441" width="0.625" height="0.625" transform="rotate(-18 2.0325 10.1441)" fill="#CD5CA8"/>
        <rect x="6.41652" y="5.43378" width="0.78125" height="3.125" transform="rotate(-18 6.41652 5.43378)" fill="black"/>
        <rect x="7.52167" y="6.30688" width="0.78125" height="0.78125" transform="rotate(-18 7.52167 6.30688)" fill="black"/>
        <rect x="7.65175" y="5.44315" width="0.78125" height="0.78125" transform="rotate(-18 7.65175 5.44315)" fill="black"/>
        <rect x="7.90254" y="4.95094" width="0.78125" height="0.78125" transform="rotate(-18 7.90254 4.95094)" fill="black"/>
        <rect x="8.01387" y="6.55767" width="0.78125" height="0.78125" transform="rotate(-18 8.01387 6.55767)" fill="black"/>
        <rect x="8.50609" y="6.80847" width="0.78125" height="0.78125" transform="rotate(-18 8.50609 6.80847)" fill="black"/>
        <rect x="8.99831" y="7.05927" width="0.78125" height="0.78125" transform="rotate(-18 8.99831 7.05927)" fill="black"/>
        <rect x="9.7507" y="5.58262" width="0.78125" height="1.5625" transform="rotate(-18 9.7507 5.58262)" fill="black"/>
        <rect x="11.2367" y="5.09978" width="0.78125" height="1.5625" transform="rotate(-18 11.2367 5.09978)" fill="black"/>
        <rect x="10.0015" y="5.0904" width="1.5625" height="0.78125" transform="rotate(-18 10.0015 5.0904)" fill="black"/>
        <rect x="10.4843" y="6.57643" width="1.5625" height="0.78125" transform="rotate(-18 10.4843 6.57643)" fill="black"/>
        <rect x="15.6948" y="3.65126" width="0.78125" height="1.95312" transform="rotate(-18 15.6948 3.65126)" fill="black"/>
        <rect x="15.3327" y="2.53674" width="0.78125" height="0.78125" transform="rotate(-18 15.3327 2.53674)" fill="black"/>
        <rect x="14.2182" y="2.89887" width="0.78125" height="3.125" transform="rotate(-18 14.2182 2.89887)" fill="black"/>
        <rect x="16.6886" y="2.91763" width="0.78125" height="2.34375" transform="rotate(-18 16.6886 2.91763)" fill="black"/>
        <rect x="18.2953" y="2.80629" width="0.78125" height="1.95312" transform="rotate(-18 18.2953 2.80629)" fill="black"/>
        <rect x="17.8031" y="2.5555" width="0.78125" height="0.78125" transform="rotate(-18 17.8031 2.5555)" fill="black"/>
        <rect x="17.1808" y="3.16842" width="0.78125" height="0.78125" transform="rotate(-18 17.1808 3.16842)" fill="black"/>
        <rect width="1.17188" height="0.390625" transform="matrix(-0.951057 0.309017 0.309017 0.951057 14.5709 5.24862)" fill="black"/>
        <rect width="0.78125" height="0.390625" transform="matrix(-0.951057 0.309017 0.309017 0.951057 14.3201 5.74084)" fill="black"/>
        <rect width="1.95312" height="0.390625" transform="matrix(-0.951057 0.309017 0.309017 0.951057 14.0881 3.7626)" fill="black"/>
        <rect width="0.390625" height="0.390625" transform="matrix(-0.951057 0.309017 0.309017 0.951057 14.4502 4.87711)" fill="black"/>
        <rect width="0.78125" height="2.34375" transform="matrix(-0.951057 0.309017 0.309017 0.951057 13.2243 3.63251)" fill="black"/>
      </g>
    </svg>
  </g>
</svg>
