<svg xmlns="http://www.w3.org/2000/svg" fill="none" overflow="visible"><style>
  @keyframes penguin-14-move-body {
  0% {
  -webkit-transform:translate(0px, 0px);
  -ms-transform:translate(0px, 0px);
  -o-transform:translate(0px, 0px);
  -moz-transform:translate(0px, 0px);
  transform:translate(0px, 0px);
  }
  50% {
  -webkit-transform:translate(0px, -0.5px);
  -ms-transform:translate(0px, -0.5px);
  -o-transform:translate(0px, -0.5px);
  -moz-transform:translate(0px, -0.5px);
  transform:translate(0px, -0.5px);
  }
  100% {
  -webkit-transform:translate(0px, 0px);
  -ms-transform:translate(0px, 0px);
  -o-transform:translate(0px, 0px);
  -moz-transform:translate(0px, 0px);
  transform:translate(0px, 0px);
  }
  }

  @keyframes move-14-logo {
  0% {
  -webkit-transform:translate(12px, 4px);
  -ms-transform:translate(12px, 4px);
  -o-transform:translate(12px, 4px);
  -moz-transform:translate(12px, 4px);
  transform:translate(12px, 4px);
  }
  50% {
  -webkit-transform:translate(12px, 3.5px);
  -ms-transform:translate(12px, 3.5px);
  -o-transform:translate(12px, 3.5px);
  -moz-transform:translate(12px, 3.5px);
  transform:translate(12px, 3.5px);
  }
  100% {
  -webkit-transform:translate(12px, 4px);
  -ms-transform:translate(12px, 4px);
  -o-transform:translate(12px, 4px);
  -moz-transform:translate(12px, 4px);
  transform:translate(12px, 4px);
  }
  }

  @keyframes penguin-14-move-leg {
  0% {
  -webkit-transform:rotate(0deg);
  -ms-transform:rotate(0deg);
  -o-transform:rotate(0deg);
  -moz-transform:rotate(0deg);
  transform:rotate(0deg);
  }
  50% {
  -webkit-transform:rotate(1deg);
  -ms-transform:rotate(1deg);
  -o-transform:rotate(1deg);
  -moz-transform:rotate(1deg);
  transform:rotate(1deg);
  }
  100% {
  -webkit-transform:rotate(0deg);
  -ms-transform:rotate(0deg);
  -o-transform:rotate(0deg);
  -moz-transform:rotate(0deg);
  transform:rotate(0deg);
  }
  }

  #penguin-14-body {
  animation-name:penguin-14-move-body;
  animation-duration:1s;
  animation-iteration-count:infinite;
  }

  #penguin-14-leg {
  animation-name:penguin-14-move-leg;
  animation-duration:0.5s;
  animation-iteration-count:360;
  animation-timing-function: ease-in;
  }

  #swift-14-logo {
  animation-name:move-14-logo;
  animation-duration:1s;
  animation-iteration-count:infinite;
  }
</style>

  <g id="penguin-14" transform="translate(10, 20)">
    <svg width="600" height="300" viewBox="0 0 200 100" fill="none" overflow="visible">
      <g id="shadow" transform="translate(0.5, 8.5)">
        <rect width="13.3359" height="3.89813" transform="matrix(1 2.26611e-08 -2.79767e-08 -1 0 6.90123)" fill="#2B4447" fill-opacity="0.1"/>
        <rect width="11.1133" height="1.29938" transform="matrix(1 2.94396e-08 -2.1535e-08 -1 1.11133 8.20061)" fill="#2B4447" fill-opacity="0.1"/>
        <rect width="11.1133" height="1.29938" transform="matrix(1 2.94396e-08 -2.1535e-08 -1 1.14059 2.9689)" fill="#2B4447" fill-opacity="0.1"/>
        <rect width="8.89062" height="1.29938" transform="matrix(1 2.94396e-08 -2.1535e-08 -1 2.22266 9.5)" fill="#2B4447" fill-opacity="0.1"/>
        <rect width="8.89062" height="1.29938" transform="matrix(1 2.94396e-08 -2.1535e-08 -1 2.28119 1.6353)" fill="#2B4447" fill-opacity="0.1"/>
      </g>

      <g id="penguin-14-leg-out" transform="translate(2, 12)">
        <g id="penguin-14-leg">
          <rect x="0.667175" y="0.3367" width="2.66718" height="2.66719" fill="#FF6F0F"/>
          <rect x="2.00076" y="1.67029" width="2.66718" height="1.33359" fill="#FF6F0F"/>
          <rect x="6.00153" y="0.3367" width="2.66718" height="2.66719" fill="#FF6F0F"/>
          <rect x="7.33511" y="1.67029" width="2.66718" height="1.33359" fill="#FF6F0F"/>
        </g>
      </g>

      <g id="penguin-14-body">
        <rect x="2.66718" width="9.33515" height="12.1514" fill="white"/>
        <rect width="1.33359" height="7.59461" transform="matrix(-1 0 0 1 12.0023 1.51892)" fill="#2D2D2D"/>
        <rect width="1.33359" height="9.11353" transform="matrix(-1 0 0 1 13.3359 3.03784)" fill="#2D2D2D"/>
        <rect width="1.33359" height="7.59461" transform="matrix(-1 0 0 1 1.33359 3.03784)" fill="#2D2D2D"/>
        <rect width="1.33359" height="10.6325" transform="matrix(-1 0 0 1 2.66718 1.51892)" fill="#2D2D2D"/>
        <rect width="1" height="9" transform="matrix(-1 0 0 1 3.66666 0)" fill="#2D2D2D"/>
        <rect width="9.33515" height="1.51892" transform="matrix(1 0 0 -1 2.66718 13.6703)" fill="#2D2D2D"/>
      </g>

      <g id="penguin-14-head" transform="translate(2, -6.5)">
        <rect width="8.33333" height="2.66667" transform="matrix(-1 0 0 1 10 1.33333)" fill="#2D2D2D"/>
        <rect width="9.29025" height="2" transform="matrix(-1 0 0 1 9.95692 3)" fill="#2D2D2D"/>
        <rect width="1" height="4" transform="matrix(-1 0 0 1 1.66667 3)" fill="#2D2D2D"/>
        <rect width="3" height="2" transform="matrix(-1 0 0 1 10 4)" fill="#2D2D2D"/>
        <rect x="3" y="1.33333" width="5.66667" height="8" fill="white"/>
        <rect x="1.66667" y="4.66667" width="7" height="4.66667" fill="white"/>
        <rect x="8.66667" y="1.33333" width="5.66667" height="1.33333" transform="rotate(-180 8.66667 1.33333)" fill="#2D2D2D"/>
        <rect x="4.66667" y="4" width="1.33333" height="2" fill="black"/>
        <rect x="7" y="2.66667" width="1.33333" height="2" fill="black"/>
        <rect width="1.66667" height="1.33333" transform="matrix(-1 0 0 1 6.66667 1.33333)" fill="#2D2D2D"/>
        <rect x="7.33334" y="5.33437" width="2.88889" height="2.66719" fill="#FF6F0F"/>
        <rect x="8.77778" y="6.66795" width="2.88889" height="1.33359" fill="#FF6F0F"/>
      </g>

      <g id="swift-14-logo" transform="translate(3, 3)">
        <rect y="7.72543" width="5" height="5" transform="rotate(-18 0 7.72543)" fill="#F15137"/>
        <rect x="1.55843" y="10.724" width="3.33333" height="0.555556" transform="rotate(-18 1.55843 10.724)" fill="white"/>
        <rect x="3.34186" y="7.22374" width="0.555556" height="3.33333" transform="rotate(-18 3.34186 7.22374)" fill="white"/>
        <rect x="2.80017" y="9.15219" width="1.11111" height="1.11111" transform="rotate(-18 2.80017 9.15219)" fill="white"/>
        <rect x="2.2718" y="9.32387" width="1.11111" height="0.555556" transform="rotate(-18 2.2718 9.32387)" fill="white"/>
        <rect x="2.62849" y="8.62383" width="0.555556" height="1.11111" transform="rotate(-18 2.62849 8.62383)" fill="white"/>
        <rect x="1.57176" y="8.96718" width="0.555556" height="0.555556" transform="rotate(-18 1.57176 8.96718)" fill="white"/>
        <rect x="0.871719" y="8.61049" width="0.555556" height="0.555556" transform="rotate(-18 0.871719 8.61049)" fill="white"/>
        <rect x="4.72861" y="9.69389" width="0.555556" height="0.555556" transform="rotate(-18 4.72861 9.69389)" fill="white"/>
        <rect x="4.90028" y="10.2223" width="0.555556" height="0.555556" transform="rotate(-18 4.90028 10.2223)" fill="white"/>
        <rect x="1.92845" y="8.26714" width="0.555556" height="0.555556" transform="rotate(-18 1.92845 8.26714)" fill="white"/>
        <rect x="11.769" y="7.99046" width="1.66667" height="1.11111" transform="rotate(-18 11.769 7.99046)" fill="black"/>
        <rect x="12.6541" y="7.11876" width="1.11111" height="1.11111" transform="rotate(-18 12.6541 7.11876)" fill="black"/>
        <rect x="12.6674" y="5.36198" width="1.11111" height="2.22222" transform="rotate(-18 12.6674 5.36198)" fill="black"/>
        <rect x="11.069" y="7.63377" width="1.11111" height="1.11111" transform="rotate(-18 11.069 7.63377)" fill="black"/>
        <rect x="10.0256" y="6.22037" width="1.11111" height="2.22222" transform="rotate(-18 10.0256 6.22037)" fill="black"/>
        <rect x="14.4108" y="7.1321" width="1.66667" height="1.11111" transform="rotate(-18 14.4108 7.1321)" fill="black"/>
        <rect x="15.2959" y="6.26038" width="1.11111" height="1.11111" transform="rotate(-18 15.2959 6.26038)" fill="black"/>
        <rect x="15.3092" y="4.5036" width="1.11111" height="2.22222" transform="rotate(-18 15.3092 4.5036)" fill="black"/>
        <rect x="13.7108" y="6.77541" width="1.11111" height="1.11111" transform="rotate(-18 13.7108 6.77541)" fill="black"/>
        <rect x="6.51205" y="6.19368" width="2.77778" height="1.11111" transform="rotate(-18 6.51205 6.19368)" fill="black"/>
        <rect x="7.02708" y="7.77878" width="2.77778" height="1.11111" transform="rotate(-18 7.02708 7.77878)" fill="black"/>
        <rect x="7.5421" y="9.36386" width="2.77778" height="1.11111" transform="rotate(-18 7.5421 9.36386)" fill="black"/>
        <rect x="6.68373" y="6.72205" width="1.11111" height="1.66667" transform="rotate(-18 6.68373 6.72205)" fill="black"/>
        <rect x="8.78384" y="7.79211" width="1.11111" height="1.66667" transform="rotate(-18 8.78384 7.79211)" fill="black"/>
        <rect width="1.11111" height="3.88889" transform="matrix(-0.951057 0.309017 0.309017 0.951057 19.8929 2.43015)" fill="black"/>
        <rect width="2.77778" height="0.555556" transform="matrix(-0.951057 0.309017 0.309017 0.951057 21.2929 3.14352)" fill="black"/>
        <rect width="1.11111" height="0.555556" transform="matrix(-0.951057 0.309017 0.309017 0.951057 20.2495 1.7301)" fill="black"/>
        <rect width="0.555556" height="0.555556" transform="matrix(-0.951057 0.309017 0.309017 0.951057 20.9496 2.08679)" fill="black"/>
        <rect x="17.066" y="4.51694" width="1.11111" height="2.77778" transform="rotate(-18 17.066 4.51694)" fill="black"/>
        <rect x="16.551" y="2.93184" width="1.11111" height="1.11111" transform="rotate(-18 16.551 2.93184)" fill="black"/>
        <rect width="1.66667" height="0.555556" transform="matrix(-0.951057 0.309017 0.309017 0.951057 24.9781 3.69856)" fill="black"/>
        <rect width="1.11111" height="0.555556" transform="matrix(-0.951057 0.309017 0.309017 0.951057 24.6214 4.39861)" fill="black"/>
        <rect width="2.77778" height="0.555556" transform="matrix(-0.951057 0.309017 0.309017 0.951057 24.2914 1.5851)" fill="black"/>
        <rect width="0.555556" height="0.555556" transform="matrix(-0.951057 0.309017 0.309017 0.951057 24.8065 3.1702)" fill="black"/>
        <rect width="1.11111" height="3.33333" transform="matrix(-0.951057 0.309017 0.309017 0.951057 23.063 1.40009)" fill="black"/>
      </g>
    </svg>
  </g>
</svg>
