<svg xmlns="http://www.w3.org/2000/svg" fill="none" overflow="visible"><style>
  @keyframes penguin-14-move-body {
  0% {
  -webkit-transform:translate(0px, 0px);
  -ms-transform:translate(0px, 0px);
  -o-transform:translate(0px, 0px);
  -moz-transform:translate(0px, 0px);
  transform:translate(0px, 0px);
  }
  50% {
  -webkit-transform:translate(0px, -0.5px);
  -ms-transform:translate(0px, -0.5px);
  -o-transform:translate(0px, -0.5px);
  -moz-transform:translate(0px, -0.5px);
  transform:translate(0px, -0.5px);
  }
  100% {
  -webkit-transform:translate(0px, 0px);
  -ms-transform:translate(0px, 0px);
  -o-transform:translate(0px, 0px);
  -moz-transform:translate(0px, 0px);
  transform:translate(0px, 0px);
  }
  }

  @keyframes move-14-logo {
  0% {
  -webkit-transform:translate(10px, 0px);
  -ms-transform:translate(10px, 0px);
  -o-transform:translate(10px, 0px);
  -moz-transform:translate(10px, 0px);
  transform:translate(10px, 0px);
  }
  50% {
  -webkit-transform:translate(10px, -0.5px);
  -ms-transform:translate(10px, -0.5px);
  -o-transform:translate(10px, -0.5px);
  -moz-transform:translate(10px, -0.5px);
  transform:translate(10px, -0.5px);
  }
  100% {
  -webkit-transform:translate(10px, 0px);
  -ms-transform:translate(10px, 0px);
  -o-transform:translate(10px, 0px);
  -moz-transform:translate(10px, 0px);
  transform:translate(10px, 0px);
  }
  }

  @keyframes penguin-14-move-leg {
  0% {
  -webkit-transform:rotate(0deg);
  -ms-transform:rotate(0deg);
  -o-transform:rotate(0deg);
  -moz-transform:rotate(0deg);
  transform:rotate(0deg);
  }
  50% {
  -webkit-transform:rotate(1deg);
  -ms-transform:rotate(1deg);
  -o-transform:rotate(1deg);
  -moz-transform:rotate(1deg);
  transform:rotate(1deg);
  }
  100% {
  -webkit-transform:rotate(0deg);
  -ms-transform:rotate(0deg);
  -o-transform:rotate(0deg);
  -moz-transform:rotate(0deg);
  transform:rotate(0deg);
  }
  }

  #penguin-14-body {
  animation-name:penguin-14-move-body;
  animation-duration:1s;
  animation-iteration-count:infinite;
  }

  #penguin-14-leg {
  animation-name:penguin-14-move-leg;
  animation-duration:0.5s;
  animation-iteration-count:360;
  animation-timing-function: ease-in;
  }

  #java-14-logo {
  animation-name:move-14-logo;
  animation-duration:1s;
  animation-iteration-count:infinite;
  }
</style>

  <g id="penguin-14" transform="translate(10, 20)">
    <svg width="600" height="300" viewBox="0 0 200 100" fill="none" overflow="visible">
      <g id="shadow" transform="translate(0.5, 8.5)">
        <rect width="13.3359" height="3.89813" transform="matrix(1 2.26611e-08 -2.79767e-08 -1 0 6.90123)" fill="#2B4447" fill-opacity="0.1"/>
        <rect width="11.1133" height="1.29938" transform="matrix(1 2.94396e-08 -2.1535e-08 -1 1.11133 8.20061)" fill="#2B4447" fill-opacity="0.1"/>
        <rect width="11.1133" height="1.29938" transform="matrix(1 2.94396e-08 -2.1535e-08 -1 1.14059 2.9689)" fill="#2B4447" fill-opacity="0.1"/>
        <rect width="8.89062" height="1.29938" transform="matrix(1 2.94396e-08 -2.1535e-08 -1 2.22266 9.5)" fill="#2B4447" fill-opacity="0.1"/>
        <rect width="8.89062" height="1.29938" transform="matrix(1 2.94396e-08 -2.1535e-08 -1 2.28119 1.6353)" fill="#2B4447" fill-opacity="0.1"/>
      </g>

      <g id="penguin-14-leg-out" transform="translate(2, 12)">
        <g id="penguin-14-leg">
          <rect x="0.667175" y="0.3367" width="2.66718" height="2.66719" fill="#FF6F0F"/>
          <rect x="2.00076" y="1.67029" width="2.66718" height="1.33359" fill="#FF6F0F"/>
          <rect x="6.00153" y="0.3367" width="2.66718" height="2.66719" fill="#FF6F0F"/>
          <rect x="7.33511" y="1.67029" width="2.66718" height="1.33359" fill="#FF6F0F"/>
        </g>
      </g>

      <g id="penguin-14-body">
        <rect x="2.66718" width="9.33515" height="12.1514" fill="white"/>
        <rect width="1.33359" height="7.59461" transform="matrix(-1 0 0 1 12.0023 1.51892)" fill="#2D2D2D"/>
        <rect width="1.33359" height="9.11353" transform="matrix(-1 0 0 1 13.3359 3.03784)" fill="#2D2D2D"/>
        <rect width="1.33359" height="7.59461" transform="matrix(-1 0 0 1 1.33359 3.03784)" fill="#2D2D2D"/>
        <rect width="1.33359" height="10.6325" transform="matrix(-1 0 0 1 2.66718 1.51892)" fill="#2D2D2D"/>
        <rect width="1" height="9" transform="matrix(-1 0 0 1 3.66666 0)" fill="#2D2D2D"/>
        <rect width="9.33515" height="1.51892" transform="matrix(1 0 0 -1 2.66718 13.6703)" fill="#2D2D2D"/>
      </g>

      <g id="penguin-14-head" transform="translate(2, -6.5)">
        <rect width="8.33333" height="2.66667" transform="matrix(-1 0 0 1 10 1.33333)" fill="#2D2D2D"/>
        <rect width="9.29025" height="2" transform="matrix(-1 0 0 1 9.95692 3)" fill="#2D2D2D"/>
        <rect width="1" height="4" transform="matrix(-1 0 0 1 1.66667 3)" fill="#2D2D2D"/>
        <rect width="3" height="2" transform="matrix(-1 0 0 1 10 4)" fill="#2D2D2D"/>
        <rect x="3" y="1.33333" width="5.66667" height="8" fill="white"/>
        <rect x="1.66667" y="4.66667" width="7" height="4.66667" fill="white"/>
        <rect x="8.66667" y="1.33333" width="5.66667" height="1.33333" transform="rotate(-180 8.66667 1.33333)" fill="#2D2D2D"/>
        <rect x="4.66667" y="4" width="1.33333" height="2" fill="black"/>
        <rect x="7" y="2.66667" width="1.33333" height="2" fill="black"/>
        <rect width="1.66667" height="1.33333" transform="matrix(-1 0 0 1 6.66667 1.33333)" fill="#2D2D2D"/>
        <rect x="7.33334" y="5.33437" width="2.88889" height="2.66719" fill="#FF6F0F"/>
        <rect x="8.77778" y="6.66795" width="2.88889" height="1.33359" fill="#FF6F0F"/>
      </g>

      <g id="java-14-logo" transform="translate(3, 3)">
        <rect x="4.32298" y="4.24459" width="0.454545" height="0.909091" transform="rotate(-18 4.32298 4.24459)" fill="#E2141F"/>
        <rect x="4.17162" y="5.24965" width="0.454545" height="0.909091" transform="rotate(-18 4.17162 5.24965)" fill="#E2141F"/>
        <rect x="3.87978" y="5.82241" width="0.454545" height="0.909091" transform="rotate(-18 3.87978 5.82241)" fill="#E2141F"/>
        <rect x="3.58794" y="6.39517" width="0.454545" height="0.909091" transform="rotate(-18 3.58794 6.39517)" fill="#E2141F"/>
        <rect x="3.2961" y="6.96793" width="0.454545" height="0.909091" transform="rotate(-18 3.2961 6.96793)" fill="#E2141F"/>
        <rect x="3.00427" y="7.5407" width="0.454545" height="0.909091" transform="rotate(-18 3.00427 7.5407)" fill="#E2141F"/>
        <rect x="3.71748" y="8.26483" width="0.454545" height="0.909091" transform="rotate(-18 3.71748 8.26483)" fill="#E2141F"/>
        <rect x="4.43071" y="8.98896" width="0.454545" height="0.454545" transform="rotate(-18 4.43071 8.98896)" fill="#E2141F"/>
        <rect x="5.43578" y="9.14034" width="0.454545" height="0.454545" transform="rotate(-18 5.43578 9.14034)" fill="#E2141F"/>
        <rect x="3.13382" y="9.41035" width="0.909091" height="0.454545" transform="rotate(-18 3.13382 9.41035)" fill="#0065B2"/>
        <rect x="2.82016" y="12.8578" width="0.909091" height="0.454545" transform="rotate(-18 2.82016 12.8578)" fill="#0065B2"/>
        <rect x="6.30037" y="8.85941" width="0.454545" height="0.454545" transform="rotate(-18 6.30037 8.85941)" fill="#0065B2"/>
        <rect x="7.15405" y="10.0158" width="0.454545" height="0.454545" transform="rotate(-18 7.15405 10.0158)" fill="#0065B2"/>
        <rect x="7.43498" y="10.8804" width="0.454545" height="0.454545" transform="rotate(-18 7.43498 10.8804)" fill="#0065B2"/>
        <rect x="7.16496" y="8.57849" width="0.909091" height="0.454545" transform="rotate(-18 7.16496 8.57849)" fill="#0065B2"/>
        <rect x="8.17003" y="8.72987" width="0.454545" height="0.454545" transform="rotate(-18 8.17003 8.72987)" fill="#0065B2"/>
        <rect x="7.87819" y="9.30262" width="0.454545" height="0.454545" transform="rotate(-18 7.87819 9.30262)" fill="#0065B2"/>
        <rect x="7.58635" y="9.87538" width="0.454545" height="0.454545" transform="rotate(-18 7.58635 9.87538)" fill="#0065B2"/>
        <rect x="3.55521" y="10.7072" width="0.454545" height="0.454545" transform="rotate(-18 3.55521 10.7072)" fill="#0065B2"/>
        <rect x="3.97659" y="12.0041" width="0.454545" height="0.454545" transform="rotate(-18 3.97659 12.0041)" fill="#0065B2"/>
        <rect x="3.26337" y="11.28" width="0.454545" height="0.454545" transform="rotate(-18 3.26337 11.28)" fill="#0065B2"/>
        <rect x="3.83612" y="11.5718" width="3.63636" height="0.454545" transform="rotate(-18 3.83612 11.5718)" fill="#0065B2"/>
        <rect x="4.54935" y="12.296" width="2.72727" height="0.454545" transform="rotate(-18 4.54935 12.296)" fill="#0065B2"/>
        <rect x="2.40968" y="10.1236" width="0.909091" height="0.454545" transform="rotate(-18 2.40968 10.1236)" fill="#0065B2"/>
        <rect x="2.52832" y="13.4306" width="0.454545" height="0.454545" transform="rotate(-18 2.52832 13.4306)" fill="#0065B2"/>
        <rect x="3.10109" y="13.7224" width="5.90909" height="0.454545" transform="rotate(-18 3.10109 13.7224)" fill="#0065B2"/>
        <rect x="8.58051" y="11.4641" width="0.454545" height="0.454545" transform="rotate(-18 8.58051 11.4641)" fill="#0065B2"/>
        <rect x="4.24661" y="14.3061" width="5" height="0.454545" transform="rotate(-18 4.24661 14.3061)" fill="#0065B2"/>
        <rect x="8.86142" y="12.3287" width="0.909091" height="0.454545" transform="rotate(-18 8.86142 12.3287)" fill="#0065B2"/>
        <rect x="3.41473" y="10.2749" width="3.18182" height="0.454545" transform="rotate(-18 3.41473 10.2749)" fill="#0065B2"/>
        <rect x="5.58714" y="8.13528" width="0.454545" height="0.909091" transform="rotate(-18 5.58714 8.13528)" fill="#E2141F"/>
        <rect x="5.01439" y="7.84344" width="0.454545" height="0.909091" transform="rotate(-18 5.01439 7.84344)" fill="#E2141F"/>
        <rect x="4.44162" y="7.55161" width="0.454545" height="0.909091" transform="rotate(-18 4.44162 7.55161)" fill="#E2141F"/>
        <rect x="4.73346" y="6.97885" width="0.454545" height="0.454545" transform="rotate(-18 4.73346 6.97885)" fill="#E2141F"/>
        <rect x="5.02528" y="6.40608" width="0.454545" height="0.454545" transform="rotate(-18 5.02528 6.40608)" fill="#E2141F"/>
        <rect x="5.31714" y="5.83332" width="0.454545" height="0.454545" transform="rotate(-18 5.31714 5.83332)" fill="#E2141F"/>
        <rect x="10.0154" y="7.65232" width="0.78125" height="2.73438" transform="rotate(-18 10.0154 7.65232)" fill="#E2141F"/>
        <rect x="9.99667" y="10.1228" width="1.17188" height="0.390625" transform="rotate(-18 9.99667 10.1228)" fill="#E2141F"/>
        <rect x="10.4889" y="10.3736" width="0.78125" height="0.390625" transform="rotate(-18 10.4889 10.3736)" fill="#E2141F"/>
        <rect x="9.87596" y="9.75127" width="0.390625" height="0.390625" transform="rotate(-18 9.87596 9.75127)" fill="#E2141F"/>
        <rect x="15.1978" y="8.43284" width="1.17188" height="0.78125" transform="rotate(-18 15.1978 8.43284)" fill="#E2141F"/>
        <rect x="15.8201" y="7.81992" width="0.78125" height="0.78125" transform="rotate(-18 15.8201 7.81992)" fill="#E2141F"/>
        <rect x="15.8295" y="6.58469" width="0.78125" height="1.5625" transform="rotate(-18 15.8295 6.58469)" fill="#E2141F"/>
        <rect x="14.7056" y="8.18204" width="0.78125" height="0.78125" transform="rotate(-18 14.7056 8.18204)" fill="#E2141F"/>
        <rect x="13.9719" y="7.18823" width="0.78125" height="1.5625" transform="rotate(-18 13.9719 7.18823)" fill="#E2141F"/>
        <rect x="12.8574" y="7.55037" width="0.78125" height="2.34375" transform="rotate(-18 12.8574 7.55037)" fill="#E2141F"/>
        <rect x="11.9843" y="8.65551" width="1.17188" height="0.390625" transform="rotate(-18 11.9843 8.65551)" fill="#E2141F"/>
        <rect width="1.5625" height="0.390625" transform="matrix(0.951057 -0.309017 -0.309017 -0.951057 11.7429 7.9125)" fill="#E2141F"/>
        <rect width="0.78125" height="0.390625" transform="matrix(0.951057 -0.309017 -0.309017 -0.951057 11.4921 8.40471)" fill="#E2141F"/>
        <rect x="11.7335" y="9.14772" width="0.78125" height="0.78125" transform="rotate(-18 11.7335 9.14772)" fill="#E2141F"/>
        <rect x="12.3464" y="9.77003" width="0.78125" height="0.390625" transform="rotate(-18 12.3464 9.77003)" fill="#E2141F"/>
        <rect x="12.9687" y="9.1571" width="0.78125" height="0.390625" transform="rotate(-18 12.9687 9.1571)" fill="#E2141F"/>
        <rect x="18.43" y="5.73972" width="0.78125" height="2.34375" transform="rotate(-18 18.43 5.73972)" fill="#E2141F"/>
        <rect x="17.5569" y="6.84486" width="1.17188" height="0.390625" transform="rotate(-18 17.5569 6.84486)" fill="#E2141F"/>
        <rect width="1.5625" height="0.390625" transform="matrix(0.951057 -0.309017 -0.309017 -0.951057 17.3155 6.10185)" fill="#E2141F"/>
        <rect width="0.78125" height="0.390625" transform="matrix(0.951057 -0.309017 -0.309017 -0.951057 17.0647 6.59406)" fill="#E2141F"/>
        <rect x="17.3061" y="7.33707" width="0.78125" height="0.78125" transform="rotate(-18 17.3061 7.33707)" fill="#E2141F"/>
        <rect x="17.919" y="7.95938" width="0.78125" height="0.390625" transform="rotate(-18 17.919 7.95938)" fill="#E2141F"/>
        <rect x="18.5413" y="7.34646" width="0.78125" height="0.390625" transform="rotate(-18 18.5413 7.34646)" fill="#E2141F"/>
      </g>
    </svg>
  </g>
</svg>
