<svg xmlns="http://www.w3.org/2000/svg" fill="none" overflow="visible"><script xmlns=""/><style>
  @keyframes pig-0-move-head {
  0% {
  transform:translate(11.16px, 0px);
  }
  50% {
  transform:translate(11.16px, 0px) rotate(2deg);
  }
  100% {
  transform:translate(11.16px, 0px);
  }
  }

  @keyframes pig-0-move-leg {
  0% {
  -webkit-transform:rotate(0deg);
  -ms-transform:rotate(0deg);
  -o-transform:rotate(0deg);
  -moz-transform:rotate(0deg);
  transform:rotate(0deg);
  }
  50% {
  -webkit-transform:rotate(2deg);
  -ms-transform:rotate(2deg);
  -o-transform:rotate(2deg);
  -moz-transform:rotate(2deg);
  transform:rotate(2deg);
  }
  100% {
  -webkit-transform:rotate(0deg);
  -ms-transform:rotate(0deg);
  -o-transform:rotate(0deg);
  -moz-transform:rotate(0deg);
  transform:rotate(0deg);
  }
  }

  #pig-0-head {
  animation-name:pig-0-move-head;
  animation-duration:1s;
  animation-iteration-count:infinite;
  }

  #pig-0-leg {
  animation-name:pig-0-move-leg;
  animation-duration:0.5s;
  animation-iteration-count:360;
  animation-timing-function: ease-in;
  }
</style>

  <g id="pig-0" transform="translate(10, 15)">
    <svg width="600" height="300" viewBox="0 0 200 100" fill="none" overflow="visible">
      <g id="shadow" transform="translate(-2, 3)">
        <rect width="22.4393" height="5.84859" transform="matrix(0.707107 0.707107 0.707107 -0.707107 2.75706 6.96593)" fill="#2B4447" fill-opacity="0.1"/>
        <rect width="18.6994" height="1.94953" transform="matrix(0.707107 0.707107 0.707107 -0.707107 2.70079 9.66671)" fill="#2B4447" fill-opacity="0.1"/>
        <rect width="18.6994" height="1.94953" transform="matrix(0.707107 0.707107 0.707107 -0.707107 8.286 4.15115)" fill="#2B4447" fill-opacity="0.1"/>
        <rect width="14.9596" height="1.94953" transform="matrix(0.707107 0.707107 0.707107 -0.707107 2.64451 12.3675)" fill="#2B4447" fill-opacity="0.1"/>
        <rect width="14.9596" height="1.94953" transform="matrix(0.707107 0.707107 0.707107 -0.707107 11.0579 4.09338)" fill="#2B4447" fill-opacity="0.1"/>
      </g>

      <g id="pig-0-body">
        <rect x="6.00146" width="7.50178" height="3.00071" fill="#BCCED4"/>
        <rect x="6.00146" width="6.00143" height="3.00071" fill="#BCCED4"/>
        <rect x="4.50098" y="6.00146" width="10.5025" height="3.00071" fill="#BCCED4"/>
        <rect x="4.50098" y="4.50098" width="1.50036" height="4.50107" fill="#BCCED4"/>
        <rect x="3.00049" y="3.00073" width="13.5032" height="4.50107" fill="#BCCED4"/>
        <rect x="9.00195" y="9.0022" width="7.50178" height="4.50107" fill="#BCCED4"/>
        <rect x="4.50098" y="6.00146" width="13.5032" height="4.50107" fill="#BCCED4"/>
        <rect x="6.00146" y="7.50171" width="13.5032" height="4.50107" fill="#BCCED4"/>
        <rect x="7.50195" y="9.0022" width="13.5032" height="4.50107" fill="#BCCED4"/>
        <rect x="10.5024" y="13.5032" width="7.50178" height="4.50107" fill="#BCCED4"/>
        <rect x="10.5024" y="13.5032" width="7.50178" height="4.50107" fill="#BCCED4"/>
        <rect x="12.0029" y="15.0037" width="7.50178" height="4.50107" fill="#BCCED4"/>
        <rect x="9.00195" y="10.5024" width="13.5032" height="4.50107" fill="#BCCED4"/>
        <rect x="12.0029" y="18.0044" width="6.00143" height="1.50036" fill="#A9BCC2"/>
        <rect x="10.5024" y="16.5039" width="1.50036" height="1.50036" fill="#A9BCC2"/>
        <rect x="9.00195" y="15.0037" width="1.50036" height="1.50036" fill="#A9BCC2"/>
        <rect x="7.50195" y="13.5032" width="1.50036" height="1.50036" fill="#A9BCC2"/>
        <rect x="6.00146" y="12.0029" width="1.50036" height="1.50036" fill="#A9BCC2"/>
        <rect x="4.50098" y="10.5024" width="1.50036" height="1.50036" fill="#A9BCC2"/>
        <rect x="3.00049" y="6.00146" width="1.50036" height="4.50107" fill="#A9BCC2"/>
        <rect y="4.50098" width="3.00071" height="1.50036" fill="#BCCED4"/>
        <rect x="3.00049" y="3.00073" width="1.50036" height="3.00071" fill="#BCCED4"/>
        <rect y="1.50024" width="3.00071" height="1.50036" fill="#BCCED4"/>
        <rect y="3.00073" width="1.50036" height="1.50036" fill="#BCCED4"/>
        <rect x="4.50098" y="1.50024" width="10.5025" height="3.00071" fill="#BCCED4"/>
      </g>

      <g id="pig-0-leg-out" transform="translate(5.1, 10)">
        <g id="pig-0-leg">
          <rect x="6.00146" y="4.50098" width="1.50036" height="6.00143" fill="#BCCED4"/>
          <rect x="4.50098" y="4.50098" width="1.50036" height="6.00143" fill="#A9BCC2"/>
          <rect x="1.50049" width="1.50036" height="7.50178" fill="#BCCED4"/>
          <rect width="1.50036" height="7.50178" fill="#A9BCC2"/>
        </g>
      </g>

      <g id="pig-0-head" transform="translate(2, -10.5)">
        <rect x="1.36377" y="4.66675" width="12.2727" height="12" fill="#BCCED4"/>
        <rect x="2.72705" y="7.33325" width="12.2727" height="8" fill="#BCCED4"/>
        <rect y="3.33325" width="15" height="1.33333" fill="#BCCED4"/>
        <rect x="1.36377" y="2" width="2.72727" height="1.33333" fill="#BCCED4"/>
        <rect x="12.2729" y="2" width="1.36364" height="1.33333" fill="#BCCED4"/>
        <rect x="2.72705" y="16.6667" width="10.9091" height="1.33333" fill="#A9BCC2"/>
        <rect width="1.36364" height="1.33333" transform="matrix(-1 0 0 1 2.72705 15.3333)" fill="#A9BCC2"/>
        <rect x="5.45459" y="10" width="6.81818" height="4" fill="#FFDEA6"/>
        <rect x="4.09082" y="11.3333" width="9.54545" height="1.33333" fill="#FFDEA6"/>
        <rect x="10.9092" y="7.33325" width="1.36364" height="1.33333" fill="#00A5FF"/>
        <rect x="5.45459" y="7.33325" width="1.36364" height="1.33333" fill="#00A5FF"/>
        <rect x="9.54541" y="11.3333" width="1.36364" height="1.33333" fill="black"/>
        <rect x="6.81836" y="11.3333" width="1.36364" height="1.33333" fill="black"/>
        <rect x="9" y="2" width="1" height="2" fill="#2D2D2D"/>
        <rect x="10" y="1" width="1" height="1" fill="#2D2D2D"/>
        <rect x="9" width="1" height="1" fill="#2D2D2D"/>
        <rect x="9" width="1" height="0.5" fill="#E2141F"/>
      </g>

    </svg>
  </g>
</svg>
