<svg xmlns="http://www.w3.org/2000/svg" fill="none" overflow="visible"><style>
  @keyframes fig-14-move-head {
  0% {
  -webkit-transform:translate(11.16px, 4px);
  -ms-transform:translate(11.16px, 4px);
  -o-transform:translate(11.16px, 4px);
  -moz-transform:translate(11.16px, 4px);
  transform:translate(11.16px, 4px);
  }
  50% {
  -webkit-transform:translate(11.16px, 4px) rotate(2deg);
  -ms-transform:translate(11.16px, 4px) rotate(2deg);
  -o-transform:translate(11.16px, 4px) rotate(2deg);
  -moz-transform:translate(11.16px, 4px) rotate(2deg);
  transform:translate(11.16px, 4px) rotate(2deg);
  }
  100% {
  -webkit-transform:translate(11.16px, 4px);
  -ms-transform:translate(11.16px, 4px);
  -o-transform:translate(11.16px, 4px);
  -moz-transform:translate(11.16px, 4px);
  transform:translate(11.16px, 4px);
  }
  }

  @keyframes fig-14-move-leg {
  0% {
  -webkit-transform:rotate(0deg);
  -ms-transform:rotate(0deg);
  -o-transform:rotate(0deg);
  -moz-transform:rotate(0deg);
  transform:rotate(0deg);
  }
  50% {
  -webkit-transform:rotate(2deg);
  -ms-transform:rotate(2deg);
  -o-transform:rotate(2deg);
  -moz-transform:rotate(2deg);
  transform:rotate(2deg);
  }
  100% {
  -webkit-transform:rotate(0deg);
  -ms-transform:rotate(0deg);
  -o-transform:rotate(0deg);
  -moz-transform:rotate(0deg);
  transform:rotate(0deg);
  }
  }

  #fig-14-head {
  animation-name:fig-14-move-head;
  animation-duration:1s;
  animation-iteration-count:infinite;
  }

  #fig-14-leg {
  animation-name:fig-14-move-leg;
  animation-duration:0.5s;
  animation-iteration-count:360;
  animation-timing-function: ease-in;
  }
</style>

  <g id="fig-14" transform="translate(10, 10)">
    <svg width="600" height="300" viewBox="0 0 200 100" fill="none" overflow="visible">
      <g id="shadow" transform="translate(-2, 3)">
        <rect width="22.4393" height="5.84859" transform="matrix(0.707107 0.707107 0.707107 -0.707107 2.75706 6.96593)" fill="#2B4447" fill-opacity="0.1"/>
        <rect width="18.6994" height="1.94953" transform="matrix(0.707107 0.707107 0.707107 -0.707107 2.70079 9.66671)" fill="#2B4447" fill-opacity="0.1"/>
        <rect width="18.6994" height="1.94953" transform="matrix(0.707107 0.707107 0.707107 -0.707107 8.286 4.15115)" fill="#2B4447" fill-opacity="0.1"/>
        <rect width="14.9596" height="1.94953" transform="matrix(0.707107 0.707107 0.707107 -0.707107 2.64451 12.3675)" fill="#2B4447" fill-opacity="0.1"/>
        <rect width="14.9596" height="1.94953" transform="matrix(0.707107 0.707107 0.707107 -0.707107 11.0579 4.09338)" fill="#2B4447" fill-opacity="0.1"/>
      </g>

      <g id="fig-14-body">
        <rect x="6.50179" width="7.50178" height="3.00071" fill="#FBB3BE"/>
        <rect x="6.50179" width="6.00143" height="3.00071" fill="#FBB3BE"/>
        <rect x="5.00143" y="6.00143" width="10.5025" height="3.00071" fill="#FBB3BE"/>
        <rect x="5.00143" y="4.50107" width="1.50036" height="4.50107" fill="#FBB3BE"/>
        <rect x="3.50107" y="3.00071" width="13.5032" height="4.50107" fill="#FBB3BE"/>
        <rect x="9.5025" y="9.00214" width="7.50178" height="4.50107" fill="#FBB3BE"/>
        <rect x="5.00143" y="6.00143" width="13.5032" height="4.50107" fill="#FBB3BE"/>
        <rect x="6.50179" y="7.50179" width="13.5032" height="4.50107" fill="#FBB3BE"/>
        <rect x="8.00214" y="9.00214" width="13.5032" height="4.50107" fill="#FBB3BE"/>
        <rect x="11.0029" y="13.5032" width="7.50178" height="4.50107" fill="#FBB3BE"/>
        <rect x="11.0029" y="13.5032" width="7.50178" height="4.50107" fill="#FBB3BE"/>
        <rect x="12.5032" y="15.0036" width="7.50178" height="4.50107" fill="#FBB3BE"/>
        <rect x="9.5025" y="10.5025" width="13.5032" height="4.50107" fill="#FBB3BE"/>
        <rect x="12.5032" y="18.0043" width="6.00143" height="1.50036" fill="#D897A1"/>
        <rect x="11.0029" y="16.5039" width="1.50036" height="1.50036" fill="#D897A1"/>
        <rect x="9.5025" y="15.0036" width="1.50036" height="1.50036" fill="#D897A1"/>
        <rect x="8.00214" y="13.5032" width="1.50036" height="1.50036" fill="#D897A1"/>
        <rect x="6.50179" y="12.0029" width="1.50036" height="1.50036" fill="#D897A1"/>
        <rect x="5.00143" y="10.5025" width="1.50036" height="1.50036" fill="#D897A1"/>
        <rect x="3.50107" y="6.00143" width="1.50036" height="4.50107" fill="#D897A1"/>
        <rect x="0.500359" y="4.50107" width="3.00071" height="1.50036" fill="#FBB3BE"/>
        <rect x="3.50107" y="3.00071" width="1.50036" height="3.00071" fill="#FBB3BE"/>
        <rect x="0.500359" y="1.50036" width="3.00071" height="1.50036" fill="#FBB3BE"/>
        <rect x="0.500359" y="3.00071" width="1.50036" height="1.50036" fill="#FBB3BE"/>
        <rect x="5.00143" y="1.50036" width="10.5025" height="3.00071" fill="#FBB3BE"/>
      </g>

      <g id="js-14-logo" transform="translate(5, 3)">
        <rect x="2.82843" width="9.14286" height="4" transform="rotate(45 2.82843 0)" fill="#F7DF1E"/>
        <rect x="6.16194" y="4.14162" width="0.714286" height="2.5" transform="rotate(45 6.16194 4.14162)" fill="black"/>
        <rect x="4.14162" y="5.15179" width="1.07143" height="0.357143" transform="rotate(45 4.14162 5.15179)" fill="black"/>
        <rect x="4.14162" y="5.65686" width="0.714286" height="0.357143" transform="rotate(45 4.14162 5.65686)" fill="black"/>
        <rect x="4.39417" y="4.89925" width="0.357143" height="0.357143" transform="rotate(45 4.39417 4.89925)" fill="black"/>
        <rect x="7.2731" y="5.25279" width="1.78571" height="0.714286" transform="rotate(45 7.2731 5.25279)" fill="black"/>
        <rect x="6.51548" y="6.01042" width="1.78571" height="0.714286" transform="rotate(45 6.51548 6.01042)" fill="black"/>
        <rect x="5.75787" y="6.76802" width="1.78571" height="0.714286" transform="rotate(45 5.75787 6.76802)" fill="black"/>
        <rect x="7.02057" y="5.50533" width="0.714286" height="1.07143" transform="rotate(45 7.02057 5.50533)" fill="black"/>
        <rect x="7.02057" y="7.02057" width="0.714286" height="1.07143" transform="rotate(45 7.02057 7.02057)" fill="black"/>
      </g>

      <g id="fig-14-leg-out" transform="translate(5.1, 10)">
        <g id="fig-14-leg">
          <rect x="6.00286" y="5.00357" width="1.50036" height="6.00143" fill="#FBB3BE"/>
          <rect x="4.5025" y="5.00357" width="1.50036" height="6.00143" fill="#D897A1"/>
          <rect x="1.50179" y="0.502499" width="1.50036" height="7.50178" fill="#FBB3BE"/>
          <rect x="0.0014267" y="0.502499" width="1.50036" height="7.50178" fill="#D897A1"/>
        </g>
      </g>

      <g id="fig-14-head" transform="translate(2, -6.5)">
        <rect x="1.36364" y="2.66666" width="12.2727" height="12" fill="#FBB3BE"/>
        <rect x="2.72727" y="5.33333" width="12.2727" height="8" fill="#FBB3BE"/>
        <rect y="1.33334" width="15" height="1.33333" fill="#FBB3BE"/>
        <rect x="1.36364" width="2.72727" height="1.33333" fill="#FBB3BE"/>
        <rect x="12.2727" width="1.36364" height="1.33333" fill="#FBB3BE"/>
        <rect x="2.72727" y="14.6667" width="10.9091" height="1.33333" fill="#D897A1"/>
        <rect width="1.36364" height="1.33333" transform="matrix(-1 0 0 1 2.72727 13.3333)" fill="#D897A1"/>
        <rect x="5.45454" y="8" width="6.81818" height="4" fill="#FC899A"/>
        <rect x="4.0909" y="9.33334" width="9.54545" height="1.33333" fill="#FC899A"/>
        <rect x="10.9091" y="5.33333" width="1.36364" height="1.33333" fill="black"/>
        <rect x="5.45454" y="5.33333" width="1.36364" height="1.33333" fill="black"/>
        <rect x="9.54546" y="9.33333" width="1.36364" height="1.33333" fill="black"/>
        <rect x="6.81818" y="9.33333" width="1.36364" height="1.33333" fill="black"/>
      </g>
    </svg>

  </g>
</svg>
