<svg xmlns="http://www.w3.org/2000/svg" fill="none" overflow="visible"><style>
  @keyframes shiba-0-head-move {
  0% {
  transform: translate(0px, 0px) rotate(0deg);
  }
  50% {
  transform: translate(2px, -1px) rotate(10deg);
  }
  100% {
  transform: translate(0px, -0px) rotate(0deg);
  }
  }

  @keyframes shiba-0-obj-move {
  0% {
  transform: translate(0, 0px);
  }
  15% {
  transform: translate(0, -2.5px);
  }
  30% {
  transform: translate(0, 0px);
  }
  100% {
  transform: translate(0, 0px);
  }
  }

  @keyframes shiba-0-shadow-move {
  0% {
  transform: translate(-3px, 11px) scaleX(1);
  }
  15% {
  transform: translate(-3px, 11px) scaleX(1.2);
  }
  30% {
  transform: translate(-3px, 11px) scaleX(1);
  }
  100% {
  transform: translate(-3px, 11px) scaleX(1);
  }
  }

  #shiba-0-shadow {
  animation-name: shiba-0-shadow-move;
  animation-duration:2s;
  animation-iteration-count:infinite;
  animation-timing-function: ease-in-out;
  }

  #shiba-0-obj {
  animation-name: shiba-0-obj-move;
  animation-duration:2s;
  animation-iteration-count:infinite;
  animation-timing-function: ease-in-out;
  }

  #shiba-0-head {
  animation-name: shiba-0-head-move;
  animation-duration:1s;
  animation-iteration-count:infinite;
  animation-timing-function: ease-in-out;
  }
</style>

  <g id="shiba-0" transform="translate(15, 15)">
    <svg width="600" height="300" viewBox="0 0 200 100" fill="none" overflow="visible">
      <g id="shiba-0-shadow" transform="translate(-3, 11)">
        <rect width="13" height="1" transform="matrix(-1 0 0 1 13 0.5)" fill="#2B4447" fill-opacity="0.1"/>
        <rect width="11" height="0.25" transform="matrix(-1 0 0 1 11.9999 0.25)" fill="#2B4447" fill-opacity="0.1"/>
        <rect width="11" height="0.25" transform="matrix(-1 0 0 1 11.9999 1.5)" fill="#2B4447" fill-opacity="0.1"/>
        <rect width="9" height="0.25" transform="matrix(-1 0 0 1 11.0002 0)" fill="#2B4447" fill-opacity="0.1"/>
        <rect width="9" height="0.25" transform="matrix(-1 0 0 1 11.0002 1.75)" fill="#2B4447" fill-opacity="0.1"/>
      </g>
      <g id="shiba-0-obj">
        <g id="shiba-0-body" transform="translate(-4, 7)">
          <rect x="5" width="6" height="4" fill="#FFCF9E"/>
          <rect x="3" y="1" width="8" height="3" fill="#FFCF9E"/>
          <rect x="3" y="2" width="7" height="2" fill="#FFCF9E"/>
          <rect x="3" y="3" width="8" height="1" fill="#FFCF9E"/>
          <rect x="4" y="3" width="8" height="2" fill="#FFCF9E"/>
          <rect x="2" y="2" width="7" height="2" fill="#FFCF9E"/>
          <rect y="1" width="2" height="1" fill="#FFCF9E"/>
          <rect width="1" height="2" transform="matrix(-1 0 0 1 2 1)" fill="#FFCF9E"/>
          <rect x="4" y="4" width="1" height="1" fill="#FFF2E4"/>
          <rect x="8" y="4" width="1" height="1" fill="#FFF2E4"/>
          <rect x="10" y="4" width="1" height="1" fill="#FFF2E4"/>
          <rect x="2" y="3" width="1" height="1" fill="#FFF2E4"/>
          <rect y="1" width="1" height="1" fill="#FFF2E4"/>
          <rect x="8" y="4.5" width="1" height="0.5" fill="black" fill-opacity="0.1"/>
          <rect x="10" y="4.5" width="1" height="0.5" fill="black" fill-opacity="0.1"/>
        </g>
        <g id="shiba-0-head" transform="translate(0, 0)">
          <rect x="4" width="0.8" height="2.25" fill="#FFD600"/>
          <rect x="4.79999" y="0.75" width="0.8" height="1.5" fill="#FFD600"/>
          <rect x="5.60001" width="0.8" height="2.25" fill="#FFD600"/>
          <rect x="6.39999" y="0.75" width="0.8" height="1.5" fill="#FFD600"/>
          <rect x="7.20001" width="0.8" height="2.25" fill="#FFD600"/>
          <rect x="3" y="2" width="5" height="8" fill="#FFCF9E"/>
          <rect x="1" y="3" width="8" height="6" fill="#FFCF9E"/>
          <rect x="1" y="7" width="9" height="2" fill="#FFCF9E"/>
          <rect y="5" width="10" height="3" fill="#FFCF9E"/>
          <rect x="2" y="5" width="1" height="2" transform="rotate(180 2 5)" fill="#FFCF9E"/>
          <rect x="10" y="5" width="2" height="2" transform="rotate(180 10 5)" fill="#FFCF9E"/>
          <rect x="3" y="5" width="2" height="4" transform="rotate(180 3 5)" fill="#FFCF9E"/>
          <rect x="10" y="4" width="2" height="2" transform="rotate(180 10 4)" fill="#FFCF9E"/>
          <rect x="11" y="3" width="3" height="2" transform="rotate(180 11 3)" fill="#FFCF9E"/>
          <rect x="10" y="4" width="1" height="4" transform="rotate(180 10 4)" fill="#FFCF9E"/>
          <rect x="1" y="5" width="10" height="3" fill="#FFCF9E"/>
          <rect x="1" y="3" width="1" height="2" fill="black" fill-opacity="0.1"/>
          <rect y="5" width="1" height="1" fill="black" fill-opacity="0.1"/>
          <rect x="8" y="2" width="1" height="1" fill="black" fill-opacity="0.1"/>
          <rect x="8" y="1" width="1" height="1" fill="black" fill-opacity="0.1"/>
          <rect x="3" y="2" width="2" height="1" fill="black"/>
          <rect y="7" width="10" height="1" fill="#FFF2E4"/>
          <rect x="1" y="7" width="9" height="2" fill="#FFF2E4"/>
          <rect y="6" width="4" height="2" fill="#FFF2E4"/>
          <rect x="4.60001" y="6" width="3.75" height="2" fill="#FFF2E4"/>
          <rect x="5.75" y="5" width="1.5" height="3" fill="#FFF2E4"/>
          <rect x="3" y="3" width="3" height="2" transform="rotate(180 3 3)" fill="#FFCF9E"/>
          <rect x="2" y="3" width="1" height="3" transform="rotate(180 2 3)" fill="#FFCF9E"/>
          <rect y="1" width="1" height="2" fill="black" fill-opacity="0.1"/>
          <rect x="3" y="3" width="2" height="2" transform="rotate(180 3 3)" fill="#FFCF9E"/>
          <rect x="1" width="1" height="1" fill="black" fill-opacity="0.1"/>
          <rect x="1" y="2" width="1" height="1" fill="#FFF2E4"/>
          <rect x="9" y="1" width="1" height="2" fill="#FFF2E4"/>
          <rect x="9" y="6" width="2" height="2" fill="#FFF2E4"/>
          <rect x="3" y="7" width="6" height="3" fill="#FFF2E4"/>
          <rect x="1" y="8" width="2" height="1" fill="black" fill-opacity="0.1"/>
          <rect y="6" width="1" height="2" fill="black" fill-opacity="0.1"/>
          <rect x="3" y="9" width="3" height="1" fill="black" fill-opacity="0.1"/>
          <rect x="4" y="4" width="1" height="1" fill="black"/>
          <rect x="8" y="4" width="1" height="1" fill="black"/>
          <rect x="6" y="6" width="1" height="1" fill="black"/>
          <rect x="5" y="7" width="1" height="1" fill="black"/>
          <rect x="7" y="7" width="1" height="1" fill="black"/>
          <rect width="2" height="1" transform="matrix(-1 0 0 1 4 6)" fill="#FF778F"/>
          <rect width="2" height="1" transform="matrix(-1 0 0 1 11 6)" fill="#FF778F"/>
          <rect width="1" height="1.5" transform="matrix(-1 0 0 1 7 7)" fill="#FF778F"/>
          <rect x="8" y="2" width="2" height="1" fill="black"/>
        </g>
      </g>
    </svg>
  </g>
</svg>
