<svg xmlns="http://www.w3.org/2000/svg" fill="none" overflow="visible"><style>
  @keyframes slime-14-move-body {
  0% {
  -webkit-transform: scaleY(1);
  -ms-transform: scaleY(1);
  -o-transform: scaleY(1);
  -moz-transform: scaleY(1);
  transform: scaleY(1);
  }
  70% {
  -webkit-transform: scaleY(0.9);
  -ms-transform: scaleY(0.9);
  -o-transform: scaleY(0.9);
  -moz-transform: scaleY(0.9);
  transform: scaleY(0.9);
  }
  100% {
  -webkit-transform: scaleY(1);
  -ms-transform: scaleY(1);
  -o-transform: scaleY(1);
  -moz-transform: scaleY(1);
  transform: scaleY(1);
  }
  }

  #slime-14-body {
  animation-name:slime-14-move-body;
  animation-duration:1s;
  animation-iteration-count:infinite;
  }

  @keyframes slime-14-move-shadow {
  0% {
  -webkit-transform: translate(0px, 6px) scaleY(1);
  -ms-transform: translate(0px, 6px) scaleY(1);
  -o-transform: translate(0px, 6px) scaleY(1);
  -moz-transform: translate(0px, 6px) scaleY(1);
  transform: translate(0px, 6px) scaleY(1);
  }
  70% {
  -webkit-transform: translate(0px, 6px) scaleY(1.1);
  -ms-transform: translate(0px, 6px) scaleY(1.1);
  -o-transform: translate(0px, 6px) scaleY(1.1);
  -moz-transform: translate(0px, 6px) scaleY(1.1);
  transform: translate(0px, 6px) scaleY(1.1);
  }
  100% {
  -webkit-transform: translate(0px, 6px) scaleY(1);
  -ms-transform: translate(0px, 6px) scaleY(1);
  -o-transform: translate(0px, 6px) scaleY(1);
  -moz-transform: translate(0px, 6px) scaleY(1);
  transform: translate(0px, 6px) scaleY(1);
  }
  }

  #slime-14-shadow {
  animation-name:slime-2-move-shadow;
  animation-duration:1s;
  animation-iteration-count:infinite;
  }
</style>

  <g id="slime-14">
    <svg width="600" height="300" viewBox="0 0 200 100" fill="none" overflow="visible">
      <g id="slime-14-shadow" transform="translate(0, 6)">
        <rect width="13.3359" height="3.89813" transform="matrix(1 2.26611e-08 -2.79767e-08 -1 0 6.56531)" fill="#2B4447" fill-opacity="0.1"/>
        <rect width="11.1133" height="1.29938" transform="matrix(1 2.94396e-08 -2.1535e-08 -1 1.11133 7.86469)" fill="#2B4447" fill-opacity="0.1"/>
        <rect width="11.1133" height="1.29938" transform="matrix(1 2.94396e-08 -2.1535e-08 -1 1.14059 2.63298)" fill="#2B4447" fill-opacity="0.1"/>
        <rect width="8.89062" height="1.29938" transform="matrix(1 2.94396e-08 -2.1535e-08 -1 2.22266 9.16408)" fill="#2B4447" fill-opacity="0.1"/>
        <rect width="8.89062" height="1.29938" transform="matrix(1 2.94396e-08 -2.1535e-08 -1 2.28119 1.29938)" fill="#2B4447" fill-opacity="0.1"/>
      </g>

      <g id="slime-14-body">
        <rect x="5" y="1" width="4" height="1" fill="#F6869F"/>
        <rect x="11" y="3" width="1" height="1" fill="#F6869F"/>
        <rect x="2" y="11" width="10" height="1" fill="#F6869F"/>
        <rect x="1" y="10" width="12" height="1" fill="#F6869F"/>
        <rect x="1" y="4" width="12" height="1" fill="#F6869F"/>
        <rect x="2" y="2" width="9" height="2" fill="#F6869F"/>
        <rect x="3" width="2" height="2" fill="#F6869F"/>
        <rect y="5" width="14" height="5" fill="#F6869F"/>
        <rect x="1" y="9" width="1" height="2" fill="#CB6F84"/>
        <rect x="2" y="10" width="1" height="1" fill="#CB6F84"/>
        <rect y="8" width="1" height="2" fill="#CB6F84"/>
        <rect x="2" y="11" width="10" height="1" fill="#CB6F84"/>
        <rect x="4" y="7.31763" width="1.5" height="1.5" transform="rotate(-18 4 7.31763)" fill="#F15137"/>
        <rect x="4.46753" y="8.21718" width="1" height="0.166667" transform="rotate(-18 4.46753 8.21718)" fill="white"/>
        <rect x="5.00256" y="7.16711" width="0.166667" height="1" transform="rotate(-18 5.00256 7.16711)" fill="white"/>
        <rect x="4.84005" y="7.74567" width="0.333333" height="0.333333" transform="rotate(-18 4.84005 7.74567)" fill="white"/>
        <rect x="4.68154" y="7.79715" width="0.333333" height="0.166667" transform="rotate(-18 4.68154 7.79715)" fill="white"/>
        <rect x="4.78855" y="7.58713" width="0.166667" height="0.333333" transform="rotate(-18 4.78855 7.58713)" fill="white"/>
        <rect x="4.47153" y="7.69016" width="0.166667" height="0.166667" transform="rotate(-18 4.47153 7.69016)" fill="white"/>
        <rect x="4.26151" y="7.58315" width="0.166667" height="0.166667" transform="rotate(-18 4.26151 7.58315)" fill="white"/>
        <rect x="5.41858" y="7.90816" width="0.166667" height="0.166667" transform="rotate(-18 5.41858 7.90816)" fill="white"/>
        <rect x="5.47009" y="8.06667" width="0.166667" height="0.166667" transform="rotate(-18 5.47009 8.06667)" fill="white"/>
        <rect x="4.57854" y="7.48013" width="0.166667" height="0.166667" transform="rotate(-18 4.57854 7.48013)" fill="white"/>
        <rect x="7.53071" y="7.39714" width="0.5" height="0.333333" transform="rotate(-18 7.53071 7.39714)" fill="black"/>
        <rect x="7.79622" y="7.13562" width="0.333333" height="0.333333" transform="rotate(-18 7.79622 7.13562)" fill="black"/>
        <rect x="7.80022" y="6.6086" width="0.333333" height="0.666667" transform="rotate(-18 7.80022 6.6086)" fill="black"/>
        <rect x="7.32069" y="7.29015" width="0.333333" height="0.333333" transform="rotate(-18 7.32069 7.29015)" fill="black"/>
        <rect x="7.00768" y="6.86612" width="0.333333" height="0.666667" transform="rotate(-18 7.00768 6.86612)" fill="black"/>
        <rect x="8.32325" y="7.13962" width="0.5" height="0.333333" transform="rotate(-18 8.32325 7.13962)" fill="black"/>
        <rect x="8.58877" y="6.87811" width="0.333333" height="0.333333" transform="rotate(-18 8.58877 6.87811)" fill="black"/>
        <rect x="8.59277" y="6.35109" width="0.333333" height="0.666667" transform="rotate(-18 8.59277 6.35109)" fill="black"/>
        <rect x="8.11324" y="7.03262" width="0.333333" height="0.333333" transform="rotate(-18 8.11324 7.03262)" fill="black"/>
        <rect x="5.95362" y="6.85809" width="0.833333" height="0.333333" transform="rotate(-18 5.95362 6.85809)" fill="black"/>
        <rect x="6.10813" y="7.33363" width="0.833333" height="0.333333" transform="rotate(-18 6.10813 7.33363)" fill="black"/>
        <rect x="6.26263" y="7.80916" width="0.833333" height="0.333333" transform="rotate(-18 6.26263 7.80916)" fill="black"/>
        <rect x="6.00512" y="7.0166" width="0.333333" height="0.5" transform="rotate(-18 6.00512 7.0166)" fill="black"/>
        <rect x="6.63516" y="7.33763" width="0.333333" height="0.5" transform="rotate(-18 6.63516 7.33763)" fill="black"/>
        <rect width="0.333333" height="1.16667" transform="matrix(-0.951057 0.309017 0.309017 0.951057 9.96785 5.72905)" fill="black"/>
        <rect width="0.833333" height="0.166667" transform="matrix(-0.951057 0.309017 0.309017 0.951057 10.3879 5.94305)" fill="black"/>
        <rect width="0.333333" height="0.166667" transform="matrix(-0.951057 0.309017 0.309017 0.951057 10.0749 5.51903)" fill="black"/>
        <rect width="0.166667" height="0.166667" transform="matrix(-0.951057 0.309017 0.309017 0.951057 10.2849 5.62604)" fill="black"/>
        <rect x="9.1198" y="6.35509" width="0.333333" height="0.833333" transform="rotate(-18 9.1198 6.35509)" fill="black"/>
        <rect x="8.96529" y="5.87955" width="0.333333" height="0.333333" transform="rotate(-18 8.96529 5.87955)" fill="black"/>
        <rect width="0.5" height="0.166667" transform="matrix(-0.951057 0.309017 0.309017 0.951057 11.4934 6.10957)" fill="black"/>
        <rect width="0.333333" height="0.166667" transform="matrix(-0.951057 0.309017 0.309017 0.951057 11.3864 6.3196)" fill="black"/>
        <rect width="0.833333" height="0.166667" transform="matrix(-0.951057 0.309017 0.309017 0.951057 11.2874 5.47552)" fill="black"/>
        <rect width="0.166667" height="0.166667" transform="matrix(-0.951057 0.309017 0.309017 0.951057 11.4419 5.95107)" fill="black"/>
        <rect width="0.333333" height="1" transform="matrix(-0.951057 0.309017 0.309017 0.951057 10.9189 5.42001)" fill="black"/>
        <rect width="12" height="1" transform="matrix(1 0 0 -1 1 5)" fill="#F6869F" fill-opacity="0.5"/>
        <rect width="10" height="1" transform="matrix(1 0 0 -1 2 4)" fill="#F6869F" fill-opacity="0.5"/>
        <rect y="5" width="14" height="5" fill="#F6869F" fill-opacity="0.5"/>
        <rect x="7" y="7" width="1" height="2" fill="black"/>
        <rect x="11" y="7" width="1" height="2" fill="black"/>
      </g>
    </svg>
  </g>
</svg>
