<svg xmlns="http://www.w3.org/2000/svg" fill="none" overflow="visible">
  <style>
    @keyframes slime-14-move-body {
    0% {
    -webkit-transform: scaleY(1);
    -ms-transform: scaleY(1);
    -o-transform: scaleY(1);
    -moz-transform: scaleY(1);
    transform: scaleY(1);
    }
    70% {
    -webkit-transform: scaleY(0.9);
    -ms-transform: scaleY(0.9);
    -o-transform: scaleY(0.9);
    -moz-transform: scaleY(0.9);
    transform: scaleY(0.9);
    }
    100% {
    -webkit-transform: scaleY(1);
    -ms-transform: scaleY(1);
    -o-transform: scaleY(1);
    -moz-transform: scaleY(1);
    transform: scaleY(1);
    }
    }

    #slime-14-body {
    animation-name:slime-14-move-body;
    animation-duration:1s;
    animation-iteration-count:infinite;
    }

    @keyframes slime-14-move-shadow {
    0% {
    -webkit-transform: translate(0px, 6px) scaleY(1);
    -ms-transform: translate(0px, 6px) scaleY(1);
    -o-transform: translate(0px, 6px) scaleY(1);
    -moz-transform: translate(0px, 6px) scaleY(1);
    transform: translate(0px, 6px) scaleY(1);
    }
    70% {
    -webkit-transform: translate(0px, 6px) scaleY(1.1);
    -ms-transform: translate(0px, 6px) scaleY(1.1);
    -o-transform: translate(0px, 6px) scaleY(1.1);
    -moz-transform: translate(0px, 6px) scaleY(1.1);
    transform: translate(0px, 6px) scaleY(1.1);
    }
    100% {
    -webkit-transform: translate(0px, 6px) scaleY(1);
    -ms-transform: translate(0px, 6px) scaleY(1);
    -o-transform: translate(0px, 6px) scaleY(1);
    -moz-transform: translate(0px, 6px) scaleY(1);
    transform: translate(0px, 6px) scaleY(1);
    }
    }

    #slime-14-shadow {
    animation-name:slime-2-move-shadow;
    animation-duration:1s;
    animation-iteration-count:infinite;
    }
  </style>

  <g id="slime-14">
    <svg width="600" height="300" viewBox="0 0 200 100" fill="none" overflow="visible">
      <g id="slime-14-shadow" transform="translate(0, 6)">
        <rect width="13.3359" height="3.89813"
          transform="matrix(1 2.26611e-08 -2.79767e-08 -1 0 6.56531)" fill="#2B4447"
          fill-opacity="0.1"/>
        <rect width="11.1133" height="1.29938"
          transform="matrix(1 2.94396e-08 -2.1535e-08 -1 1.11133 7.86469)" fill="#2B4447"
          fill-opacity="0.1"/>
        <rect width="11.1133" height="1.29938"
          transform="matrix(1 2.94396e-08 -2.1535e-08 -1 1.14059 2.63298)" fill="#2B4447"
          fill-opacity="0.1"/>
        <rect width="8.89062" height="1.29938"
          transform="matrix(1 2.94396e-08 -2.1535e-08 -1 2.22266 9.16408)" fill="#2B4447"
          fill-opacity="0.1"/>
        <rect width="8.89062" height="1.29938"
          transform="matrix(1 2.94396e-08 -2.1535e-08 -1 2.28119 1.29938)" fill="#2B4447"
          fill-opacity="0.1"/>
      </g>

      <g id="slime-14-body">
        <rect x="5" y="1" width="4" height="1" fill="#F6869F"/>
        <rect x="11" y="3" width="1" height="1" fill="#F6869F"/>
        <rect x="2" y="11" width="10" height="1" fill="#F6869F"/>
        <rect x="1" y="10" width="12" height="1" fill="#F6869F"/>
        <rect x="1" y="4" width="12" height="1" fill="#F6869F"/>
        <rect x="2" y="2" width="9" height="2" fill="#F6869F"/>
        <rect x="3" width="2" height="2" fill="#F6869F"/>
        <rect y="5" width="14" height="5" fill="#F6869F"/>
        <rect x="1" y="9" width="1" height="2" fill="#CB6F84"/>
        <rect x="2" y="10" width="1" height="1" fill="#CB6F84"/>
        <rect y="8" width="1" height="2" fill="#CB6F84"/>
        <rect x="2" y="11" width="10" height="1" fill="#CB6F84"/>
        <rect x="6.15199" y="8.41415" width="0.360294" height="0.380956"
          transform="rotate(-18 6.15199 8.41415)" fill="#FF6F0F"/>
        <rect x="6.38217" y="8.53966" width="0.360294" height="0.190478"
          transform="rotate(-18 6.38217 8.53966)" fill="#FF6F0F"/>
        <rect x="6.8373" y="8.19148" width="0.360294" height="0.380956"
          transform="rotate(-18 6.8373 8.19148)" fill="#FF6F0F"/>
        <rect x="7.06748" y="8.31697" width="0.360294" height="0.190478"
          transform="rotate(-18 7.06748 8.31697)" fill="#FF6F0F"/>
        <rect x="5.60749" y="6.73836" width="1.26103" height="1.73559"
          transform="rotate(-18 5.60749 6.73836)" fill="white"/>
        <rect width="0.180147" height="1.08474"
          transform="matrix(-0.951057 0.309017 0.309017 0.951057 6.87383 6.55499)" fill="#2D2D2D"/>
        <rect width="0.180147" height="1.30169"
          transform="matrix(-0.951057 0.309017 0.309017 0.951057 7.11221 6.70566)" fill="#2D2D2D"/>
        <rect width="0.180147" height="1.08474"
          transform="matrix(-0.951057 0.309017 0.309017 0.951057 5.57023 7.20667)" fill="#2D2D2D"/>
        <rect width="0.180147" height="1.51864"
          transform="matrix(-0.951057 0.309017 0.309017 0.951057 5.67453 6.94467)" fill="#2D2D2D"/>
        <rect width="0.135084" height="1.28548"
          transform="matrix(-0.951057 0.309017 0.309017 0.951057 5.73588 6.69662)" fill="#2D2D2D"/>
        <rect width="1.26103" height="0.216949"
          transform="matrix(0.951057 -0.309017 -0.309017 -0.951057 6.21086 8.59532)"
          fill="#2D2D2D"/>
        <rect width="1.1257" height="0.380882"
          transform="matrix(-0.951057 0.309017 0.309017 0.951057 6.60052 5.71483)" fill="#2D2D2D"/>
        <rect width="1.25497" height="0.285661"
          transform="matrix(-0.951057 0.309017 0.309017 0.951057 6.66855 5.94302)" fill="#2D2D2D"/>
        <rect width="0.135084" height="0.571323"
          transform="matrix(-0.951057 0.309017 0.309017 0.951057 5.60348 6.28908)" fill="#2D2D2D"/>
        <rect width="0.405252" height="0.285661"
          transform="matrix(-0.951057 0.309017 0.309017 0.951057 6.71822 6.07707)" fill="#2D2D2D"/>
        <rect x="5.70121" y="6.00703" width="0.765477" height="1.14265"
          transform="rotate(-18 5.70121 6.00703)" fill="white"/>
        <rect x="5.67704" y="6.5155" width="0.945589" height="0.666543"
          transform="rotate(-18 5.67704 6.5155)" fill="white"/>
        <rect x="6.42923" y="5.77049" width="0.765477" height="0.190441"
          transform="rotate(162 6.42923 5.77049)" fill="#2D2D2D"/>
        <rect x="6.03303" y="6.29971" width="0.180112" height="0.285661"
          transform="rotate(-18 6.03303 6.29971)" fill="black"/>
        <rect x="6.27395" y="6.02118" width="0.180112" height="0.285661"
          transform="rotate(-18 6.27395 6.02118)" fill="black"/>
        <rect width="0.22514" height="0.190441"
          transform="matrix(-0.951057 0.309017 0.309017 0.951057 6.17228 5.85396)" fill="#2D2D2D"/>
        <rect x="6.43452" y="6.36963" width="0.390244" height="0.380956"
          transform="rotate(-18 6.43452 6.36963)" fill="#FF6F0F"/>
        <rect x="6.67894" y="6.49049" width="0.390244" height="0.190478"
          transform="rotate(-18 6.67894 6.49049)" fill="#FF6F0F"/>
        <path
          d="M7.47354 6.63471L7.7113 6.55746L8.02032 7.50851L8.49585 7.35401L8.53448 7.47289L7.82118 7.70465L7.47354 6.63471ZM8.93875 6.29007L8.70099 6.36732L8.62373 6.12956L8.8615 6.0523L8.93875 6.29007ZM9.20914 7.12224L9.4469 7.04499L9.48553 7.16387L8.77224 7.39563L8.73361 7.27675L8.97138 7.1995L8.77824 6.60509L8.54048 6.68234L8.50185 6.56346L8.97738 6.40895L9.20914 7.12224ZM10.0859 6.18019L10.2048 6.14156L10.4366 6.85485L10.1988 6.93211L9.96706 6.21882L9.7293 6.29607L9.96106 7.00936L9.7233 7.08662L9.45291 6.25444L10.0473 6.06131L10.0859 6.18019ZM10.8795 5.79092L11.1173 5.71366L11.3876 6.54584L10.7932 6.73897L10.7546 6.62009L10.6357 6.65872L10.404 5.94543L10.6417 5.86817L10.8735 6.58146L11.1113 6.50421L10.8795 5.79092ZM11.6284 6.07331L11.7473 6.03468L11.7087 5.9158L11.5898 5.95443L11.5512 5.83555L11.4323 5.87417L11.355 5.63641L11.5928 5.55915L11.67 5.79692L11.9078 5.71966L11.8305 5.4819L12.0683 5.40465L12.1456 5.64241L12.0267 5.68104L12.0653 5.79992L11.9464 5.83855L11.9851 5.95743L12.1039 5.9188L12.1426 6.03768L12.2614 5.99906L12.3387 6.23682L12.1009 6.31407L12.0237 6.07631L11.7859 6.15356L11.8632 6.39133L11.6254 6.46858L11.5482 6.23082L11.667 6.19219L11.6284 6.07331Z"
          fill="black"/>
        <rect width="12" height="1" transform="matrix(1 0 0 -1 1 5)" fill="#F6869F"
          fill-opacity="0.5"/>
        <rect width="10" height="1" transform="matrix(1 0 0 -1 2 4)" fill="#F6869F"
          fill-opacity="0.5"/>
        <rect y="5" width="14" height="5" fill="#F6869F" fill-opacity="0.5"/>
        <rect x="7" y="7" width="1" height="2" fill="black"/>
        <rect x="11" y="7" width="1" height="2" fill="black"/>
      </g>
    </svg>
  </g>
</svg>
