<svg xmlns="http://www.w3.org/2000/svg" fill="none" overflow="visible"><style>
  @keyframes slime-14-move-body {
  0% {
  -webkit-transform: scaleY(1);
  -ms-transform: scaleY(1);
  -o-transform: scaleY(1);
  -moz-transform: scaleY(1);
  transform: scaleY(1);
  }
  70% {
  -webkit-transform: scaleY(0.9);
  -ms-transform: scaleY(0.9);
  -o-transform: scaleY(0.9);
  -moz-transform: scaleY(0.9);
  transform: scaleY(0.9);
  }
  100% {
  -webkit-transform: scaleY(1);
  -ms-transform: scaleY(1);
  -o-transform: scaleY(1);
  -moz-transform: scaleY(1);
  transform: scaleY(1);
  }
  }

  #slime-14-body {
  animation-name:slime-14-move-body;
  animation-duration:1s;
  animation-iteration-count:infinite;
  }

  @keyframes slime-14-move-shadow {
  0% {
  -webkit-transform: translate(0px, 6px) scaleY(1);
  -ms-transform: translate(0px, 6px) scaleY(1);
  -o-transform: translate(0px, 6px) scaleY(1);
  -moz-transform: translate(0px, 6px) scaleY(1);
  transform: translate(0px, 6px) scaleY(1);
  }
  70% {
  -webkit-transform: translate(0px, 6px) scaleY(1.1);
  -ms-transform: translate(0px, 6px) scaleY(1.1);
  -o-transform: translate(0px, 6px) scaleY(1.1);
  -moz-transform: translate(0px, 6px) scaleY(1.1);
  transform: translate(0px, 6px) scaleY(1.1);
  }
  100% {
  -webkit-transform: translate(0px, 6px) scaleY(1);
  -ms-transform: translate(0px, 6px) scaleY(1);
  -o-transform: translate(0px, 6px) scaleY(1);
  -moz-transform: translate(0px, 6px) scaleY(1);
  transform: translate(0px, 6px) scaleY(1);
  }
  }

  #slime-14-shadow {
  animation-name:slime-2-move-shadow;
  animation-duration:1s;
  animation-iteration-count:infinite;
  }
</style>

  <g id="slime-14">
    <svg width="600" height="300" viewBox="0 0 200 100" fill="none" overflow="visible">
      <g id="slime-14-shadow" transform="translate(0, 6)">
        <rect width="13.3359" height="3.89813" transform="matrix(1 2.26611e-08 -2.79767e-08 -1 0 6.56531)" fill="#2B4447" fill-opacity="0.1"/>
        <rect width="11.1133" height="1.29938" transform="matrix(1 2.94396e-08 -2.1535e-08 -1 1.11133 7.86469)" fill="#2B4447" fill-opacity="0.1"/>
        <rect width="11.1133" height="1.29938" transform="matrix(1 2.94396e-08 -2.1535e-08 -1 1.14059 2.63298)" fill="#2B4447" fill-opacity="0.1"/>
        <rect width="8.89062" height="1.29938" transform="matrix(1 2.94396e-08 -2.1535e-08 -1 2.22266 9.16408)" fill="#2B4447" fill-opacity="0.1"/>
        <rect width="8.89062" height="1.29938" transform="matrix(1 2.94396e-08 -2.1535e-08 -1 2.28119 1.29938)" fill="#2B4447" fill-opacity="0.1"/>
      </g>

      <g id="slime-14-body">
        <rect x="5" y="1" width="4" height="1" fill="#F6869F"/>
        <rect x="11" y="3" width="1" height="1" fill="#F6869F"/>
        <rect x="2" y="11" width="10" height="1" fill="#F6869F"/>
        <rect x="1" y="10" width="12" height="1" fill="#F6869F"/>
        <rect x="1" y="4" width="12" height="1" fill="#F6869F"/>
        <rect x="2" y="2" width="9" height="2" fill="#F6869F"/>
        <rect x="3" width="2" height="2" fill="#F6869F"/>
        <rect y="5" width="14" height="5" fill="#F6869F"/>
        <rect x="1" y="9" width="1" height="2" fill="#CB6F84"/>
        <rect x="2" y="10" width="1" height="1" fill="#CB6F84"/>
        <rect y="8" width="1" height="2" fill="#CB6F84"/>
        <rect x="2" y="11" width="10" height="1" fill="#CB6F84"/>
        <rect width="0.5" height="2" transform="matrix(-0.951057 0.309017 0.309017 0.951057 9.75528 4.54077)" fill="black"/>
        <rect width="0.75" height="0.25" transform="matrix(-0.951057 0.309017 0.309017 0.951057 9.43426 5.17081)" fill="black"/>
        <rect width="0.25" height="0.25" transform="matrix(-0.951057 0.309017 0.309017 0.951057 9.26775 6.27638)" fill="black"/>
        <rect width="0.25" height="0.25" transform="matrix(-0.951057 0.309017 0.309017 0.951057 9.74328 6.12187)" fill="black"/>
        <rect width="0.5" height="0.25" transform="matrix(-0.951057 0.309017 0.309017 0.951057 9.58277 6.43689)" fill="black"/>
        <rect width="0.5" height="1" transform="matrix(-0.951057 0.309017 0.309017 0.951057 9.03598 5.56308)" fill="black"/>
        <rect width="0.5" height="1.25" transform="matrix(-0.951057 0.309017 0.309017 0.951057 10.6231 4.78455)" fill="black"/>
        <rect x="12.0377" y="5.9021" width="1.25" height="0.25" transform="rotate(162 12.0377 5.9021)" fill="black"/>
        <rect width="0.25" height="0.25" transform="matrix(0.951057 -0.309017 -0.309017 -0.951057 11.7226 5.74159)" fill="black"/>
        <rect width="0.25" height="0.25" transform="matrix(0.951057 -0.309017 -0.309017 -0.951057 11.0093 5.97336)" fill="black"/>
        <rect width="1" height="0.25" transform="matrix(-0.951057 0.309017 0.309017 0.951057 11.2591 4.31502)" fill="black"/>
        <rect width="0.75" height="0.25" transform="matrix(-0.951057 0.309017 0.309017 0.951057 11.4909 5.02831)" fill="black"/>
        <rect width="0.5" height="0.75" transform="matrix(-0.951057 0.309017 0.309017 0.951057 11.5741 4.47552)" fill="black"/>
        <rect x="5.15451" y="6.56139" width="0.5" height="1.5" transform="rotate(-18 5.15451 6.56139)" fill="black"/>
        <rect x="6.18282" y="6.49013" width="0.5" height="1.25" transform="rotate(-18 6.18282 6.49013)" fill="black"/>
        <rect x="5.8678" y="6.32962" width="0.5" height="0.5" transform="rotate(-18 5.8678 6.32962)" fill="black"/>
        <rect x="5.46952" y="6.72189" width="0.5" height="0.5" transform="rotate(-18 5.46952 6.72189)" fill="black"/>
        <rect x="7.13388" y="6.18112" width="1" height="1" transform="rotate(-18 7.13388 6.18112)" fill="#70BB51"/>
        <rect x="7.29439" y="5.8661" width="0.5" height="1.5" transform="rotate(-18 7.29439 5.8661)" fill="#70BB51"/>
        <rect x="6.97336" y="6.49614" width="1.5" height="0.5" transform="rotate(-18 6.97336 6.49614)" fill="#70BB51"/>
        <rect x="10.6231" y="4.78455" width="0.5" height="0.5" transform="rotate(-18 10.6231 4.78455)" fill="#70BB51"/>
        <rect width="12" height="1" transform="matrix(1 0 0 -1 1 5)" fill="#F6869F" fill-opacity="0.5"/>
        <rect width="10" height="1" transform="matrix(1 0 0 -1 2 4)" fill="#F6869F" fill-opacity="0.5"/>
        <rect y="5" width="14" height="5" fill="#F6869F" fill-opacity="0.5"/>
        <rect x="7" y="7" width="1" height="2" fill="black"/>
        <rect x="11" y="7" width="1" height="2" fill="black"/>
      </g>
    </svg>
  </g>
</svg>
