<svg xmlns="http://www.w3.org/2000/svg" fill="none" overflow="visible"><style>
  @keyframes slime-14-move-body {
  0% {
  -webkit-transform: scaleY(1);
  -ms-transform: scaleY(1);
  -o-transform: scaleY(1);
  -moz-transform: scaleY(1);
  transform: scaleY(1);
  }
  70% {
  -webkit-transform: scaleY(0.9);
  -ms-transform: scaleY(0.9);
  -o-transform: scaleY(0.9);
  -moz-transform: scaleY(0.9);
  transform: scaleY(0.9);
  }
  100% {
  -webkit-transform: scaleY(1);
  -ms-transform: scaleY(1);
  -o-transform: scaleY(1);
  -moz-transform: scaleY(1);
  transform: scaleY(1);
  }
  }

  #slime-14-body {
  animation-name:slime-14-move-body;
  animation-duration:1s;
  animation-iteration-count:infinite;
  }

  @keyframes slime-14-move-shadow {
  0% {
  -webkit-transform: translate(0px, 6px) scaleY(1);
  -ms-transform: translate(0px, 6px) scaleY(1);
  -o-transform: translate(0px, 6px) scaleY(1);
  -moz-transform: translate(0px, 6px) scaleY(1);
  transform: translate(0px, 6px) scaleY(1);
  }
  70% {
  -webkit-transform: translate(0px, 6px) scaleY(1.1);
  -ms-transform: translate(0px, 6px) scaleY(1.1);
  -o-transform: translate(0px, 6px) scaleY(1.1);
  -moz-transform: translate(0px, 6px) scaleY(1.1);
  transform: translate(0px, 6px) scaleY(1.1);
  }
  100% {
  -webkit-transform: translate(0px, 6px) scaleY(1);
  -ms-transform: translate(0px, 6px) scaleY(1);
  -o-transform: translate(0px, 6px) scaleY(1);
  -moz-transform: translate(0px, 6px) scaleY(1);
  transform: translate(0px, 6px) scaleY(1);
  }
  }

  #slime-14-shadow {
  animation-name:slime-2-move-shadow;
  animation-duration:1s;
  animation-iteration-count:infinite;
  }
</style>

  <g id="slime-14">
    <svg width="600" height="300" viewBox="0 0 200 100" fill="none" overflow="visible">
      <g id="slime-14-shadow" transform="translate(0, 6)">
        <rect width="13.3359" height="3.89813" transform="matrix(1 2.26611e-08 -2.79767e-08 -1 0 6.56531)" fill="#2B4447" fill-opacity="0.1"/>
        <rect width="11.1133" height="1.29938" transform="matrix(1 2.94396e-08 -2.1535e-08 -1 1.11133 7.86469)" fill="#2B4447" fill-opacity="0.1"/>
        <rect width="11.1133" height="1.29938" transform="matrix(1 2.94396e-08 -2.1535e-08 -1 1.14059 2.63298)" fill="#2B4447" fill-opacity="0.1"/>
        <rect width="8.89062" height="1.29938" transform="matrix(1 2.94396e-08 -2.1535e-08 -1 2.22266 9.16408)" fill="#2B4447" fill-opacity="0.1"/>
        <rect width="8.89062" height="1.29938" transform="matrix(1 2.94396e-08 -2.1535e-08 -1 2.28119 1.29938)" fill="#2B4447" fill-opacity="0.1"/>
      </g>

      <g id="slime-14-body">
        <rect x="5" y="3" width="4" height="8" fill="#FF6F0F"/>
        <rect x="11" y="5" width="1" height="1" fill="#FF6F0F"/>
        <rect x="2" y="13" width="10" height="1" fill="#FF6F0F"/>
        <rect x="1" y="6" width="12" height="7" fill="#FF6F0F"/>
        <rect x="1" y="6" width="12" height="1" fill="#FF6F0F"/>
        <rect x="2" y="4" width="9" height="2" fill="#FF6F0F"/>
        <rect x="3" y="2" width="3" height="7" fill="#FF6F0F"/>
        <rect y="7" width="14" height="5" fill="#FF6F0F"/>
        <rect x="1" y="11" width="1" height="2" fill="#E5640E"/>
        <rect x="2" y="12" width="1" height="1" fill="#E5640E"/>
        <rect y="10" width="1" height="2" fill="#E5640E"/>
        <rect width="12" height="1" transform="matrix(1 0 0 -1 1 7)" fill="#FF6F0F"/>
        <rect width="10" height="7" transform="matrix(1 0 0 -1 2 12)" fill="#FF6F0F"/>
        <rect y="7" width="14" height="5" fill="#FF6F0F"/>
        <rect x="2" y="13" width="10" height="1" fill="#E5640E"/>
        <rect width="1" height="1" transform="matrix(-1 0 0 1 9 9)" fill="#FEC3CE"/>
        <rect width="2" height="1" transform="matrix(-1 0 0 1 11 10)" fill="#FFD600"/>
        <rect width="2" height="1" transform="matrix(-1 0 0 1 8 10)" fill="#FFD600"/>
        <rect width="2.99997" height="4" transform="matrix(-1 0 0 1 12 6)" fill="white"/>
        <rect width="0.272725" height="0.285714" transform="matrix(-1 0 0 1 9.27271 6)" fill="#FF6F0F"/>
        <rect width="0.272725" height="0.285714" transform="matrix(-1 0 0 1 9.27271 9.71429)" fill="#FF6F0F"/>
        <rect width="0.272725" height="0.285714" transform="matrix(-1 0 0 1 12 9.71428)" fill="#FF6F0F"/>
        <rect width="0.272725" height="0.285714" transform="matrix(-1 0 0 1 12 9.42857)" fill="#FF6F0F"/>
        <rect width="0.272725" height="0.285714" transform="matrix(-1 0 0 1 11.7273 9.71429)" fill="#FF6F0F"/>
        <rect width="0.272725" height="0.285714" transform="matrix(-1 0 0 1 9.54547 9.71429)" fill="#FF6F0F"/>
        <rect width="0.272725" height="0.285714" transform="matrix(-1 0 0 1 9.27271 9.42857)" fill="#FF6F0F"/>
        <rect width="0.272725" height="0.285714" transform="matrix(-1 0 0 1 9.27271 6.28571)" fill="#FF6F0F"/>
        <rect width="0.272725" height="0.285714" transform="matrix(-1 0 0 1 12 6.28572)" fill="#FF6F0F"/>
        <rect width="0.272725" height="0.285714" transform="matrix(-1 0 0 1 12 6.57143)" fill="#FF6F0F"/>
        <rect width="0.272725" height="0.285714" transform="matrix(-1 0 0 1 11.7273 6.28571)" fill="#FF6F0F"/>
        <rect width="0.272725" height="0.285714" transform="matrix(-1 0 0 1 11.4546 6)" fill="#FF6F0F"/>
        <rect width="0.272725" height="0.285714" transform="matrix(-1 0 0 1 9.54547 6)" fill="#FF6F0F"/>
        <rect width="0.272725" height="0.285714" transform="matrix(-1 0 0 1 9.81824 6)" fill="#FF6F0F"/>
        <rect width="0.272725" height="0.285714" transform="matrix(-1 0 0 1 9.54547 6.28571)" fill="#FF6F0F"/>
        <rect width="0.272725" height="0.285714" transform="matrix(-1 0 0 1 9.27271 6.57143)" fill="#FF6F0F"/>
        <rect width="0.272725" height="0.285714" transform="matrix(-1 0 0 1 9.27271 9.14285)" fill="#FF6F0F"/>
        <rect width="0.272725" height="0.285714" transform="matrix(-1 0 0 1 9.54547 9.42857)" fill="#FF6F0F"/>
        <rect width="0.272725" height="0.285714" transform="matrix(-1 0 0 1 9.81824 9.71429)" fill="#FF6F0F"/>
        <rect width="0.272725" height="0.285714" transform="matrix(-1 0 0 1 11.4546 9.71429)" fill="#FF6F0F"/>
        <rect width="0.272725" height="0.285714" transform="matrix(-1 0 0 1 11.7273 9.42857)" fill="#FF6F0F"/>
        <rect width="0.272725" height="0.285714" transform="matrix(-1 0 0 1 12 9.14287)" fill="#FF6F0F"/>
        <rect width="0.272725" height="0.285714" transform="matrix(-1 0 0 1 11.7273 6)" fill="#FF6F0F"/>
        <rect width="0.272725" height="0.285714" transform="matrix(-1 0 0 1 12 6)" fill="#FF6F0F"/>
        <rect width="1.36362" height="1.14286" transform="matrix(-1 0 0 1 11.4546 7.42857)" fill="black"/>
        <rect width="0.818175" height="0.571428" transform="matrix(-1 0 0 1 11.1818 8.28571)" fill="black"/>
        <rect width="3" height="2" transform="matrix(-1 0 0 1 12 6)" fill="#FF6F0F"/>
        <rect width="0.272727" height="0.285714" transform="matrix(-1 0 0 1 9.27271 6.57143)" fill="black" fill-opacity="0.1"/>
        <rect width="0.272727" height="0.285714" transform="matrix(-1 0 0 1 9.54547 6.28571)" fill="black" fill-opacity="0.1"/>
        <rect width="1.90909" height="0.285714" transform="matrix(-1 0 0 1 11.4545 6)" fill="black" fill-opacity="0.1"/>
        <rect width="0.272727" height="0.285714" transform="matrix(-1 0 0 1 11.7273 6.28571)" fill="black" fill-opacity="0.1"/>
        <rect width="0.272727" height="0.285714" transform="matrix(-1 0 0 1 12 6.57143)" fill="black" fill-opacity="0.1"/>
        <rect width="2.99997" height="4" transform="matrix(-1 0 0 1 8 6)" fill="white"/>
        <rect width="0.272725" height="0.285714" transform="matrix(-1 0 0 1 5.27271 6)" fill="#FF6F0F"/>
        <rect width="0.272725" height="0.285714" transform="matrix(-1 0 0 1 5.27271 9.71429)" fill="#FF6F0F"/>
        <rect width="0.272725" height="0.285714" transform="matrix(-1 0 0 1 8 9.71428)" fill="#FF6F0F"/>
        <rect width="0.272725" height="0.285714" transform="matrix(-1 0 0 1 8 9.42857)" fill="#FF6F0F"/>
        <rect width="0.272725" height="0.285714" transform="matrix(-1 0 0 1 7.72729 9.71429)" fill="#FF6F0F"/>
        <rect width="0.272725" height="0.285714" transform="matrix(-1 0 0 1 5.54547 9.71429)" fill="#FF6F0F"/>
        <rect width="0.272725" height="0.285714" transform="matrix(-1 0 0 1 5.27271 9.42857)" fill="#FF6F0F"/>
        <rect width="0.272725" height="0.285714" transform="matrix(-1 0 0 1 5.27271 6.28571)" fill="#FF6F0F"/>
        <rect width="0.272725" height="0.285714" transform="matrix(-1 0 0 1 8 6.28572)" fill="#FF6F0F"/>
        <rect width="0.272725" height="0.285714" transform="matrix(-1 0 0 1 8 6.57143)" fill="#FF6F0F"/>
        <rect width="0.272725" height="0.285714" transform="matrix(-1 0 0 1 7.72729 6.28571)" fill="#FF6F0F"/>
        <rect width="0.272725" height="0.285714" transform="matrix(-1 0 0 1 7.45459 6)" fill="#FF6F0F"/>
        <rect width="0.272725" height="0.285714" transform="matrix(-1 0 0 1 5.54547 6)" fill="#FF6F0F"/>
        <rect width="0.272725" height="0.285714" transform="matrix(-1 0 0 1 5.81824 6)" fill="#FF6F0F"/>
        <rect width="0.272725" height="0.285714" transform="matrix(-1 0 0 1 5.54547 6.28571)" fill="#FF6F0F"/>
        <rect width="0.272725" height="0.285714" transform="matrix(-1 0 0 1 5.27271 6.57143)" fill="#FF6F0F"/>
        <rect width="0.272725" height="0.285714" transform="matrix(-1 0 0 1 5.27271 9.14285)" fill="#FF6F0F"/>
        <rect width="0.272725" height="0.285714" transform="matrix(-1 0 0 1 5.54547 9.42857)" fill="#FF6F0F"/>
        <rect width="0.272725" height="0.285714" transform="matrix(-1 0 0 1 5.81824 9.71429)" fill="#FF6F0F"/>
        <rect width="0.272725" height="0.285714" transform="matrix(-1 0 0 1 7.45459 9.71429)" fill="#FF6F0F"/>
        <rect width="0.272725" height="0.285714" transform="matrix(-1 0 0 1 7.72729 9.42857)" fill="#FF6F0F"/>
        <rect width="0.272725" height="0.285714" transform="matrix(-1 0 0 1 8 9.14287)" fill="#FF6F0F"/>
        <rect width="0.272725" height="0.285714" transform="matrix(-1 0 0 1 7.72729 6)" fill="#FF6F0F"/>
        <rect width="0.272725" height="0.285714" transform="matrix(-1 0 0 1 8 6)" fill="#FF6F0F"/>
        <rect width="1.36362" height="1.14286" transform="matrix(-1 0 0 1 7.45459 7.42857)" fill="black"/>
        <rect width="0.818175" height="0.571428" transform="matrix(-1 0 0 1 7.18182 8.28571)" fill="black"/>
        <rect width="3" height="2" transform="matrix(-1 0 0 1 8 6)" fill="#FF6F0F"/>
        <rect width="0.272727" height="0.285714" transform="matrix(-1 0 0 1 5.27271 6.57143)" fill="black" fill-opacity="0.1"/>
        <rect width="0.272727" height="0.285714" transform="matrix(-1 0 0 1 5.54547 6.28571)" fill="black" fill-opacity="0.1"/>
        <rect width="1.90909" height="0.285714" transform="matrix(-1 0 0 1 7.45453 6)" fill="black" fill-opacity="0.1"/>
        <rect width="0.272727" height="0.285714" transform="matrix(-1 0 0 1 7.72729 6.28571)" fill="black" fill-opacity="0.1"/>
        <rect width="0.272727" height="0.285714" transform="matrix(-1 0 0 1 8 6.57143)" fill="black" fill-opacity="0.1"/>
        <rect x="3" y="1" width="1" height="2" fill="#6DB33F"/>
        <rect x="3" y="2" width="2" height="1" fill="#6DB33F"/>
        <rect x="2" width="1" height="1" fill="#6DB33F"/>
      </g>
    </svg>
  </g>
</svg>
