<svg xmlns="http://www.w3.org/2000/svg" fill="none" overflow="visible"><style>
  @keyframes unicorn-0-obj-move {
  0% {
  transform: translate(0, 0px);
  }
  15% {
  transform: translate(0, -5px);
  }
  30% {
  transform: translate(0, 0px);
  }
  100% {
  transform: translate(0, 0px);
  }
  }

  @keyframes unicorn-0-shadow-move {
  0% {
  transform: translate(-4px, 15.5px) scaleX(1);
  }
  15% {
  transform: translate(-4px, 15.5px) scaleX(1.2);
  }
  30% {
  transform: translate(-4px, 15.5px) scaleX(1);
  }
  100% {
  transform: translate(-4px, 15.5px) scaleX(1);
  }
  }

  @keyframes unicorn-0-head-move {
  0% {
  transform:translate(0px, 1px);
  }
  50% {
  transform:translate(0px, 2px);
  }
  100% {
  transform:translate(0px, 1px);
  }
  }

  @keyframes unicorn-0-wing-move {
  0% {
  transform:translate(-4.5px, 7px) rotate(0deg);
  }
  4% {
  transform:translate(-3px, 7px) rotate(15deg);
  }
  8% {
  transform:translate(-4.5px, 7px) rotate(0deg);
  }
  12% {
  transform:translate(-6px, 8px) rotate(-15deg);
  }
  16% {
  transform:translate(-4.5px, 7px) rotate(0deg);
  }
  20% {
  transform:translate(-3px, 7px) rotate(15deg);
  }
  24% {
  transform:translate(-4.5px, 7px) rotate(0deg);
  }
  28% {
  transform:translate(-6px, 8px) rotate(-15deg);
  }
  32% {
  transform:translate(-4.5px, 7px) rotate(0deg);
  }
  100% {
  transform:translate(-4.5px, 7px) rotate(0deg);
  }
  }

  #unicorn-0-head {
  animation-name:unicorn-0-head-move;
  animation-duration:1s;
  animation-iteration-count:infinite;
  }

  #unicorn-0-shadow {
  animation-name: unicorn-0-shadow-move;
  animation-duration:2s;
  animation-iteration-count:infinite;
  animation-timing-function: ease-in-out;
  }

  #unicorn-0-obj {
  animation-name: unicorn-0-obj-move;
  animation-duration:2s;
  animation-iteration-count:infinite;
  animation-timing-function: ease-in-out;
  }

  #unicorn-0-wing {
  animation-name: unicorn-0-wing-move;
  animation-duration:2s;
  animation-iteration-count:infinite;
  animation-timing-function: ease-in-out;
  }
</style>

  <g id="unicorn-0" transform="translate(20, 5)">
    <svg width="600" height="300" viewBox="0 0 200 100" fill="none" overflow="visible">
      <g id="unicorn-0-shadow" transform="translate(-3.5, 5)">
        <rect width="12" height="1.3459" transform="matrix(1 8.69521e-09 -7.29119e-08 -1 0 2.26678)" fill="#2B4447" fill-opacity="0.1"/>
        <rect width="10" height="0.448634" transform="matrix(1 1.12962e-08 -5.61238e-08 -1 0.999969 2.71542)" fill="#2B4447" fill-opacity="0.1"/>
        <rect width="10" height="0.448634" transform="matrix(1 1.12962e-08 -5.61238e-08 -1 1.02631 0.909088)" fill="#2B4447" fill-opacity="0.1"/>
        <rect width="8" height="0.448634" transform="matrix(1 1.12962e-08 -5.61238e-08 -1 2.00003 3.16406)" fill="#2B4447" fill-opacity="0.1"/>
        <rect width="8" height="0.448634" transform="matrix(1 1.12962e-08 -5.61238e-08 -1 2.05267 0.448639)" fill="#2B4447" fill-opacity="0.1"/>
      </g>
      <g id="unicorn-0-obj">
        <g id="unicorn-0-body" transform="translate(-6.5, 7)">
          <rect y="7.20932" width="1.82194" height="1.04651" fill="#FF99E7"/>
          <rect x="3.64383" y="4.06979" width="1.82194" height="2.09302" fill="#71C9FF"/>
          <rect x="2.9151" y="5.11627" width="0.728777" height="2.09302" fill="#71C9FF"/>
          <rect x="1.09314" y="5.46515" width="1.82194" height="2.7907" fill="#71C9FF"/>
          <rect x="3.64383" y="3.02328" width="1.82194" height="2.44186" fill="#FF99E7"/>
          <rect x="4.73703" y="1.97675" width="2.55072" height="1.04651" fill="#FF99E7"/>
          <rect x="4.73703" y="3.02328" width="8.01654" height="4.18605" fill="#DDFFF4"/>
          <rect x="4.73703" y="5.81396" width="1.82194" height="4.18605" fill="#DDFFF4"/>
          <rect x="8.7453" y="5.81396" width="1.82194" height="4.18605" fill="#DDFFF4"/>
          <rect x="11.6604" y="5.81396" width="1.09317" height="4.18605" fill="#DDFFF4"/>
          <rect x="7.65213" y="4.06979" width="1.09317" height="1.04651" fill="#958DFF"/>
          <rect x="6.55899" y="3.02328" width="1.09317" height="1.04651" fill="#958DFF"/>
          <rect x="5.8302" y="0.930237" width="1.82194" height="1.04651" fill="#FAFFC7"/>
          <rect x="8.7453" y="5.11627" width="1.09317" height="1.04651" fill="#958DFF"/>
          <rect x="9.83844" y="5.11627" width="1.82194" height="1.04651" fill="#FF99E7"/>
          <rect x="8.7453" y="4.06979" width="1.09317" height="1.04651" fill="#FF99E7"/>
          <rect x="11.6604" y="4.06979" width="1.09317" height="1.04651" fill="#958DFF"/>
          <rect x="9.83844" y="4.06979" width="1.82194" height="1.04651" fill="#BCF1E0"/>
          <rect x="6.55899" y="6.16278" width="2.18633" height="1.04651" fill="#BCF1E0"/>
          <rect x="4.73703" y="8.95352" width="1.82194" height="1.04651" fill="#FFD9F8"/>
          <rect x="8.7453" y="8.95352" width="1.82194" height="1.04651" fill="#FFD9F8"/>
          <rect x="11.6604" y="8.95352" width="1.09317" height="1.04651" fill="#FFD9F8"/>
          <rect x="10.5672" y="6.16278" width="1.09317" height="1.04651" fill="#BCF1E0"/>
          <rect x="1.09314" y="5.46515" width="1.82194" height="1.74419" fill="#FF99E7"/>
          <rect x="2.18631" y="4.41861" width="1.45755" height="1.74419" fill="#FF99E7"/>
          <rect x="1.09314" y="5.46515" width="1.09317" height="0.697674" fill="#958DFF"/>
          <rect x="2.18631" y="4.41861" width="1.45755" height="1.04651" fill="#958DFF"/>
          <rect x="2.18631" y="3.3721" width="1.45755" height="1.04651" fill="#FAFFC7"/>
          <rect x="1.09314" y="4.41861" width="1.09317" height="1.04651" fill="#FAFFC7"/>
        </g>
        <g id="unicorn-0-head" transform="translate(0, 0)">
          <rect x="2.65213" y="2.79068" width="6.1946" height="5.93023" fill="#DDFFF4"/>
          <rect x="1.92334" y="4.53488" width="1.09317" height="3.48837" fill="#FAFFC7"/>
          <rect x="6.66037" y="1.39536" width="1.82194" height="0.697674" fill="#FFD9F8"/>
          <rect x="7.75354" y="0.697662" width="0.728777" height="1.04651" fill="#FFD9F8"/>
          <rect x="1.55896" y="2.79068" width="2.18633" height="2.09302" fill="#BCF0DF"/>
          <rect x="3.01648" y="2.79068" width="6.92338" height="2.09302" fill="#DDFFF4"/>
          <rect x="0.83017" y="2.79068" width="2.91511" height="1.04651" fill="#DDFFF4"/>
          <rect x="7.75354" y="2.79068" width="2.91511" height="1.04651" fill="#DDFFF4"/>
          <rect x="3.01648" y="6.6279" width="6.55899" height="2.44186" fill="#DDFFF4"/>
          <rect x="3.74527" y="2.44186" width="4.00827" height="1.39535" fill="#FAFFC7"/>
          <rect x="3.74527" y="1.39536" width="1.09317" height="1.39535" fill="#FAFFC7"/>
          <rect x="4.10965" y="6.6279" width="1.45755" height="1.39535" fill="#FFD9F8"/>
          <rect x="4.83844" y="5.58139" width="1.09317" height="1.74419" fill="black"/>
          <rect x="6.66037" y="2.09305" width="2.18633" height="1.74419" fill="#FAFFC7"/>
          <rect x="4.83844" y="3.13953" width="3.27949" height="1.74419" fill="#FAFFC7"/>
          <rect x="5.56723" y="1.74417" width="2.18633" height="2.09302" fill="#FFD9F8"/>
          <rect x="5.56723" y="1.74417" width="1.09317" height="1.04651" fill="#FEE9FF"/>
          <rect x="6.66037" y="0.697662" width="1.09317" height="1.04651" fill="#FEE9FF"/>
          <rect x="7.75354" width="0.728777" height="0.697674" fill="#FEE9FF"/>
          <rect x="2.65213" y="8.02325" width="1.09317" height="1.04651" fill="#FAFFC7"/>
        </g>
        <g id="unicorn-0-wing" transform="translate(-4.5, 7)">
          <rect x="3.46576" y="3.02328" width="1.09317" height="1.74419" fill="#FFD9F8"/>
          <rect x="1.6438" y="1.97675" width="2.18633" height="1.74419" fill="#FFD9F8"/>
          <rect x="0.550659" y="0.930237" width="1.82194" height="1.74419" fill="#FFD9F8"/>
          <rect x="0.550659" y="0.930237" width="1.82194" height="1.04651" fill="#FEE9FF"/>
          <rect x="2.37259" y="1.97675" width="1.45755" height="1.04651" fill="#FEE9FF"/>
        </g>
        <g id="unicorn-0-star-right" transform="translate(12, 7)">
          <path d="M0.654198 2.3652H0.0330811V2.95981H0.654198V2.3652Z" fill="#FFD600"/>
          <path d="M2.00002 1.17596H1.48242V1.67147H2.00002V1.17596Z" fill="#FBFF85"/>
          <path d="M1.48244 1.67148H0.964844V2.16699H1.48244V1.67148Z" fill="#FBFF85"/>
          <path d="M1.48244 0.58136H0.964844V1.17597H1.48244V0.58136Z" fill="#FFD600"/>
          <path d="M0.964866 1.17596H0.34375V1.67147H0.964866V1.17596Z" fill="#FFD600"/>
        </g>
        <g id="unicorn-0-star-left" transform="translate(-3, 1)">
          <path d="M3.2123 1.65039H2.59119V2.245H3.2123V1.65039Z" fill="#FBFF85"/>
          <path d="M2.59121 2.245H1.97009V2.8396H2.59121V2.245Z" fill="#FBFF85"/>
          <path d="M2.59121 0.956696H1.97009V1.65041H2.59121V0.956696Z" fill="#FFD600"/>
          <path d="M1.97018 1.65039H1.24554V2.245H1.97018V1.65039Z" fill="#FFD600"/>
          <path d="M0.817806 2.32587H0.0931702V2.92048H0.817806V2.32587Z" fill="#FFD600"/>
          <path d="M4.75155 0.0465088H4.13043V0.641118H4.75155V0.0465088Z" fill="#FBFF85"/>
        </g>
      </g>
    </svg>
  </g>
</svg>
