<svg xmlns="http://www.w3.org/2000/svg" viewBox="-15 -25 45 45" shape-rendering="crispEdges">
  <!--
    Little Chick — error
    Damped left-right shake + X eyes (alternating) + red ! flash bubble
    Keyframe prefix: lchick-error-
  -->
  <style>
    @keyframes lchick-error-obj {
      0%        { transform: translate(0, 0); }
      8%        { transform: translate(-1.5px, 0); }
      16%       { transform: translate(1.5px, 0); }
      24%       { transform: translate(-1.5px, 0); }
      32%       { transform: translate(1.5px, 0); }
      40%       { transform: translate(-1px, 0); }
      48%       { transform: translate(1px, 0); }
      56%       { transform: translate(-0.5px, 0); }
      63%, 100% { transform: translate(0, 0); }
    }
    @keyframes lchick-error-eyes-n {
      0%, 20%   { opacity: 1; }
      25%       { opacity: 0; }
      65%       { opacity: 0; }
      70%, 100% { opacity: 1; }
    }
    @keyframes lchick-error-eyes-x {
      0%, 20%   { opacity: 0; }
      25%       { opacity: 1; }
      65%       { opacity: 1; }
      70%, 100% { opacity: 0; }
    }
    @keyframes lchick-error-flash {
      0%, 100% { opacity: 1; }
      50%      { opacity: 0.15; }
    }
    #lchick-error-obj    { animation: lchick-error-obj 3s ease-in-out infinite; }
    #lchick-error-eyes-n { animation: lchick-error-eyes-n 1.5s steps(1, end) infinite; }
    #lchick-error-eyes-x { animation: lchick-error-eyes-x 1.5s steps(1, end) infinite; }
    .lchick-error-flash  { animation: lchick-error-flash 0.8s ease-in-out infinite; }
  </style>

  <!-- Shadow -->
  <g transform="translate(-2, 2)">
    <rect width="12" height="3"
      transform="matrix(0.707107 0.707107 0.707107 -0.707107 1.41422 2.12132)" fill="#6F6F6F"
      fill-opacity="0.1"/>
    <rect width="10" height="1"
      transform="matrix(0.707107 0.707107 0.707107 -0.707107 1.41422 3.53553)" fill="#6F6F6F"
      fill-opacity="0.1"/>
    <rect width="8" height="1"
      transform="matrix(0.707107 0.707107 0.707107 -0.707107 1.41422 4.94975)" fill="#6F6F6F"
      fill-opacity="0.1"/>
  </g>


  <g id="lchick-error-obj">
    <!-- Leg -->
    <g transform="translate(2, 6)">
      <rect width="2" height="2" fill="#FF6F0F"/>
      <rect x="1" y="1" width="2" height="1" fill="#FF6F0F"/>
    </g>

    <!-- Body -->
    <g>
      <rect width="6" height="1" transform="matrix(-1 0 0 1 7 4)" fill="#FFD600"/>
      <rect x="3" y="5" width="5" height="2" fill="#FFD600"/>
      <rect width="9" height="3" transform="matrix(-1 0 0 1 12 4)" fill="#FFD600"/>
      <rect width="6" height="1" transform="matrix(-1 0 0 1 11 8)" fill="#FFD600"/>
      <rect width="7" height="1" transform="matrix(-1 0 0 1 11 7)" fill="#FFD600"/>
      <rect width="4" height="1" transform="matrix(-1 0 0 1 10 9)" fill="#FFD600"/>
      <rect width="6" height="1" transform="matrix(-1 0 0 1 7 1)" fill="#FFD600"/>
      <rect width="1" height="1" transform="matrix(-1 0 0 1 3 5)" fill="#FFD600"/>
      <rect width="3" height="1" transform="matrix(-1 0 0 1 5 0)" fill="#FFD600"/>
      <rect width="7" height="2" transform="matrix(-1 0 0 1 7 2)" fill="#FFD600"/>
      <rect x="1" y="2" width="5" height="2" fill="#FFD600"/>
      <rect x="2" y="1" width="3" height="2" fill="#FFD600"/>
      <rect x="2" y="3" width="5" height="2" fill="#FFD600"/>
      <rect x="4" y="2" width="7" height="5" fill="#FFD600"/>
      <rect x="5" y="7" width="5" height="1" fill="#FFD600"/>
      <rect x="6" y="8" width="4" height="1" fill="#FFD600"/>
    </g>

    <!-- Head (accessory anchor) -->
    <g id="little-chick-head" transform="translate(6, -2)">
      <rect x="1" y="1" width="4" height="6" fill="#FFD600"/>
      <rect width="1" height="4" transform="matrix(-1 0 0 1 1 1)" fill="#FFD600"/>
      <rect width="1" height="1" transform="matrix(-1 0 0 1 5 1)" fill="#FFD600"/>
      <rect width="1" height="4" transform="matrix(-1 0 0 1 6 2)" fill="#FFD600"/>
      <rect width="3" height="1" transform="matrix(-1 0 0 1 4 0)" fill="#FFD600"/>
      <!-- Beak -->
      <rect x="4" y="4" width="2" height="2" fill="#FF6F0F"/>
      <rect x="5" y="5" width="2" height="1" fill="#FF6F0F"/>
      <!-- Normal eyes -->
      <g id="lchick-error-eyes-n">
        <rect x="2" y="3" width="1" height="1" fill="black"/>
        <rect x="4" y="2" width="1" height="1" fill="black"/>
      </g>
      <!-- X eyes (frustrated) -->
      <g id="lchick-error-eyes-x" opacity="0">
        <rect x="1.5" y="2.8" width="0.65" height="1.8" transform="rotate(45 2.35 3.7)"  fill="black"/>
        <rect x="1.5" y="2.8" width="0.65" height="1.8" transform="rotate(-45 2.35 3.7)" fill="black"/>
        <rect x="3.5" y="1.8" width="0.65" height="1.8" transform="rotate(45 4.35 2.7)"  fill="black"/>
        <rect x="3.5" y="1.8" width="0.65" height="1.8" transform="rotate(-45 4.35 2.7)" fill="black"/>
      </g>
    </g>
  </g>

  <!-- Red ! bubble (outside animated group so it doesn't shake) -->
  <g transform="translate(13, -9)">
    <g fill="white" fill-opacity="0.92">
      <rect x="1" y="0" width="4" height="5"/>
      <rect x="0" y="1" width="6" height="3"/>
      <rect x="1" y="5" width="2" height="1"/>
      <rect x="0" y="6" width="1" height="1"/>
    </g>
    <rect class="lchick-error-flash" x="2.5" y="1"   width="1" height="2" fill="#FF4444"/>
    <rect class="lchick-error-flash" x="2.5" y="3.5" width="1" height="1" fill="#FF4444"/>
  </g>
</svg>
