<svg xmlns="http://www.w3.org/2000/svg" viewBox="-15 -25 45 45" shape-rendering="crispEdges">
  <!--
    Little Chick — happy (attention state)
    Jump + ^^ eyes alternating with normal + sparkles
    Keyframe prefix: lchick-happy-
  -->
  <defs>
    <g id="lchick-happy-sparkle">
      <rect class="lchick-happy-sc" x="-0.5" y="-0.5" width="1" height="1"/>
      <g class="lchick-happy-so">
        <rect x="-0.5" y="-1.5" width="1" height="1"/>
        <rect x="-0.5" y="0.5"  width="1" height="1"/>
        <rect x="-1.5" y="-0.5" width="1" height="1"/>
        <rect x="0.5"  y="-0.5" width="1" height="1"/>
      </g>
    </g>
  </defs>
  <style>
    @keyframes lchick-happy-obj {
      0%, 15%, 100% { transform: translate(0, 0); }
      40%  { transform: translate(0, -8px); }
      50%  { transform: translate(0, -10px); }
      60%  { transform: translate(0, -8px); }
      80%  { transform: translate(0, 0); }
    }
    @keyframes lchick-happy-eyes-n {
      0%, 20%   { opacity: 1; }
      25%       { opacity: 0; }
      65%       { opacity: 0; }
      70%, 100% { opacity: 1; }
    }
    @keyframes lchick-happy-eyes-a {
      0%, 20%   { opacity: 0; }
      25%       { opacity: 1; }
      65%       { opacity: 1; }
      70%, 100% { opacity: 0; }
    }
    @keyframes lchick-happy-sc {
      0% { opacity: 0; } 10% { opacity: 1; } 30% { opacity: 0; } 100% { opacity: 0; }
    }
    @keyframes lchick-happy-so {
      0% { opacity: 0; } 20% { opacity: 1; } 40% { opacity: 0; } 100% { opacity: 0; }
    }
    #lchick-happy-obj    { animation: lchick-happy-obj 1.5s ease-in-out infinite; }
    #lchick-happy-eyes-n { animation: lchick-happy-eyes-n 1.5s steps(1, end) infinite; }
    #lchick-happy-eyes-a { animation: lchick-happy-eyes-a 1.5s steps(1, end) infinite; }
    .lchick-happy-sc { opacity: 0; animation: lchick-happy-sc 1.5s infinite step-end; animation-delay: var(--d, 0s); }
    .lchick-happy-so { opacity: 0; animation: lchick-happy-so 1.5s infinite step-end; animation-delay: var(--d, 0s); }
  </style>

  <!-- Shadow -->
  <g transform="translate(-2, 2)">
    <rect width="12" height="3"
      transform="matrix(0.707107 0.707107 0.707107 -0.707107 1.41422 2.12132)" fill="#6F6F6F"
      fill-opacity="0.1"/>
    <rect width="10" height="1"
      transform="matrix(0.707107 0.707107 0.707107 -0.707107 1.41422 3.53553)" fill="#6F6F6F"
      fill-opacity="0.1"/>
    <rect width="8" height="1"
      transform="matrix(0.707107 0.707107 0.707107 -0.707107 1.41422 4.94975)" fill="#6F6F6F"
      fill-opacity="0.1"/>
  </g>


  <g id="lchick-happy-obj">
    <!-- Leg -->
    <g transform="translate(2, 6)">
      <rect width="2" height="2" fill="#FF6F0F"/>
      <rect x="1" y="1" width="2" height="1" fill="#FF6F0F"/>
    </g>

    <!-- Body -->
    <g>
      <rect width="6" height="1" transform="matrix(-1 0 0 1 7 4)" fill="#FFD600"/>
      <rect x="3" y="5" width="5" height="2" fill="#FFD600"/>
      <rect width="9" height="3" transform="matrix(-1 0 0 1 12 4)" fill="#FFD600"/>
      <rect width="6" height="1" transform="matrix(-1 0 0 1 11 8)" fill="#FFD600"/>
      <rect width="7" height="1" transform="matrix(-1 0 0 1 11 7)" fill="#FFD600"/>
      <rect width="4" height="1" transform="matrix(-1 0 0 1 10 9)" fill="#FFD600"/>
      <rect width="6" height="1" transform="matrix(-1 0 0 1 7 1)" fill="#FFD600"/>
      <rect width="1" height="1" transform="matrix(-1 0 0 1 3 5)" fill="#FFD600"/>
      <rect width="3" height="1" transform="matrix(-1 0 0 1 5 0)" fill="#FFD600"/>
      <rect width="7" height="2" transform="matrix(-1 0 0 1 7 2)" fill="#FFD600"/>
      <rect x="1" y="2" width="5" height="2" fill="#FFD600"/>
      <rect x="2" y="1" width="3" height="2" fill="#FFD600"/>
      <rect x="2" y="3" width="5" height="2" fill="#FFD600"/>
      <rect x="4" y="2" width="7" height="5" fill="#FFD600"/>
      <rect x="5" y="7" width="5" height="1" fill="#FFD600"/>
      <rect x="6" y="8" width="4" height="1" fill="#FFD600"/>
    </g>

    <!-- Head (accessory anchor) -->
    <g id="little-chick-head" transform="translate(6, -2)">
      <rect x="1" y="1" width="4" height="6" fill="#FFD600"/>
      <rect width="1" height="4" transform="matrix(-1 0 0 1 1 1)" fill="#FFD600"/>
      <rect width="1" height="1" transform="matrix(-1 0 0 1 5 1)" fill="#FFD600"/>
      <rect width="1" height="4" transform="matrix(-1 0 0 1 6 2)" fill="#FFD600"/>
      <rect width="3" height="1" transform="matrix(-1 0 0 1 4 0)" fill="#FFD600"/>
      <!-- Beak -->
      <rect x="4" y="4" width="2" height="2" fill="#FF6F0F"/>
      <rect x="5" y="5" width="2" height="1" fill="#FF6F0F"/>
      <!-- Normal eyes -->
      <g id="lchick-happy-eyes-n">
        <rect x="2" y="3" width="1" height="1" fill="black"/>
        <rect x="4" y="2" width="1" height="1" fill="black"/>
      </g>
      <!-- ^^ arc eyes (happy) -->
      <g id="lchick-happy-eyes-a" opacity="0">
        <rect x="1" y="4"   width="1" height="1" fill="black"/>
        <rect x="2" y="3"   width="1" height="1" fill="black"/>
        <rect x="3" y="2.5" width="1" height="1" fill="black"/>
        <rect x="4" y="3"   width="1" height="1" fill="black"/>
        <rect x="5" y="3"   width="1" height="1" fill="black"/>
      </g>
    </g>
  </g>

  <!-- Sparkles (outside animated group) -->
  <use href="#lchick-happy-sparkle" x="-2" y="-8" fill="#FFD700" style="--d: 0.0s"/>
  <use href="#lchick-happy-sparkle" x="17" y="-6" fill="#FFA000" style="--d: 0.3s"/>
  <use href="#lchick-happy-sparkle" x="15" y="7"  fill="#FFD700" style="--d: 0.6s"/>
</svg>
