<svg xmlns="http://www.w3.org/2000/svg" viewBox="-15 -25 45 45" shape-rendering="crispEdges">
  <!--
    Little Chick — base idle (head bob + leg walk)
    Keyframe prefix: lchick-base-
  -->
  <style>
    @keyframes lchick-base-head {
      0%   { transform: translate(6px, -2px) rotate(0deg); }
      50%  { transform: translate(6.8px, -2.1px) rotate(8deg); }
      100% { transform: translate(6px, -2px) rotate(0deg); }
    }
    @keyframes lchick-base-leg {
      0%   { transform: translate(2px, 6px) rotate(0deg); }
      50%  { transform: translate(2px, 6px) rotate(3deg); }
      100% { transform: translate(2px, 6px) rotate(0deg); }
    }
    #little-chick-head {
      animation-name: lchick-base-head;
      animation-duration: 1.2s;
      animation-iteration-count: infinite;
    }
    #lchick-base-leg {
      animation-name: lchick-base-leg;
      animation-duration: 0.5s;
      animation-iteration-count: 360;
      animation-timing-function: ease-in;
    }
  </style>

  <!-- Leg -->
  <g id="lchick-base-leg" transform="translate(2, 6)">
    <rect width="2" height="2" fill="#FF6F0F"/>
    <rect x="1" y="1" width="2" height="1" fill="#FF6F0F"/>
  </g>

  <!-- Body -->
  <g id="lchick-base-body">
    <rect width="6" height="1" transform="matrix(-1 0 0 1 7 4)" fill="#FFD600"/>
    <rect x="3" y="5" width="5" height="2" fill="#FFD600"/>
    <rect width="9" height="3" transform="matrix(-1 0 0 1 12 4)" fill="#FFD600"/>
    <rect width="6" height="1" transform="matrix(-1 0 0 1 11 8)" fill="#FFD600"/>
    <rect width="7" height="1" transform="matrix(-1 0 0 1 11 7)" fill="#FFD600"/>
    <rect width="4" height="1" transform="matrix(-1 0 0 1 10 9)" fill="#FFD600"/>
    <rect width="6" height="1" transform="matrix(-1 0 0 1 7 1)" fill="#FFD600"/>
    <rect width="1" height="1" transform="matrix(-1 0 0 1 3 5)" fill="#FFD600"/>
    <rect width="3" height="1" transform="matrix(-1 0 0 1 5 0)" fill="#FFD600"/>
    <rect width="7" height="2" transform="matrix(-1 0 0 1 7 2)" fill="#FFD600"/>
    <rect x="1" y="2" width="5" height="2" fill="#FFD600"/>
    <rect x="2" y="1" width="3" height="2" fill="#FFD600"/>
    <rect x="2" y="3" width="5" height="2" fill="#FFD600"/>
    <rect x="4" y="2" width="7" height="5" fill="#FFD600"/>
    <rect x="5" y="7" width="5" height="1" fill="#FFD600"/>
    <rect x="6" y="8" width="4" height="1" fill="#FFD600"/>
  </g>

  <!-- Head (animated — accessory anchor) -->
  <g id="little-chick-head" transform="translate(6, -2)">
    <rect x="1" y="1" width="4" height="6" fill="#FFD600"/>
    <rect width="1" height="4" transform="matrix(-1 0 0 1 1 1)" fill="#FFD600"/>
    <rect width="1" height="1" transform="matrix(-1 0 0 1 5 1)" fill="#FFD600"/>
    <rect width="1" height="4" transform="matrix(-1 0 0 1 6 2)" fill="#FFD600"/>
    <rect width="3" height="1" transform="matrix(-1 0 0 1 4 0)" fill="#FFD600"/>
    <!-- Beak -->
    <rect x="4" y="4" width="2" height="2" fill="#FF6F0F"/>
    <rect x="5" y="5" width="2" height="1" fill="#FF6F0F"/>
    <!-- Eyes -->
    <rect x="2" y="3" width="1" height="1" fill="black"/>
    <rect x="4" y="2" width="1" height="1" fill="black"/>
  </g>
</svg>
