<svg xmlns="http://www.w3.org/2000/svg" viewBox="-15 -25 45 45" shape-rendering="crispEdges">
  <!--
    Little Chick — notification
    Damped surprise bounce (3 bounces) + orange ! pop-in
    Keyframe prefix: lchick-notif-
  -->
  <style>
    @keyframes lchick-notif-obj {
      0%        { transform: translate(0, 0); }
      10%       { transform: translate(0, 1px); }
      20%       { transform: translate(0, -8px); }
      28%       { transform: translate(0, 1.5px); }
      35%       { transform: translate(0, -4px); }
      42%       { transform: translate(0, 1px); }
      48%       { transform: translate(0, -2px); }
      53%       { transform: translate(0, 0); }
      72%       { transform: translate(0, -2px); }
      80%, 100% { transform: translate(0, 0); }
    }
    @keyframes lchick-notif-alert {
      0%   { transform: scale(0);   opacity: 0; }
      8%   { transform: scale(1.3); opacity: 1; }
      14%  { transform: scale(1);   opacity: 1; }
      65%  { transform: scale(1);   opacity: 1; }
      75%  { transform: scale(0.7); opacity: 0; }
      100% { transform: scale(0);   opacity: 0; }
    }
    @keyframes lchick-notif-leg {
      0%   { transform: translate(2px, 6px) rotate(0deg); }
      50%  { transform: translate(2px, 6px) rotate(3deg); }
      100% { transform: translate(2px, 6px) rotate(0deg); }
    }
    #lchick-notif-obj   { animation: lchick-notif-obj 3.5s ease-in-out infinite; }
    #lchick-notif-leg   { animation: lchick-notif-leg 0.5s ease-in-out infinite; }
    #lchick-notif-alert {
      transform-origin: 0.6px 1.5px;
      animation: lchick-notif-alert 3.5s ease-in-out infinite;
    }
  </style>

  <!-- Shadow -->
  <g transform="translate(-2, 2)">
    <rect width="12" height="3"
      transform="matrix(0.707107 0.707107 0.707107 -0.707107 1.41422 2.12132)" fill="#6F6F6F"
      fill-opacity="0.1"/>
    <rect width="10" height="1"
      transform="matrix(0.707107 0.707107 0.707107 -0.707107 1.41422 3.53553)" fill="#6F6F6F"
      fill-opacity="0.1"/>
    <rect width="8" height="1"
      transform="matrix(0.707107 0.707107 0.707107 -0.707107 1.41422 4.94975)" fill="#6F6F6F"
      fill-opacity="0.1"/>
  </g>


  <g id="lchick-notif-obj">
    <!-- Leg (gentle idle sway) -->
    <g id="lchick-notif-leg" transform="translate(2, 6)">
      <rect width="2" height="2" fill="#FF6F0F"/>
      <rect x="1" y="1" width="2" height="1" fill="#FF6F0F"/>
    </g>

    <!-- Body -->
    <g>
      <rect width="6" height="1" transform="matrix(-1 0 0 1 7 4)" fill="#FFD600"/>
      <rect x="3" y="5" width="5" height="2" fill="#FFD600"/>
      <rect width="9" height="3" transform="matrix(-1 0 0 1 12 4)" fill="#FFD600"/>
      <rect width="6" height="1" transform="matrix(-1 0 0 1 11 8)" fill="#FFD600"/>
      <rect width="7" height="1" transform="matrix(-1 0 0 1 11 7)" fill="#FFD600"/>
      <rect width="4" height="1" transform="matrix(-1 0 0 1 10 9)" fill="#FFD600"/>
      <rect width="6" height="1" transform="matrix(-1 0 0 1 7 1)" fill="#FFD600"/>
      <rect width="1" height="1" transform="matrix(-1 0 0 1 3 5)" fill="#FFD600"/>
      <rect width="3" height="1" transform="matrix(-1 0 0 1 5 0)" fill="#FFD600"/>
      <rect width="7" height="2" transform="matrix(-1 0 0 1 7 2)" fill="#FFD600"/>
      <rect x="1" y="2" width="5" height="2" fill="#FFD600"/>
      <rect x="2" y="1" width="3" height="2" fill="#FFD600"/>
      <rect x="2" y="3" width="5" height="2" fill="#FFD600"/>
      <rect x="4" y="2" width="7" height="5" fill="#FFD600"/>
      <rect x="5" y="7" width="5" height="1" fill="#FFD600"/>
      <rect x="6" y="8" width="4" height="1" fill="#FFD600"/>
    </g>

    <!-- Head (accessory anchor) -->
    <g id="little-chick-head" transform="translate(6, -2)">
      <rect x="1" y="1" width="4" height="6" fill="#FFD600"/>
      <rect width="1" height="4" transform="matrix(-1 0 0 1 1 1)" fill="#FFD600"/>
      <rect width="1" height="1" transform="matrix(-1 0 0 1 5 1)" fill="#FFD600"/>
      <rect width="1" height="4" transform="matrix(-1 0 0 1 6 2)" fill="#FFD600"/>
      <rect width="3" height="1" transform="matrix(-1 0 0 1 4 0)" fill="#FFD600"/>
      <!-- Beak -->
      <rect x="4" y="4" width="2" height="2" fill="#FF6F0F"/>
      <rect x="5" y="5" width="2" height="1" fill="#FF6F0F"/>
      <!-- Eyes -->
      <rect x="2" y="3" width="1" height="1" fill="black"/>
      <rect x="4" y="2" width="1" height="1" fill="black"/>
    </g>
  </g>

  <!-- Floating ! (outside animated group — positioned at head level) -->
  <g transform="translate(13, -8)">
    <g id="lchick-notif-alert">
      <rect x="0"   y="0"   width="1.2" height="3"   fill="#FF8C00"/>
      <rect x="0"   y="3.8" width="1.2" height="1.2" fill="#FF8C00"/>
    </g>
  </g>
</svg>
