<svg xmlns="http://www.w3.org/2000/svg" viewBox="-15 -25 45 45" shape-rendering="crispEdges">
  <!--
    Little Chick — sleeping (no movement, closed eyes, Zzz particles)
    Keyframe prefix: lchick-sleep-
  -->
  <defs>
    <style>
      @keyframes lchick-sleep-zzz {
        0%   { transform: translate(10px, -2px) scale(0.5); opacity: 0; }
        10%  { opacity: 1; }
        50%  { transform: translate(14px, -8px) scale(0.8); opacity: 1; }
        90%  { opacity: 0.7; }
        100% { transform: translate(18px, -14px) scale(1.1); opacity: 0; }
      }
      .lchick-sleep-z {
        opacity: 0;
        animation: lchick-sleep-zzz 6s ease-in-out infinite;
      }
      .lchick-sleep-z1 { animation-delay: 0s; }
      .lchick-sleep-z2 { animation-delay: 2s; }
      .lchick-sleep-z3 { animation-delay: 4s; }
    </style>

  <!-- Shadow -->
  <g transform="translate(-2, 2)">
    <rect width="12" height="3"
      transform="matrix(0.707107 0.707107 0.707107 -0.707107 1.41422 2.12132)" fill="#6F6F6F"
      fill-opacity="0.1"/>
    <rect width="10" height="1"
      transform="matrix(0.707107 0.707107 0.707107 -0.707107 1.41422 3.53553)" fill="#6F6F6F"
      fill-opacity="0.1"/>
    <rect width="8" height="1"
      transform="matrix(0.707107 0.707107 0.707107 -0.707107 1.41422 4.94975)" fill="#6F6F6F"
      fill-opacity="0.1"/>
  </g>

    <!-- Pixel-art "Z" (3x3 grid) -->
    <g id="lchick-sleep-pixel-z">
      <rect x="0" y="0" width="3" height="1"/>
      <rect x="1" y="1" width="1" height="1"/>
      <rect x="0" y="2" width="3" height="1"/>
    </g>
  </defs>

  <!-- Leg (static) -->
  <g transform="translate(2, 6)">
    <rect width="2" height="2" fill="#FF6F0F"/>
    <rect x="1" y="1" width="2" height="1" fill="#FF6F0F"/>
  </g>

  <!-- Body -->
  <g>
    <rect width="6" height="1" transform="matrix(-1 0 0 1 7 4)" fill="#FFD600"/>
    <rect x="3" y="5" width="5" height="2" fill="#FFD600"/>
    <rect width="9" height="3" transform="matrix(-1 0 0 1 12 4)" fill="#FFD600"/>
    <rect width="6" height="1" transform="matrix(-1 0 0 1 11 8)" fill="#FFD600"/>
    <rect width="7" height="1" transform="matrix(-1 0 0 1 11 7)" fill="#FFD600"/>
    <rect width="4" height="1" transform="matrix(-1 0 0 1 10 9)" fill="#FFD600"/>
    <rect width="6" height="1" transform="matrix(-1 0 0 1 7 1)" fill="#FFD600"/>
    <rect width="1" height="1" transform="matrix(-1 0 0 1 3 5)" fill="#FFD600"/>
    <rect width="3" height="1" transform="matrix(-1 0 0 1 5 0)" fill="#FFD600"/>
    <rect width="7" height="2" transform="matrix(-1 0 0 1 7 2)" fill="#FFD600"/>
    <rect x="1" y="2" width="5" height="2" fill="#FFD600"/>
    <rect x="2" y="1" width="3" height="2" fill="#FFD600"/>
    <rect x="2" y="3" width="5" height="2" fill="#FFD600"/>
    <rect x="4" y="2" width="7" height="5" fill="#FFD600"/>
    <rect x="5" y="7" width="5" height="1" fill="#FFD600"/>
    <rect x="6" y="8" width="4" height="1" fill="#FFD600"/>
  </g>

  <!-- Head (static, closed eyes — accessory anchor) -->
  <g id="little-chick-head" transform="translate(6, -2)">
    <rect x="1" y="1" width="4" height="6" fill="#FFD600"/>
    <rect width="1" height="4" transform="matrix(-1 0 0 1 1 1)" fill="#FFD600"/>
    <rect width="1" height="1" transform="matrix(-1 0 0 1 5 1)" fill="#FFD600"/>
    <rect width="1" height="4" transform="matrix(-1 0 0 1 6 2)" fill="#FFD600"/>
    <rect width="3" height="1" transform="matrix(-1 0 0 1 4 0)" fill="#FFD600"/>
    <!-- Beak -->
    <rect x="4" y="4" width="2" height="2" fill="#FF6F0F"/>
    <rect x="5" y="5" width="2" height="1" fill="#FF6F0F"/>
    <!-- Closed eyes (horizontal dashes) -->
    <rect x="1.5" y="3" width="2" height="0.8" fill="black"/>
    <rect x="3.5" y="2" width="2" height="0.8" fill="black"/>
  </g>

  <!-- Zzz particles -->
  <use href="#lchick-sleep-pixel-z" class="lchick-sleep-z lchick-sleep-z1" fill="#90A4AE"/>
  <use href="#lchick-sleep-pixel-z" class="lchick-sleep-z lchick-sleep-z2" fill="#B0BEC5"/>
  <use href="#lchick-sleep-pixel-z" class="lchick-sleep-z lchick-sleep-z3" fill="#CFD8DC"/>
</svg>
